<?xml version="1.0" standalone="no"?>
<!DOCTYPE svg PUBLIC "-//W3C//DTD SVG 1.1//EN" "http://www.w3.org/Graphics/SVG/1.1/DTD/svg11.dtd" >
<svg xmlns="http://www.w3.org/2000/svg">
<metadata></metadata>
<defs>
<font id="skoda_promedium_italic" horiz-adv-x="1209" >
<font-face units-per-em="2048" ascent="1638" descent="-410" />
<missing-glyph horiz-adv-x="508" />
<glyph horiz-adv-x="2048" />
<glyph horiz-adv-x="2048" />
<glyph unicode="&#xd;" horiz-adv-x="508" />
<glyph unicode=" "  horiz-adv-x="508" />
<glyph unicode="&#x09;" horiz-adv-x="508" />
<glyph unicode="&#xa0;" horiz-adv-x="508" />
<glyph unicode="!" horiz-adv-x="547" d="M68 16l42 228q3 17 19 18l152 24q16 1 13 -14l-47 -256q-3 -16 -19 -16h-147q-16 0 -13 16zM173 509l161 950q3 17 19 18l159 25q16 1 13 -14l-194 -979q-3 -16 -19 -16h-126q-16 0 -13 16z" />
<glyph unicode="&#x22;" horiz-adv-x="765" d="M192 997l85 462q3 17 19 18l150 20q16 1 13 -14l-101 -486q-3 -16 -19 -16h-134q-16 0 -13 16zM521 997l86 462q3 17 19 18l149 20q16 1 13 -14l-100 -486q-3 -16 -19 -16h-135q-16 0 -13 16z" />
<glyph unicode="#" horiz-adv-x="1461" d="M26 371l40 139q4 15 20 15h241l149 425h-234q-17 0 -12 15l38 138q4 15 20 15h247l121 342q5 15 21 15h142q15 0 11 -15l-120 -342h348l120 342q5 15 21 15h143q15 0 11 -15l-121 -342h231q16 0 12 -15l-39 -138q-4 -15 -20 -15h-243l-149 -425h236q16 0 12 -15l-40 -139 q-4 -15 -20 -15h-247l-120 -341q-5 -15 -21 -15h-142q-16 0 -11 15l120 341h-348l-120 -341q-5 -15 -21 -15h-144q-16 0 -11 15l120 341h-229q-17 0 -12 15zM502 525h348l149 425h-348z" />
<glyph unicode="$" horiz-adv-x="1066" d="M20 36l49 121q5 15 22 12q71 -14 140.5 -18.5t142.5 -4.5l111 542l-70 25q-61 22 -106.5 50t-76 64t-45.5 81.5t-15 104.5q0 109 23 192.5t77 142t143.5 92t223.5 43.5l41 221q3 16 19 16h110q16 0 13 -16l-40 -217q78 -2 148.5 -8.5t125.5 -17.5q16 -3 10 -18l-43 -118 q-4 -8 -8.5 -11t-13.5 -2q-58 7 -120.5 11t-131.5 6l-106 -524l61 -22q67 -25 113.5 -55t75 -66t41 -79t12.5 -94q0 -116 -25.5 -204t-81 -148.5t-144 -96t-214.5 -46.5l-41 -223q-3 -16 -19 -16h-110q-16 0 -13 16l41 217q-81 1 -163 8t-146 21q-16 4 -10 19zM335 1049 q0 -39 10.5 -67.5t33 -51t56.5 -41.5t82 -38l96 475q-86 -6 -140 -24t-85 -51t-42 -83t-11 -119zM507 150q79 8 132 29.5t85 58t45 89t13 122.5q0 33 -9 59t-29.5 48.5t-54 43t-82.5 41.5z" />
<glyph unicode="%" horiz-adv-x="1889" d="M145.5 800q-10.5 74 8.5 178l24 131q22 120 60.5 196t91 119t118 59t142.5 16t135 -21.5t93.5 -68t45.5 -120.5t-9 -180l-23 -131q-21 -119 -59 -195t-90.5 -119t-118.5 -59t-144 -16q-77 0 -135 21.5t-93.5 68.5t-46 121zM295 857.5q4 -46.5 23 -75t52 -40.5t78 -12 q44 0 81 12t66 40.5t50.5 75.5t33.5 116l27 141q13 70 8.5 117t-24 75t-52 39.5t-75.5 11.5q-44 0 -81 -11.5t-66.5 -39.5t-51 -75t-34.5 -117l-26 -142q-13 -69 -9 -115.5zM299 13l1114 1449q6 8 11.5 10.5t14.5 2.5h174q16 0 6 -13l-1113 -1449q-10 -13 -26 -13h-175 q-16 0 -6 13zM1064.5 187q-10.5 74 8.5 178l24 131q22 120 60 196t90.5 119t118 59t142.5 16t136 -21.5t94.5 -68t45.5 -121t-9 -179.5l-24 -131q-22 -119 -59.5 -195t-90 -119t-118.5 -59t-144 -16q-77 0 -135 21.5t-93.5 68.5t-46 121zM1214.5 243.5q4.5 -46.5 23.5 -75 t51.5 -40.5t76.5 -12t81.5 12t66.5 40.5t50.5 75.5t34.5 116l26 142q13 70 8.5 117t-24 75t-52 39.5t-75.5 11.5q-44 0 -81 -11.5t-66.5 -39.5t-51 -75t-34.5 -117l-26 -143q-13 -69 -8.5 -115.5z" />
<glyph unicode="&#x26;" horiz-adv-x="1388" d="M20 271q0 56 9 104t30.5 92t56 86.5t86 88t121.5 96.5t161 112q-61 99 -93.5 177t-32.5 154q0 91 28.5 152t81 98t126.5 52.5t166 15.5q67 0 122 -15t94 -44.5t60 -72.5t21 -99q0 -69 -19.5 -122.5t-62.5 -102.5t-110 -100t-161 -116l260 -411q64 69 117 149.5t92 171.5 q4 8 8.5 11.5t13.5 3.5h126q16 0 10 -15q-50 -125 -119.5 -240.5t-162.5 -213.5l171 -269q9 -14 -7 -14h-172q-16 0 -25 13l-97 153q-115 -88 -254 -139t-302 -51q-62 0 -123.5 11.5t-110 43.5t-79 89.5t-30.5 150.5zM203 321q0 -63 19 -99.5t48.5 -56t65.5 -25t70 -5.5 q110 0 219.5 43t209.5 120l-275 432q-95 -66 -163 -118.5t-111 -100t-63 -93.5t-20 -97zM524 1195q0 -60 30 -121.5t73 -127.5q71 48 121 85.5t81.5 72t45.5 68t14 73.5q0 57 -41.5 84.5t-113.5 27.5q-45 0 -83.5 -8.5t-66.5 -27.5t-44 -50t-16 -76z" />
<glyph unicode="'" horiz-adv-x="435" d="M192 997l85 462q3 17 19 18l150 20q16 1 13 -14l-101 -486q-3 -16 -19 -16h-134q-16 0 -13 16z" />
<glyph unicode="(" horiz-adv-x="599" d="M69.5 55.5q-6.5 119.5 1 238.5t27.5 222l13 73q20 114 55 232t84 231.5t109.5 218t131.5 192.5q9 12 26 12h157q16 0 6 -12q-74 -92 -137.5 -204t-113.5 -230.5t-85.5 -237t-52.5 -224.5l-8 -49q-17 -106 -25.5 -224.5t-3.5 -236t25.5 -229t59.5 -202.5q7 -15 -9 -15 h-147q-9 0 -14 3t-9 11q-40 88 -62 199.5t-28.5 231z" />
<glyph unicode=")" horiz-adv-x="603" d="M-107 -378q74 92 137.5 204t113.5 230.5t85.5 237t52.5 224.5l8 49q17 106 25.5 224.5t3.5 236t-25.5 228.5t-59.5 203q-8 15 9 15h147q9 0 14 -3t9 -11q40 -88 62 -199.5t28.5 -231t-1 -238.5t-27.5 -222l-13 -73q-20 -114 -55 -232t-84 -231.5t-109.5 -218 t-131.5 -192.5q-9 -12 -26 -12h-157q-16 0 -6 12z" />
<glyph unicode="*" horiz-adv-x="941" d="M169 1026q-7 15 8 22l250 131l-198 128q-12 9 -3 22l69 93q6 8 10.5 8.5t12.5 -4.5l200 -129l49 260q3 16 19 16h106q16 0 13 -16l-48 -258l249 130q14 7 20 -8l37 -91q6 -15 -8 -22l-251 -131l199 -128q12 -9 3 -22l-70 -93q-10 -13 -23 -4l-201 129l-48 -262 q-3 -16 -19 -16h-107q-16 0 -13 16l48 259l-248 -130q-14 -7 -20 8z" />
<glyph unicode="+" horiz-adv-x="1030" d="M101 722l26 135q3 16 19 16h330l62 335q3 16 19 16h134q16 0 13 -16l-62 -335h331q16 0 13 -16l-25 -135q-3 -16 -19 -16h-331l-61 -332q-3 -16 -19 -16h-134q-16 0 -13 16l61 332h-331q-16 0 -13 16z" />
<glyph unicode="," horiz-adv-x="483" d="M-77 -227l165 472q3 8 7.5 12t13.5 5l179 24q16 1 10 -13l-219 -500q-5 -15 -22 -15h-123q-16 0 -11 15z" />
<glyph unicode="-" horiz-adv-x="812" d="M141 527l26 135q3 16 19 16h459q16 0 13 -16l-25 -135q-3 -16 -19 -16h-460q-16 0 -13 16z" />
<glyph unicode="." horiz-adv-x="452" d="M27 16l43 228q3 17 19 18l151 24q16 1 13 -14l-46 -256q-3 -16 -19 -16h-148q-16 0 -13 16z" />
<glyph unicode="/" horiz-adv-x="826" d="M-22 14l741 1528q4 8 9 11t14 3h162q17 0 9 -14l-741 -1528q-4 -8 -9 -11t-14 -3h-162q-17 0 -9 14z" />
<glyph unicode="0" horiz-adv-x="1311" d="M122.5 371.5q2.5 96.5 26.5 226.5l52 278q26 139 58.5 239.5t73 169.5t90 111t109 65t130 30.5t153.5 7.5q79 0 145.5 -10t117 -36t85 -71t50.5 -114t13.5 -165.5t-26.5 -226.5l-51 -278q-25 -140 -57.5 -240.5t-72.5 -169.5t-89.5 -110.5t-109.5 -64t-131.5 -30 t-155.5 -7.5q-78 0 -143.5 10t-116 36t-85.5 70.5t-51.5 113.5t-14 165.5zM306.5 432q-4.5 -72 4 -122t29.5 -81.5t53 -49t75.5 -23.5t96.5 -6q81 0 144 15.5t111.5 63.5t85 137.5t64.5 238.5l49 266q19 99 23.5 171t-4 122.5t-29.5 82t-53.5 49t-76 23.5t-97.5 6 q-53 0 -98.5 -6t-84.5 -23.5t-71 -49t-59 -82t-49.5 -122.5t-40.5 -171l-50 -268q-18 -99 -22.5 -171z" />
<glyph unicode="1" horiz-adv-x="759" d="M151 1253l4 140q0 16 16 19l351 60q8 2 16.5 2.5t15.5 0.5h148q16 0 13 -16l-268 -1443q-3 -16 -19 -16h-147q-16 0 -13 16l237 1283l-338 -59q-16 -3 -16 13z" />
<glyph unicode="2" horiz-adv-x="1088" d="M-17 16l18 94q13 71 31 129t41.5 106.5t55 91t73 83t93.5 80.5t117 85l248 169q53 36 94.5 68t70.5 67t44 77t15 99q0 44 -15.5 74.5t-49.5 49t-89 27t-134 8.5q-59 0 -141.5 -5.5t-165.5 -19.5q-16 -3 -16 13l2 132q0 16 16 20q42 10 88.5 16.5t93 10.5t90 6t78.5 2 q121 0 205.5 -19t136.5 -55t75.5 -88.5t23.5 -119.5q0 -87 -17.5 -151t-55.5 -118t-98.5 -104.5t-147.5 -111.5l-206 -143q-93 -65 -153.5 -114t-98 -95.5t-56.5 -95.5t-31 -114h648q16 0 13 -16l-26 -138q-3 -16 -19 -16h-838q-16 0 -13 16z" />
<glyph unicode="3" horiz-adv-x="1129" d="M10 22l33 139q2 9 6.5 12t13.5 2q74 -11 151.5 -17t147.5 -6q90 0 159 13.5t118 44.5t79 81.5t44 124.5l7 35q8 44 4 89.5t-27 82t-70 60t-126 23.5h-304q-16 0 -13 16l24 135q3 16 19 16h301q81 0 137.5 20.5t92.5 51.5t54 68t24 71l5 22q12 63 -4.5 105t-57 67 t-103.5 35.5t-146 10.5q-76 0 -151.5 -7t-152.5 -16q-15 -1 -14 14l16 138q2 9 5.5 13t12.5 6q66 11 149.5 19t171.5 8q125 0 220 -21.5t154.5 -66.5t82.5 -115.5t4 -168.5l-5 -26q-23 -120 -97 -198.5t-209 -110.5q63 -20 103 -61t61 -91.5t24.5 -105t-5.5 -101.5l-8 -39 q-27 -129 -77.5 -210t-125 -127.5t-173.5 -63.5t-222 -17q-91 0 -174 8t-147 20q-16 3 -12 18z" />
<glyph unicode="4" horiz-adv-x="1193" d="M10 367l30 162q2 9 5 15t9 13l823 906q11 12 27 12h182q16 0 13 -16l-177 -954h163q16 0 13 -16l-23 -122q-3 -16 -19 -16h-162l-63 -335q-3 -16 -19 -16h-148q-16 0 -13 16l63 335h-691q-16 0 -13 16zM222 505h521l132 710h-16l-636 -699z" />
<glyph unicode="5" horiz-adv-x="1116" d="M-7 30l52 135q4 8 8.5 11t13.5 1q35 -6 72.5 -11t74.5 -8.5t72 -5.5t65 -2q196 0 300.5 74t131.5 218l7 35q13 73 2 128t-51.5 91t-112.5 54t-180 18q-32 0 -69.5 -3t-74 -6.5t-67 -7.5t-47.5 -7q-16 -1 -13 14l20 109l7 31l162 562q4 15 20 15h749q16 0 10 -15l-51 -141 q-4 -8 -8.5 -11.5t-13.5 -3.5h-582l-113 -394l15 1.5t35.5 4t42 4t35.5 1.5q271 0 390.5 -111.5t75.5 -332.5l-7 -35q-26 -129 -80 -218t-134.5 -144t-187 -79.5t-238.5 -24.5q-96 0 -175 9t-147 26q-14 4 -9 19z" />
<glyph unicode="6" horiz-adv-x="1225" d="M122.5 320.5q-10.5 124.5 22.5 306.5l39 212q35 191 95 318t148.5 203t206 107.5t268.5 31.5q72 0 144 -8t138 -25q16 -4 9 -19l-48 -131q-4 -8 -8.5 -11t-13.5 -1q-56 10 -123 15.5t-128 5.5q-109 0 -191 -20.5t-142 -70.5t-100 -134t-65 -211q33 6 72 11.5t81.5 10.5 t87.5 8t89 3q107 0 191 -25.5t137.5 -79t73 -137t-2.5 -200.5l-3 -16q-22 -116 -70 -206.5t-121 -153t-171.5 -95.5t-220.5 -33q-115 0 -200 33.5t-134.5 110t-60 201zM301.5 387q3.5 -93 34 -145.5t85.5 -72t132 -19.5q156 0 247.5 80t117.5 229l3 17q15 81 4 136 t-45.5 88.5t-91 47.5t-132.5 14q-37 0 -78 -2.5t-82.5 -7t-80 -10t-71.5 -10.5l-19 -105q-27 -147 -23.5 -240z" />
<glyph unicode="7" horiz-adv-x="1022" d="M20 13l885 1291h-707q-16 0 -15 16l8 139q1 16 17 16h911q16 0 13 -16l-25 -139q-3 -15 -12 -29l-858 -1278q-9 -13 -25 -13h-185q-17 0 -7 13z" />
<glyph unicode="8" horiz-adv-x="1274" d="M86 207.5q-21 80.5 0 193.5l8 41q9 48 31 99t58.5 97t89 82.5t123.5 53.5q-51 18 -82 57t-45.5 87t-14.5 98.5t11 92.5l6 23q28 107 73 178t109.5 113t150 59t195.5 17q109 0 192 -24.5t134.5 -72.5t69 -119t-2.5 -164l-5 -23q-13 -59 -32.5 -110.5t-49.5 -93t-72 -72 t-99 -46.5q62 -22 100 -62.5t57 -88.5t22.5 -97.5t-3.5 -88.5l-7 -42q-25 -130 -76.5 -211.5t-126.5 -127.5t-171.5 -63t-211.5 -17q-116 0 -205.5 24t-147 75.5t-78.5 132zM260.5 284q10.5 -51 45.5 -83.5t95 -47t145 -14.5t150.5 14.5t113 47t76.5 83.5t43 124l8 39 q3 18 3 43t-6 52t-20.5 53.5t-41 47.5t-67 34t-98.5 13h-118q-58 0 -103 -13t-79 -34t-58.5 -47.5t-40.5 -53.5t-25 -52t-12 -43l-7 -39q-14 -73 -3.5 -124zM418.5 1012q1.5 -40 22 -74.5t63.5 -57t118 -22.5h117q75 0 124.5 22.5t80.5 57t47.5 74.5t25.5 75l4 16 q30 122 -34 177.5t-219 55.5q-78 0 -134.5 -13.5t-97 -42t-66 -72.5t-40.5 -105l-4 -16q-9 -35 -7.5 -75z" />
<glyph unicode="9" horiz-adv-x="1226" d="M66 28l49 134q4 8 8.5 11t13.5 1q28 -6 60.5 -10.5t66.5 -7.5t67.5 -4.5t64.5 -1.5q103 0 182 20t138.5 69t102 131t71.5 206q-33 -5 -71.5 -10t-80.5 -9t-86 -6.5t-87 -2.5q-111 0 -194 27.5t-133.5 84t-67 144t6.5 207.5l3 16q23 125 70 214.5t118 146.5t165.5 84 t212.5 27q112 0 198 -32.5t137.5 -107.5t64.5 -197t-20 -301l-27 -146q-41 -218 -103.5 -361t-152 -227t-208 -117.5t-269.5 -33.5q-73 0 -147 8.5t-142 24.5q-16 4 -11 19zM350.5 872.5q7.5 -58.5 39 -95t87 -53t135.5 -16.5q37 0 77.5 2t81 5.5t79 8t71.5 9.5l25 132 q27 145 21 235t-38.5 140t-89 67.5t-130.5 17.5q-80 0 -139 -17.5t-101 -54t-68 -92t-40 -130.5l-2 -16q-16 -84 -8.5 -142.5z" />
<glyph unicode=":" horiz-adv-x="519" d="M56 16l43 228q3 17 19 18l151 24q16 1 13 -14l-46 -256q-3 -16 -19 -16h-148q-16 0 -13 16zM181 692l43 228q3 17 19 18l151 24q16 1 13 -14l-46 -256q-3 -16 -19 -16h-148q-16 0 -13 16z" />
<glyph unicode=";" horiz-adv-x="545" d="M-44 -227l165 472q3 8 7.5 12t13.5 5l179 24q16 1 10 -13l-219 -500q-5 -15 -22 -15h-123q-16 0 -11 15zM206 692l43 228q3 17 19 18l151 24q16 1 13 -14l-46 -256q-3 -16 -19 -16h-148q-16 0 -13 16z" />
<glyph unicode="&#x3c;" horiz-adv-x="927" d="M98 696l27 140q3 16 17 24l701 410q15 7 16 -8l14 -144q3 -16 -12 -24l-590 -336l464 -329q13 -9 6 -24l-60 -136q-7 -15 -20 -6l-553 408q-13 9 -10 25z" />
<glyph unicode="=" horiz-adv-x="1194" d="M149 497l26 135q3 16 19 16h811q16 0 13 -16l-26 -135q-3 -16 -19 -16h-811q-16 0 -13 16zM237 968l24 134q3 16 19 16h810q16 0 13 -16l-24 -134q-3 -16 -19 -16h-810q-16 0 -13 16z" />
<glyph unicode="&#x3e;" horiz-adv-x="925" d="M103 413q-3 16 12 24l590 336l-464 329q-13 9 -6 24l60 136q7 15 20 6l553 -408q13 -9 10 -25l-27 -140q-3 -16 -17 -24l-701 -410q-15 -7 -16 8z" />
<glyph unicode="?" horiz-adv-x="888" d="M134 16l43 228q3 17 19 18l151 24q16 1 13 -14l-47 -256q-3 -16 -19 -16h-147q-16 0 -13 16zM221 478q0 21 2 43q7 57 18 99.5t32.5 80.5t57.5 76t93 86l78 64q45 39 79.5 70t59 59.5t39.5 58t22 64.5q14 79 -39.5 112t-177.5 33q-57 0 -113 -4.5t-126 -15.5 q-16 -1 -16 14v132q0 16 16 20q66 14 144 21.5t152 7.5q93 0 165.5 -16t119.5 -50.5t67.5 -88.5t9.5 -130q-8 -54 -25.5 -96.5t-48 -82.5t-75.5 -81.5t-106 -95.5l-89 -78q-50 -43 -79 -72.5t-45.5 -57.5t-25 -60t-17.5 -80l-11 -67q-3 -16 -19 -16h-123q-17 0 -17 16 q-2 14 -2 35z" />
<glyph unicode="@" horiz-adv-x="1811" d="M46.5 101q-9.5 98 6.5 211t53 237l40 135q61 207 159.5 351.5t229 235t291 131t345.5 40.5q156 0 263.5 -35.5t175 -99.5t97.5 -151.5t30 -191.5q0 -187 -35 -327t-98 -240.5t-151.5 -166t-196.5 -104t-232 -53.5t-257 -15q-116 0 -187.5 25t-103 78.5t-26.5 137.5 t42 202l34 115q39 132 83 218t104 135.5t142 69t197 19.5q67 0 137.5 -8t139.5 -22q16 -3 12 -18l-188 -765q91 25 167 72.5t131 129t85.5 201t30.5 288.5q0 81 -23.5 146.5t-75.5 111.5t-135.5 71t-204.5 25q-139 0 -264.5 -31.5t-231 -104.5t-188 -192.5t-136.5 -295.5 l-36 -117q-32 -104 -49.5 -198.5t-13.5 -175.5t31.5 -147t85 -113t147.5 -73t219 -27q16 0 12 -15l-35 -123q-4 -15 -20 -15q-152 2 -261.5 34t-182 89.5t-111 137.5t-48 178zM630 360.5q-8 -61.5 9 -94.5t62.5 -43.5t123.5 -10.5q48 0 85 2.5t74 10.5l163 670 q-34 5 -69.5 9t-72.5 4q-71 0 -121 -15t-86 -51.5t-63 -97.5t-52 -153l-18 -67q-27 -102 -35 -163.5z" />
<glyph unicode="A" horiz-adv-x="1294" d="M-86 14l765 1447q4 8 9 11t14 3h217q16 0 19 -16l229 -1443q3 -16 -13 -16h-163q-17 0 -18 16l-52 344h-629l-179 -346q-4 -8 -9 -11t-14 -3h-167q-12 0 -12 6q0 4 3 8zM381 532h514l-116 767z" />
<glyph unicode="B" horiz-adv-x="1329" d="M82 13l268 1446q3 16 19 17q36 3 79 6t89.5 5t93 3t90.5 1q151 0 256.5 -18t168.5 -59q62 -40 84 -108q12 -37 12 -83q0 -39 -8 -84l-2 -11q-12 -66 -32 -115t-46.5 -84t-58.5 -58.5t-68 -36.5q45 -22 79 -56.5t54.5 -81t25.5 -104.5l2 -32q0 -44 -10 -94l-9 -47 q-20 -105 -52.5 -178.5t-77.5 -122.5t-103.5 -76.5t-131 -41t-160 -16.5t-190.5 -3q-37 0 -81 1t-91 3t-95 4.5t-92 6.5q-16 1 -13 17zM287 152q52 -4 112 -6t114 -2q113 0 195 7.5t138.5 35t90 81.5t50.5 146l8 43q9 45 9 81q0 24 -4 42q-9 48 -36.5 76.5t-71.5 40 t-100 11.5h-402zM420 868h355q115 3 182.5 60t87.5 165l4 15q6 33 6 60q0 33 -9 57q-16 44 -58 66.5t-109.5 29.5t-156.5 7q-64 0 -117 -1.5t-101 -6.5z" />
<glyph unicode="C" horiz-adv-x="1170" d="M122 346q-5 43 -5 92q0 102 23 230l25 140q36 204 102 337.5t159 212t213 110t264 31.5q96 0 182 -10t145 -27q12 -3 12 -12q0 -3 -2 -8l-48 -131q-5 -15 -21 -12q-67 14 -143 20t-150 6q-104 0 -189.5 -24.5t-151.5 -83t-113.5 -156t-74.5 -243.5l-28 -160 q-20 -107 -20 -188q1 -30 3 -57q10 -98 54.5 -156.5t121 -82.5t180.5 -24q90 0 167.5 6t145.5 17q16 3 16 -13l-4 -132q0 -16 -16 -20q-65 -15 -156.5 -23.5t-191.5 -8.5q-144 0 -250 36.5t-169.5 119t-79.5 214.5z" />
<glyph unicode="D" horiz-adv-x="1411" d="M83 16l267 1443q3 16 19 17q42 3 90 5t95 3.5t89 2t72 0.5q102 0 194 -10.5t167 -39t131 -77.5t88 -126t37 -185q1 -17 1 -35q0 -96 -23 -219l-21 -113q-29 -158 -71.5 -271t-99 -190.5t-126 -124.5t-153 -71.5t-181 -32.5t-209.5 -8q-36 0 -79.5 1t-90 2.5t-93.5 4 t-90 6.5q-9 2 -12 6q-2 2 -2 6q0 2 1 6zM288 157q24 -3 53 -4.5t59.5 -3t59.5 -2t52 -0.5q124 0 221 20.5t170 78.5t123.5 161.5t81.5 270.5l22 119q20 110 21 192v9q-1 76 -17 132q-18 58 -53 96t-87 59.5t-120.5 30t-152.5 8.5q-21 0 -50 -0.5t-59 -1.5t-59 -2.5t-50 -3.5 z" />
<glyph unicode="E" horiz-adv-x="1189" d="M84 16l266 1443q3 16 19 16h848q16 0 13 -16l-26 -144q-3 -16 -19 -16h-684l-79 -427h575q16 0 13 -16l-27 -143q-3 -16 -19 -16h-575l-95 -522h683q16 0 13 -16l-27 -143q-3 -16 -19 -16h-847q-16 0 -13 16z" />
<glyph unicode="F" horiz-adv-x="1125" d="M84 16l266 1443q3 16 19 16h855q16 0 13 -16l-26 -144q-3 -16 -19 -16h-691l-79 -427h547q16 0 13 -16l-27 -143q-3 -16 -19 -16h-547l-126 -681q-3 -16 -19 -16h-147q-16 0 -13 16z" />
<glyph unicode="G" horiz-adv-x="1290" d="M120 342q-4 36 -4 77q0 108 27 249l25 140q37 201 100 334t155 212.5t213.5 112t275.5 32.5q46 0 93 -2.5t90.5 -7.5t82 -12t68.5 -16q12 -3 12 -12q0 -4 -2 -8l-47 -130q-5 -15 -21 -12q-69 13 -147 18.5t-154 5.5q-110 0 -197 -24t-153 -82t-112 -155.5t-73 -243.5 l-28 -160q-22 -114 -22 -199q0 -24 2 -45q8 -98 49 -156t115.5 -82t180.5 -24q73 0 132.5 4.5t113.5 12.5l82 445l-273 8q-16 0 -13 16l24 130q3 16 19 16h437q16 0 13 -16l-133 -719q-2 -9 -6 -13.5t-12 -7.5q-110 -32 -214.5 -42t-199.5 -10q-149 0 -255.5 35.5 t-168 116.5t-75.5 214z" />
<glyph unicode="H" horiz-adv-x="1451" d="M84 16l266 1443q3 16 19 16h147q16 0 13 -16l-107 -587h697l108 587q3 16 19 16h148q16 0 13 -16l-268 -1443q-3 -16 -19 -16h-147q-16 0 -13 16l126 681h-697l-126 -681q-3 -16 -19 -16h-147q-16 0 -13 16z" />
<glyph unicode="I" horiz-adv-x="574" d="M84 16l266 1443q3 16 19 16h147q16 0 13 -16l-266 -1443q-3 -16 -19 -16h-147q-16 0 -13 16z" />
<glyph unicode="J" horiz-adv-x="575" d="M-224 -274l46 131q4 16 21 12q21 -4 41 -4.5t39 -0.5q31 0 57 5t46 20.5t34.5 45t23.5 78.5l267 1446q3 16 19 16h147q16 0 13 -16l-269 -1459q-15 -81 -42 -139t-68.5 -95.5t-99.5 -55t-136 -17.5q-31 0 -66 4t-62 10q-12 3 -12 12q0 3 1 7z" />
<glyph unicode="K" horiz-adv-x="1228" d="M84 16l266 1443q3 16 19 16h146q16 0 13 -16l-112 -607l686 612q12 11 28 11h231q9 0 9 -4q0 -3 -5 -7l-729 -641l462 -809q8 -14 -8 -14h-203q-16 0 -24 14l-373 681l-122 -108l-105 -571q-3 -16 -19 -16h-147q-16 0 -13 16z" />
<glyph unicode="L" horiz-adv-x="1029" d="M84 16l266 1443q3 16 19 16h147q16 0 13 -16l-236 -1289h617q16 0 13 -16l-26 -138q-3 -16 -19 -16h-781q-16 0 -13 16z" />
<glyph unicode="M" horiz-adv-x="1667" d="M84 16l266 1443q3 16 19 16h163q9 0 13.5 -3.5t8.5 -11.5l246 -655q7 -18 13 -36t10.5 -33t6.5 -25l3 -10l7 9q6 10 16.5 25t23.5 34t27 37l487 656q6 8 11.5 10.5t14.5 2.5h190q16 0 13 -16l-267 -1443q-3 -16 -19 -16h-148q-16 0 -13 16l205 1106l11 72 q-2 -1 -17.5 -24.5t-34.5 -50.5l-457 -622q-9 -13 -25 -13h-106q-16 0 -21 15l-221 612q-11 33 -17.5 58t-8.5 25l-18 -88l-203 -1090q-3 -16 -19 -16h-147q-16 0 -13 16z" />
<glyph unicode="N" horiz-adv-x="1443" d="M84 16l266 1443q3 16 19 16h158q9 0 13.5 -3.5t8.5 -11.5l414 -1039q20 -51 30.5 -81.5t12.5 -30.5l213 1150q3 16 19 16h148q16 0 13 -16l-267 -1443q-3 -16 -19 -16h-169q-9 0 -13.5 3.5t-8.5 11.5l-401 1032q-20 51 -31 84.5t-12 33.5l-215 -1149q-3 -16 -19 -16h-147 q-16 0 -13 16z" />
<glyph unicode="O" horiz-adv-x="1433" d="M126 348q-4 39 -4 84q0 104 23 236l25 140q37 208 99 342t150 211.5t202.5 107.5t256.5 30q139 0 238.5 -37.5t157.5 -119.5q57 -82 71 -214q4 -40 4 -86q0 -104 -22 -235l-24 -140q-36 -207 -97.5 -340.5t-149.5 -211.5t-203 -108.5t-257 -30.5q-139 0 -239 38 t-158.5 120t-72.5 214zM305 414q7 -96 46 -153.5t108.5 -81t168.5 -23.5q95 0 174 24.5t140.5 82.5t105.5 154.5t70 241.5l30 158q21 115 21 200q0 21 -1 41q-7 96 -46 154.5t-109 82t-169 23.5q-96 0 -174.5 -23.5t-140 -81t-105.5 -154t-71 -241.5l-28 -160 q-21 -117 -21 -202q0 -22 1 -42z" />
<glyph unicode="P" horiz-adv-x="1296" d="M83 16l269 1443q3 16 19 17q42 3 91.5 5.5t98 5t92 3.5t74.5 1q170 0 287.5 -19.5t185.5 -69.5q70 -49 90 -134q9 -39 9 -88q0 -57 -13 -127l-16 -87q-18 -98 -44.5 -169t-66 -119.5t-94 -78t-129 -45.5t-170.5 -21t-218 -5q-20 0 -49 0.5t-57.5 1t-51.5 1.5t-32 2 l-95 -517q-3 -16 -19 -16h-148q-16 0 -13 16zM389 698q16 -2 41.5 -3t53 -2t54 -1.5t43.5 -0.5q132 0 222 11t149 42.5t91.5 88.5t49.5 148l11 56q9 53 9 94q-1 30 -5 54q-12 57 -58 88.5t-132.5 43t-219.5 11.5q-17 0 -43.5 -0.5t-54 -2t-53.5 -3t-42 -2.5z" />
<glyph unicode="Q" horiz-adv-x="1435" d="M126 353q-5 40 -5 85q0 102 23 230l25 140q25 141 61 247t83.5 183t106 127t128.5 80t152 42t177 12q139 0 239 -39t158 -122.5t72 -214.5q4 -39 4 -83q0 -103 -23 -233l-25 -140q-31 -171 -77.5 -291.5t-110 -200t-144.5 -122.5t-180 -61l160 -366q6 -15 -10 -15h-190 q-9 0 -13.5 3.5t-8.5 11.5l-132 350q-139 0 -239.5 39t-158.5 123t-72 215zM304 414q7 -96 46 -153.5t109 -81t169 -23.5q95 0 173.5 24.5t140 82.5t106 154.5t70.5 241.5l29 158q21 115 21 200q0 22 -1 41q-7 97 -46 155t-109 81.5t-169 23.5q-96 0 -174.5 -23.5 t-139.5 -81t-105 -154t-71 -241.5l-29 -160q-21 -117 -21 -202q0 -22 1 -42z" />
<glyph unicode="R" horiz-adv-x="1360" d="M84 16l267 1443q3 16 19 17q104 8 200 9.5t190 1.5q174 0 290 -18.5t181.5 -65.5t83.5 -128q8 -36 8 -82q0 -55 -12 -124l-18 -103q-19 -108 -51.5 -180.5t-80.5 -118.5t-110.5 -70.5t-141.5 -34.5q7 -14 13.5 -28.5t14.5 -31.5l207 -487q6 -15 -10 -15h-174 q-9 0 -13.5 3.5t-8.5 11.5l-208 536q-32 -1 -64 -1h-67q-57 0 -111.5 1t-123.5 6l-100 -541q-3 -16 -19 -16h-148q-16 0 -13 16zM395 721q27 -3 58 -4.5t62.5 -2t60.5 -1t52 -0.5q82 0 146.5 3t115 13t88 28.5t64.5 49.5t45 76t30 108l11 61q10 55 10 96q0 30 -6 54 q-14 54 -61 81.5t-129.5 34t-202.5 6.5q-29 0 -62.5 -0.5t-65.5 -1t-60.5 -2t-46.5 -4.5z" />
<glyph unicode="S" horiz-adv-x="1188" d="M20 31l53 130q5 15 22 12q48 -8 90 -13t81 -8t77 -4.5t78 -1.5q133 0 219 16.5t136.5 52t70.5 91.5t20 135q0 39 -14 67.5t-45.5 54t-83 51t-126.5 58.5l-132 61q-72 33 -124 68t-85.5 75t-49 86.5t-15.5 102.5q0 115 31.5 197t105.5 134.5t197.5 77.5t306.5 25 q92 0 178.5 -8t151.5 -25q10 -3 10 -12q0 -3 -1 -7l-49 -126q-5 -15 -22 -12q-32 5 -69 9t-75 6.5t-74.5 3.5t-66.5 1q-129 0 -213.5 -12.5t-134 -40.5t-69 -74.5t-19.5 -113.5q0 -43 15.5 -73.5t47.5 -55t80 -47.5t113 -50l154 -67q76 -32 127.5 -66.5t82.5 -73t44 -82.5 t13 -96q0 -141 -35 -237t-113 -154.5t-204 -84t-308 -25.5q-103 0 -200.5 9.5t-166.5 26.5q-12 3 -12 12q0 3 2 7z" />
<glyph unicode="T" horiz-adv-x="1174" d="M148 1315l27 144q3 16 19 16h1088q16 0 13 -16l-27 -144q-3 -16 -19 -16h-454l-238 -1283q-3 -16 -19 -16h-148q-16 0 -13 16l238 1283h-454q-16 0 -13 16z" />
<glyph unicode="U" horiz-adv-x="1457" d="M150 266q-9 43 -8 92q0 64 14 138l179 963q3 16 19 16h148q16 0 13 -16l-170 -920q-15 -81 -15 -144v-29q4 -73 38 -121t99.5 -71.5t169.5 -23.5q105 0 180 23t127.5 71t85 121t51.5 174l171 920q3 16 19 16h145q16 0 13 -16l-179 -963q-30 -159 -85 -260t-135.5 -158.5 t-186.5 -79.5t-238 -22q-127 0 -222.5 31.5t-154 96t-78.5 162.5z" />
<glyph unicode="V" horiz-adv-x="1284" d="M167 1459q-1 9 2 12.5t12 3.5h159q17 0 18 -16l187 -1292h2l668 1294q4 8 9 11t14 3h164q12 0 12 -6q0 -3 -3 -8l-762 -1447q-4 -8 -9 -11t-14 -3h-217q-17 0 -18 16z" />
<glyph unicode="W" horiz-adv-x="1861" d="M235 1459q0 16 16 16h167q16 0 16 -16l-13 -1073l-3 -230l9 22q9 21 22.5 54t30 73t33.5 78l478 1077q5 15 22 15h149q16 0 17 -16l79 -1069q0 -9 1.5 -29.5t3 -46t3.5 -53.5t3.5 -51.5t2.5 -38.5l1 -15l81 237l384 1067q5 15 21 15h172q12 0 12 -8q0 -3 -2 -7 l-561 -1445q-4 -8 -8.5 -11.5t-13.5 -3.5h-209q-16 0 -17 16l-91 1055q-1 20 -2 40.5t-1.5 38t-0.5 28.5v11q0 -1 -4.5 -12.5t-11 -28.5t-14.5 -37.5t-17 -39.5l-481 -1056q-4 -9 -9 -12t-14 -3h-208q-16 0 -16 16z" />
<glyph unicode="X" horiz-adv-x="1269" d="M-72 12l611 725l-342 724q-8 14 9 14h175q16 0 23 -15l264 -588l484 591q6 7 11.5 9.5t14.5 2.5h197q10 0 10 -5q0 -3 -4 -7l-610 -725l340 -724q8 -14 -9 -14h-175q-17 0 -22 15l-263 593l-485 -596q-6 -7 -11.5 -9.5t-14.5 -2.5h-197q-10 0 -10 5q0 2 4 7z" />
<glyph unicode="Y" horiz-adv-x="1163" d="M158 1460q-2 4 -2 7q0 8 13 8h159q16 0 21 -15l233 -748l508 750q9 13 25 13h178q11 0 11 -5q0 -3 -4 -8l-657 -955l-91 -491q-3 -16 -19 -16h-147q-16 0 -13 16l90 492z" />
<glyph unicode="Z" horiz-adv-x="1181" d="M-27 16l25 130q3 17 13 28l986 1134h-750q-16 0 -13 16l25 135q3 16 19 16h946q16 0 13 -16l-23 -130q-3 -15 -13 -28l-986 -1134h774q16 0 13 -16l-27 -135q-3 -16 -19 -16h-970q-16 0 -13 16z" />
<glyph unicode="[" horiz-adv-x="646" d="M-9 -373l354 1913q3 16 19 16h425q16 0 13 -16l-26 -138q-3 -16 -19 -16h-261l-297 -1605h261q16 0 13 -16l-26 -138q-3 -16 -19 -16h-424q-16 0 -13 16z" />
<glyph unicode="\" horiz-adv-x="1050" d="M215.5 1553q1.5 3 9.5 3h159q9 0 14.5 -2.5t8.5 -11.5l465 -1528q2 -8 0.5 -11t-9.5 -3h-159q-9 0 -14.5 2.5t-8.5 11.5l-465 1528q-2 8 -0.5 11z" />
<glyph unicode="]" horiz-adv-x="629" d="M-188 -373l26 138q3 16 19 16h261l297 1605h-261q-16 0 -13 16l26 138q3 16 19 16h424q16 0 13 -16l-354 -1913q-3 -16 -19 -16h-425q-16 0 -13 16z" />
<glyph unicode="^" horiz-adv-x="1242" d="M483 1161l320 301q12 11 28 11h127q16 0 25 -13l203 -297q10 -13 -7 -13h-125q-16 0 -25 13l-141 214l-230 -216q-12 -11 -28 -11h-143q-15 0 -4 11z" />
<glyph unicode="_" horiz-adv-x="940" d="M-112 -252l26 135q3 16 19 16h820q16 0 13 -16l-25 -135q-3 -16 -19 -16h-821q-16 0 -13 16z" />
<glyph unicode="`" horiz-adv-x="771" d="M440 1515q-10 13 6 13h192q16 0 24 -14l133 -236q8 -14 -8 -14h-141q-16 0 -26 13z" />
<glyph unicode="a" horiz-adv-x="1183" d="M80 249q-2 21 -2 43q0 80 20 181l24 126q29 152 70.5 248.5t108 151t164 75t237.5 20.5q46 0 96 -1.5t99.5 -4.5t97 -7t89.5 -8q16 -1 13 -18l-193 -1039q-2 -9 -6 -12.5t-13 -5.5q-101 -11 -196.5 -16.5t-183.5 -5.5q-143 0 -233.5 29t-137.5 89.5t-54 154.5zM251 322 q0 -72 28 -115t89 -61t163 -18q60 0 120.5 3t102.5 8l148 790q-45 5 -102 8.5t-124 3.5q-99 0 -165 -17t-109 -59t-69.5 -112.5t-47.5 -176.5l-14 -74q-20 -108 -20 -180z" />
<glyph unicode="b" horiz-adv-x="1182" d="M55 24l290 1562q3 17 19 18l145 24h2q14 0 11 -14l-100 -542q54 8 118 15t131 7q134 0 219.5 -28.5t129.5 -89t50 -154.5q1 -19 1 -38q0 -81 -19 -185l-24 -129q-27 -148 -69.5 -243.5t-110 -151t-167 -77.5t-240.5 -22q-89 0 -182.5 6t-190.5 23q-16 3 -13 19zM248 142 q50 -6 108.5 -10t116.5 -4q100 0 166.5 18t110.5 61t70.5 114.5t46.5 178.5l14 77q19 105 19 175t-28 112t-88 59.5t-161 17.5q-26 0 -56 -1t-60.5 -3.5t-59.5 -6t-53 -7.5z" />
<glyph unicode="c" horiz-adv-x="958" d="M84 249q-2 24 -1 50q0 81 17 186l17 101q24 144 66 241.5t111 157t171 84.5t248 25q67 0 126.5 -6t107.5 -15q13 -2 13 -11q0 -3 -2 -7l-36 -117q-5 -14 -21 -13q-49 8 -104 10.5t-110 2.5q-101 0 -168.5 -18t-112.5 -61t-72 -114.5t-46 -177.5l-13 -65 q-20 -105 -19 -176q0 -74 29 -118q29 -42 90 -59.5t163 -17.5q59 0 115.5 3.5t106.5 11.5q16 3 15 -13l-10 -116q-1 -16 -17 -19q-25 -5 -55 -9t-62 -7t-64.5 -4.5t-62.5 -1.5q-141 0 -230 27.5t-135.5 88t-54.5 157.5z" />
<glyph unicode="d" horiz-adv-x="1181" d="M80 246q-1 20 -1 42q0 81 19 185l23 126q18 97 42 172t57 130t77.5 92t103 59.5t132.5 32t168 9.5q59 0 118.5 -7t107.5 -17l95 516q3 17 19 18l147 24h2q14 0 11 -14l-296 -1590q-3 -17 -19 -18q-101 -15 -197.5 -22.5t-184.5 -7.5q-143 0 -233.5 27.5t-137.5 88 t-53 154.5zM250 322q0 -72 28.5 -115t89 -61t162.5 -18q57 0 115.5 4t108.5 10l146 779q-22 5 -50.5 8.5t-59 6t-60.5 4t-54 1.5q-99 0 -165.5 -17.5t-110 -60t-70 -112.5t-45.5 -175l-15 -74q-20 -108 -20 -180z" />
<glyph unicode="e" horiz-adv-x="1149" d="M84 263q-2 25 -2 53q0 80 17 180l15 88q24 138 67 235t110.5 158t162.5 89t223 28q104 0 178.5 -23.5t122.5 -68.5t71 -111t23 -151q0 -50 -6.5 -93.5t-16 -78t-19.5 -60t-16 -38.5q-4 -8 -8.5 -11t-13.5 -3l-731 -1q-10 -68 -10 -120q-1 -20 1 -38q6 -63 36 -100.5 t86.5 -53.5t143.5 -16q85 0 172 3.5t182 11.5q16 1 15 -15l-8 -111q-1 -9 -4.5 -12.5t-12.5 -5.5q-91 -10 -183 -16t-198 -6q-130 0 -214.5 30.5t-129.5 94.5t-53 162zM286 596l610 12q9 65 9 116q1 18 -1 36q-4 64 -32.5 104.5t-82.5 59t-140 18.5q-84 0 -144.5 -19.5 t-103 -61.5t-70 -107.5t-45.5 -157.5z" />
<glyph unicode="f" horiz-adv-x="718" d="M-282 -442l41 116q5 15 21 12q25 -5 55.5 -7.5t57.5 -2.5q52 0 87 8t58 29.5t37 58.5t25 94l193 1047l-182 16q-16 1 -13 17l19 109q3 16 19 16h186l25 136q22 122 50 203.5t75 130t121 69t189 20.5q50 0 98 -4.5t82 -10.5q13 -2 13 -11q0 -3 -2 -7l-36 -116 q-3 -9 -7.5 -12t-13.5 -2q-31 2 -71.5 3.5t-70.5 1.5q-65 0 -107 -10.5t-68.5 -34t-41 -61t-24.5 -91.5l-38 -204h258q17 0 11 -15l-40 -128q-5 -15 -21 -15h-237l-194 -1047q-20 -108 -49 -174.5t-74.5 -103.5t-111 -50t-156.5 -13q-36 0 -78 3.5t-74 10.5q-12 3 -12 12 q0 3 1 7z" />
<glyph unicode="g" horiz-adv-x="1184" d="M13 -436l33 112q4 16 20 13q26 -5 56.5 -7.5t61.5 -4.5t62 -2.5t58 -0.5q101 0 173 12.5t121.5 47.5t80.5 98t50 164q-20 -3 -46.5 -6t-56.5 -5t-62 -3.5t-63 -1.5q-142 0 -231.5 28.5t-136 89t-53.5 153.5q-1 19 -1 40q0 80 20 182l24 126q29 152 70.5 248.5t108 151 t164 75t237.5 20.5q46 0 96 -1.5t99.5 -4.5t97 -7t89.5 -8q16 -1 13 -18l-195 -1049q-19 -103 -47.5 -179t-67 -129.5t-88 -87t-110.5 -52.5t-135 -26t-161 -7q-30 0 -64.5 1.5t-70.5 4t-70.5 6.5t-63.5 9q-13 2 -13 12q0 3 1 6zM252 322q0 -72 28 -115t89 -61t163 -18 q60 0 120.5 3t102.5 8l148 790q-45 5 -102 8.5t-124 3.5q-99 0 -164.5 -17t-109 -59t-70 -112.5t-47.5 -176.5l-14 -74q-20 -108 -20 -180z" />
<glyph unicode="h" horiz-adv-x="1212" d="M56 16l291 1570q3 17 19 18l145 24h2q14 0 11 -14l-114 -612q43 22 90.5 39t96 29t95.5 18t90 6q103 0 167.5 -26t96.5 -82t34 -143q0 -7 1 -15q0 -82 -21 -194l-114 -618q-3 -16 -19 -16h-141q-16 0 -13 16l111 593q16 91 18 153v8q0 56 -19 90q-20 36 -65.5 51.5 t-121.5 15.5q-35 0 -75 -4.5t-81 -13.5t-81 -22.5t-76 -31.5l-155 -839q-3 -16 -19 -16h-140q-16 0 -13 16z" />
<glyph unicode="i" horiz-adv-x="509" d="M57 16l192 1039q3 16 19 16h140q16 0 13 -16l-193 -1039q-3 -16 -19 -16h-139q-16 0 -13 16zM283 1259l49 265q3 17 19 18l153 25h2q14 0 11 -14l-55 -294q-3 -16 -19 -16h-147q-16 0 -13 16z" />
<glyph unicode="j" horiz-adv-x="509" d="M-352 -442l41 116q5 15 21 12q25 -5 55 -7.5t57 -2.5q52 0 87 8t58.5 29.5t37 58.5t24.5 94l220 1189q3 16 19 16h140q16 0 13 -16l-219 -1189q-19 -100 -48.5 -166t-75 -105t-111 -54.5t-157.5 -15.5q-36 0 -77.5 3.5t-73.5 10.5q-12 3 -12 12q0 3 1 7zM284 1259l48 265 q3 17 19 18l153 25h2q14 0 11 -14l-54 -294q-3 -16 -19 -16h-147q-16 0 -13 16z" />
<glyph unicode="k" horiz-adv-x="1101" d="M56 16l291 1570q3 17 19 18l145 24h2q14 0 11 -14l-173 -931l521 379q13 9 29 9h237q8 0 8 -3q0 -2 -5 -6l-536 -383l349 -665q8 -14 -9 -14h-183q-9 0 -14 3t-9 11l-274 564l-153 -109l-84 -453q-3 -16 -19 -16h-140q-16 0 -13 16z" />
<glyph unicode="l" horiz-adv-x="522" d="M63 16l291 1570q3 17 19 18l145 24h2q14 0 11 -14l-296 -1598q-3 -16 -19 -16h-140q-16 0 -13 16z" />
<glyph unicode="m" horiz-adv-x="1744" d="M54 16l197 1058q3 16 19 16h106q9 0 12.5 -3.5t5.5 -12.5l7 -73q68 42 150 67.5t165 25.5q87 0 145.5 -22.5t91.5 -70.5q87 45 176.5 69t174.5 24q103 0 169.5 -26.5t100.5 -79.5q36 -54 40 -136q1 -15 1 -30q0 -71 -17 -160l-120 -646q-3 -16 -19 -16h-138q-16 0 -13 16 l112 610q18 92 18 151q0 61 -22 95q-22 33 -66 45t-112 12q-57 0 -118.5 -13.5t-125.5 -44.5q2 -19 2 -41q0 -76 -20 -175l-119 -639q-3 -16 -19 -16h-136q-16 0 -13 16l114 618q16 85 16 142q-1 60 -21 93t-59 46t-100 13q-60 0 -128 -16.5t-131 -58.5l-155 -837 q-3 -16 -19 -16h-139q-16 0 -13 16z" />
<glyph unicode="n" horiz-adv-x="1210" d="M54 16l197 1058q3 16 19 16h106q9 0 12.5 -3.5t5.5 -12.5l8 -75q43 23 91.5 40.5t98 29.5t97.5 18.5t91 6.5q103 0 167.5 -27.5t96.5 -84.5q32 -58 34 -144v-14q0 -82 -20 -190l-114 -618q-3 -16 -19 -16h-140q-16 0 -13 16l110 593q16 91 18 153v10q0 54 -18 88 q-20 36 -65.5 51.5t-121.5 15.5q-36 0 -75.5 -4.5t-80.5 -13.5t-81 -22.5t-76 -31.5l-156 -839q-3 -16 -19 -16h-140q-16 0 -13 16z" />
<glyph unicode="o" horiz-adv-x="1179" d="M81 264q-2 24 -2 50q0 78 18 174l17 91q27 142 71 240.5t111.5 159.5t161 88t219.5 27q127 0 210.5 -31.5t128 -95t52.5 -160.5q2 -22 2 -47q0 -81 -20 -181l-16 -91q-25 -143 -69 -240.5t-112 -158t-162.5 -87t-220.5 -26.5t-209 32t-127.5 96t-52.5 160zM251 328 q1 -70 26.5 -115t79 -65.5t140.5 -20.5t148.5 20.5t104 65.5t70 115.5t46.5 171.5l13 71q18 96 18 166q0 73 -27 119q-26 45 -79.5 65.5t-141.5 20.5q-87 0 -148.5 -20.5t-104 -65t-69.5 -115t-46 -170.5l-13 -73q-17 -94 -17 -162v-8z" />
<glyph unicode="p" horiz-adv-x="1182" d="M-30 -436l275 1483q3 17 19 18q103 16 199 22.5t185 6.5q141 0 230.5 -27t136 -86t53.5 -153q2 -22 2 -47q0 -79 -18 -181l-22 -124q-26 -147 -67.5 -243.5t-109 -153.5t-167 -80t-241.5 -23q-58 0 -116.5 6.5t-106.5 16.5l-80 -435q-3 -16 -19 -16h-140q-16 0 -13 16z M249 147q45 -9 104.5 -14t116.5 -5q101 0 168 18t111.5 61t70.5 114t46 178l14 74q20 104 20 175q0 73 -30 116q-28 42 -88.5 59.5t-161.5 17.5q-54 0 -115.5 -3.5t-110.5 -11.5z" />
<glyph unicode="q" horiz-adv-x="1182" d="M82 247q-1 21 -1 43q0 80 18 182l22 128q25 149 67 245t111 151.5t169 76.5t243 21q88 0 184 -7t187 -21q16 -3 13 -19l-275 -1483q-3 -16 -19 -16h-141q-16 0 -13 16l82 435q-51 -10 -112.5 -16.5t-118.5 -6.5q-142 0 -230.5 28.5t-133.5 88.5t-52 154zM250 321 q0 -71 28.5 -114t89 -61t161.5 -18q56 0 117.5 5t109.5 14l144 779q-47 8 -104.5 11.5t-114.5 3.5q-102 0 -169 -17.5t-111 -59.5t-70.5 -113t-45.5 -178l-15 -74q-20 -107 -20 -178z" />
<glyph unicode="r" horiz-adv-x="742" d="M54 16l197 1058q3 16 19 16h106q9 0 12.5 -3.5t5.5 -12.5l7 -64q34 22 73.5 38t81 26t82.5 15t78 5q17 0 32 -1t26 -3q13 -2 13 -12q0 -3 -1 -6l-37 -142q-4 -16 -20 -15q-13 2 -25.5 2.5t-29.5 0.5q-77 0 -147 -12.5t-145 -48.5l-156 -841q-3 -16 -19 -16h-140 q-16 0 -13 16z" />
<glyph unicode="s" horiz-adv-x="990" d="M7 25l34 117q5 15 21 12q79 -15 146 -20t138 -5q102 0 165 9t97.5 30.5t46 56t11.5 85.5q0 24 -8 42.5t-27.5 34.5t-52 32t-80.5 35l-171 65q-49 19 -85.5 40t-61 47.5t-36.5 60.5t-12 79q0 100 27.5 166.5t86.5 107t153 57.5t228 17q81 0 154 -7t128 -15q13 -1 13 -10 q0 -3 -2 -7l-36 -117q-5 -14 -21 -13q-54 7 -115.5 11t-131.5 4q-83 0 -141.5 -6t-95.5 -24t-54.5 -50t-17.5 -83q0 -21 7 -37.5t25.5 -32t50 -30.5t80.5 -33l146 -54q60 -22 103 -44t71 -49.5t41.5 -62.5t13.5 -83q0 -110 -28.5 -182t-90.5 -115t-160.5 -60.5t-237.5 -17.5 q-27 0 -66 1.5t-81.5 5t-85 9t-77.5 14.5q-12 3 -12 12q0 3 1 7z" />
<glyph unicode="t" horiz-adv-x="774" d="M86 951l18 104q3 16 19 16h194l37 196q3 16 19 19l146 23h5q11 0 8 -13l-43 -225h314q12 0 12 -9q0 -2 -1 -6l-45 -124q-5 -15 -21 -15h-287l-117 -636q-8 -45 -8 -73v-6q1 -30 13 -46t35.5 -20.5t58.5 -4.5q32 0 68.5 3t63.5 8q16 3 15 -13l-9 -111q-1 -16 -17 -20 q-38 -8 -91.5 -15t-106.5 -7q-64 0 -109 11t-70 43t-29 90q-1 12 -1 27q0 52 13 127l119 643l-190 17q-16 1 -13 17z" />
<glyph unicode="u" d="M102 230q-1 13 -1 27q0 79 20 181l115 617q3 16 19 16h140q16 0 13 -16l-113 -608q-16 -85 -17 -142q0 -6 1 -13q2 -61 29 -96t81 -49t141 -14q31 0 65 2t68 5t66 8t58 11l167 896q3 16 19 16h140q16 0 13 -16l-186 -1008q-3 -16 -19 -20q-40 -10 -89.5 -19t-104.5 -16 t-112.5 -11.5t-113.5 -4.5q-141 0 -226.5 27t-127 83t-45.5 144z" />
<glyph unicode="v" horiz-adv-x="1029" d="M102 1055q-3 16 13 16h152q17 0 18 -16l128 -897l464 899q4 8 9 11t14 3h162q11 0 11 -6q0 -3 -3 -8l-553 -1043q-8 -14 -24 -14h-207q-16 0 -19 16z" />
<glyph unicode="w" horiz-adv-x="1659" d="M143 1055q-1 16 15 16h150q16 0 17 -16l48 -807q0 -8 0.5 -25.5t0.5 -35v-31t1 -13.5q2 1 14.5 32.5t32.5 71.5l404 810q4 8 9 11t14 3h129q17 0 18 -16l101 -811q2 -19 3.5 -37t2.5 -32.5t2 -23t2 -8.5t6 13.5t11.5 31t13.5 34t12 24.5l346 810q5 15 22 15h155 q11 0 11 -7q0 -3 -2 -8l-467 -1041q-7 -15 -23 -15h-191q-17 0 -18 16l-107 706q-2 14 -3.5 30.5t-2 30.5t-1 23t-1.5 9t-4.5 -9.5t-9.5 -23.5t-13.5 -30t-14.5 -30l-372 -708q-4 -8 -9 -11t-14 -3h-191q-16 0 -17 16z" />
<glyph unicode="x" horiz-adv-x="1076" d="M-62 12l472 531l-267 514q-8 14 9 14h161q9 0 14 -3t9 -11l201 -415l356 417q9 12 26 12h184q10 0 10 -4q0 -3 -5 -8l-474 -530l269 -515q8 -14 -9 -14h-163q-9 0 -14 3t-9 11l-201 416l-356 -418q-9 -12 -26 -12h-182q-10 0 -10 4q0 3 5 8z" />
<glyph unicode="y" horiz-adv-x="998" d="M-187 -442l40 117q5 15 21 12q21 -4 46.5 -6.5t46.5 -2.5q43 0 77 4.5t63 16.5t55 34t52.5 58t56 87t65.5 122q-2 0 -9 4.5t-17 18.5t-21 41.5t-20 73.5l-172 917q-3 16 13 16h160q16 0 19 -16l116 -716q4 -29 8 -56.5t7 -49.5t5 -35l2 -13l411 872q4 8 9 11t14 3h165 q12 0 12 -6q0 -4 -3 -8l-573 -1139q-63 -125 -115 -202t-108.5 -119.5t-126 -57t-167.5 -14.5q-27 0 -61 3.5t-61 10.5q-11 3 -11 12q0 3 1 7z" />
<glyph unicode="z" horiz-adv-x="1021" d="M-20 18l22 114q2 10 5 15.5t8 10.5l737 756h-585q-17 0 -14 18l24 126q2 8 6.5 10.5t12.5 2.5h796q17 0 14 -18l-23 -118q-2 -7 -4.5 -11t-7.5 -9l-737 -757h589q17 0 14 -18l-24 -127q-2 -8 -6 -10.5t-12 -2.5h-801q-17 0 -14 18z" />
<glyph unicode="{" horiz-adv-x="682" d="M60 476l25 133q2 9 6 13.5t12 9.5q38 18 63.5 36.5t42.5 45t28 63.5t21 92l56 303q21 111 47.5 172.5t66 90.5t94.5 34.5t133 5.5h132q16 0 13 -16l-24 -139q-3 -16 -19 -16h-132q-34 0 -56 -5t-36 -19t-22.5 -39t-15.5 -65l-58 -307q-14 -76 -29.5 -125.5t-37 -84 t-53 -59t-77.5 -49.5l-3 -16q37 -26 58 -55.5t30 -67.5t6 -85.5t-14 -108.5l-57 -309q-7 -40 -8 -65t8 -39t28.5 -19t54.5 -5h130q16 0 13 -16l-25 -138q-3 -16 -19 -16h-132q-78 0 -130 12.5t-80 45.5t-32.5 92t13.5 152l57 304q10 54 12.5 91t-4.5 63.5t-25.5 45 t-49.5 36.5q-8 4 -10.5 9t-0.5 14z" />
<glyph unicode="|" horiz-adv-x="638" d="M208 -373v1832q0 16 16 16h148q16 0 16 -16v-1832q0 -16 -16 -16h-148q-16 0 -16 16z" />
<glyph unicode="}" horiz-adv-x="668" d="M-162 -374l24 139q3 16 19 16h132q34 0 56 5t36 19t22 39t16 65l58 307q14 76 29.5 125.5t37 84t53 59t77.5 49.5l3 16q-37 25 -58 55t-30 68t-6 85.5t14 108.5l57 309q7 40 8 65t-8 39t-29 19t-54 5h-130q-16 0 -13 16l25 138q3 16 19 16h132q78 0 130 -12.5t80 -45.5 t32.5 -92t-13.5 -152l-57 -304q-10 -54 -12.5 -91t4.5 -63.5t25 -45t50 -36.5q8 -4 10.5 -9t0.5 -14l-25 -133q-2 -9 -6 -13.5t-12 -9.5q-38 -18 -63.5 -36.5t-42.5 -45t-28 -63.5t-21 -92l-56 -303q-21 -111 -47.5 -172.5t-66 -90.5t-94.5 -34.5t-133 -5.5h-132 q-16 0 -13 16z" />
<glyph unicode="~" horiz-adv-x="1056" d="M134 619l7 44q16 91 44.5 143t62.5 77.5t70.5 31.5t69.5 6q54 0 93 -16.5t74 -50.5l55 -52q18 -17 33 -29.5t28.5 -20.5t26.5 -11.5t28 -3.5q20 0 36.5 5t30 22t25.5 49.5t23 87.5q3 16 19 16h101q16 0 13 -16l-7 -44q-15 -90 -43.5 -141.5t-62.5 -77.5t-71 -32.5 t-70 -6.5q-54 0 -93.5 15.5t-74.5 50.5l-54 53q-19 18 -33.5 31t-27.5 20.5t-26 11t-28 3.5q-20 0 -36.5 -5t-30.5 -22.5t-26 -50t-23 -87.5q-3 -16 -19 -16h-101q-16 0 -13 16z" />
<glyph unicode="&#xa2;" horiz-adv-x="929" d="M57 282q-1 93 23 222l22 118q25 135 59.5 229.5t87.5 156t128 94t181 43.5l41 223q3 16 19 16h127q16 0 13 -16l-41 -217q58 -2 108.5 -8t92.5 -15q16 -3 10 -18l-44 -121q-4 -8 -8.5 -11t-13.5 -2q-41 6 -85.5 9.5t-89.5 5.5l-161 -864q49 1 95 3.5t88 10.5q16 3 16 -13 v-114q0 -16 -16 -19q-43 -8 -100 -12.5t-111 -6.5l-40 -218q-3 -16 -19 -16h-125q-16 0 -13 16l41 225q-99 12 -161 46.5t-92.5 97t-31.5 155.5zM230 357q-4 -66 8.5 -111t44.5 -71t88 -38l156 842q-60 -13 -102 -40.5t-72 -72.5t-50.5 -110t-36.5 -152l-15 -90 q-17 -91 -21 -157z" />
<glyph unicode="&#xa3;" horiz-adv-x="1099" d="M1 16l26 143q2 9 6 13.5t12 8.5q39 18 64.5 36.5t42.5 44.5t28.5 63.5t21.5 91.5l50 274h-110q-16 0 -13 16l25 138q3 16 19 16h111l30 161q22 120 55 205.5t95 140.5t163 81t261 26h208q16 0 13 -16l-25 -139q-3 -16 -19 -16h-207q-102 0 -166 -14.5t-103 -47 t-59.5 -85.5t-34.5 -131l-31 -165h450q15 0 11 -15l-51 -140q-5 -15 -21 -15h-420l-51 -274q-9 -46 -19 -83t-22 -67t-27 -53.5t-34 -43.5h633q16 0 13 -16l-26 -138q-3 -16 -19 -16h-867q-16 0 -13 16z" />
<glyph unicode="&#xa5;" horiz-adv-x="1281" d="M113 235l48 129q4 8 8.5 11.5t13.5 3.5h312l24 131h-328q-16 0 -10 15l49 128q4 8 8.5 11.5t13.5 3.5h225l-264 792q-5 15 11 15h158q16 0 21 -15l236 -724l505 726q9 13 25 13h179q17 0 7 -13l-557 -794h300q16 0 10 -15l-48 -128q-4 -8 -8.5 -11.5t-13.5 -3.5h-340 l-24 -131h357q16 0 10 -15l-48 -129q-4 -8 -8.5 -11.5t-13.5 -3.5h-326l-37 -204q-3 -16 -19 -16h-147q-16 0 -13 16l37 204h-343q-16 0 -10 15z" />
<glyph unicode="&#xa8;" horiz-adv-x="772" d="M363 1259l50 265q3 16 19 19l148 23q16 3 13 -13l-55 -294q-3 -16 -19 -16h-143q-16 0 -13 16zM701 1259l49 265q3 16 19 19l149 23q16 3 13 -13l-55 -294q-3 -16 -19 -16h-143q-16 0 -13 16z" />
<glyph unicode="&#xa9;" horiz-adv-x="1569" d="M138 574q0 216 46.5 379t144 272.5t248 164.5t358.5 55q147 0 250.5 -36.5t168 -103.5t94 -162t29.5 -212q0 -215 -46.5 -376.5t-144 -270.5t-248 -163.5t-357.5 -54.5q-147 0 -250.5 36t-168.5 102t-94.5 160t-29.5 210zM291 585q0 -86 20.5 -154.5t69 -116.5t128 -73.5 t196.5 -25.5q153 0 269 40.5t193 127t116 221.5t39 324q0 85 -20.5 153t-68.5 116t-126.5 73.5t-195.5 25.5q-154 0 -270 -40t-194 -126.5t-117 -221t-39 -323.5zM472 549q-5 74 15 178l14 72q19 104 51 175.5t82.5 115.5t121.5 63t168 19q48 0 91.5 -4t78.5 -12 q17 -3 11 -18l-38 -119q-5 -14 -21 -13q-34 5 -70 6.5t-71 1.5q-59 0 -100 -12.5t-69 -40.5t-45.5 -72t-29.5 -108l-8 -49q-12 -65 -11.5 -109.5t18 -72.5t54 -40.5t95.5 -12.5q40 0 75.5 2t69.5 7q16 1 15 -14l-5 -118q-1 -16 -17 -19q-36 -8 -84 -12t-92 -4 q-98 0 -162 21.5t-98 68t-39 120.5z" />
<glyph unicode="&#xab;" horiz-adv-x="1219" d="M51 584q-9 13 3 24l408 372q12 11 28 11h192q15 0 4 -11l-433 -395l270 -368q10 -13 -7 -13h-169q-16 0 -25 13zM543 584q-9 13 3 24l408 372q12 11 28 11h192q15 0 4 -11l-433 -395l270 -368q10 -13 -7 -13h-169q-16 0 -25 13z" />
<glyph unicode="&#xad;" horiz-adv-x="812" d="M141 527l26 135q3 16 19 16h459q16 0 13 -16l-25 -135q-3 -16 -19 -16h-460q-16 0 -13 16z" />
<glyph unicode="&#xae;" horiz-adv-x="1292" d="M171 850q0 196 44 329.5t126.5 215t201 116.5t267.5 35q123 0 206.5 -31t134.5 -85.5t73 -130t22 -164.5q0 -195 -43 -328t-125.5 -214.5t-201.5 -117t-270 -35.5q-120 0 -203 30.5t-134.5 85.5t-74.5 130t-23 164zM303 860q0 -69 15.5 -123t53 -92t100 -58t156.5 -20 q138 0 231.5 38t150 110t80.5 176t24 237q0 68 -16 122t-53.5 91.5t-100 57.5t-156.5 20q-138 0 -231.5 -37.5t-149.5 -109t-80 -175.5t-24 -237zM443 687l111 606q3 16 19 17q45 3 87 4t80 1q78 0 129.5 -8.5t80 -30t35 -57.5t-5.5 -91l-7 -39q-11 -66 -39.5 -108.5 t-89.5 -63.5l70 -209q5 -14 -7 -25l-1 -2q-7 -5 -13 -7.5t-15 -2.5h-61q-16 0 -20 15l-58 212q-16 -1 -32.5 -1.5t-34.5 -0.5q-14 0 -34.5 0.5t-42.5 2.5l-41 -212q-3 -16 -19 -16h-78q-16 0 -13 16zM611 1001q20 -1 46 -1h41q41 0 70.5 3t49 12.5t31 28.5t16.5 51l4 26 q6 28 1 44.5t-21.5 25t-45 11t-69.5 2.5q-19 0 -43.5 -0.5t-39.5 -1.5z" />
<glyph unicode="&#xb4;" horiz-adv-x="772" d="M417 1276l230 240q11 12 27 12h206q16 0 4 -10l-282 -244q-7 -5 -13 -7.5t-15 -2.5h-152q-17 0 -5 12z" />
<glyph unicode="&#xb8;" horiz-adv-x="771" d="M168 -376l193 261q9 13 25 13h141q17 0 7 -13l-174 -261q-9 -13 -25 -13h-160q-17 0 -7 13z" />
<glyph unicode="&#xbb;" horiz-adv-x="1222" d="M34 214l433 395l-270 368q-10 13 7 13h169q16 0 25 -13l271 -367q9 -13 -3 -24l-408 -372q-12 -11 -28 -11h-192q-15 0 -4 11zM526 214l433 395l-270 368q-10 13 7 13h169q16 0 25 -13l271 -367q9 -13 -3 -24l-408 -372q-12 -11 -28 -11h-192q-15 0 -4 11z" />
<glyph unicode="&#xc1;" horiz-adv-x="1294" d="M-86 14l765 1447q4 8 9 11t14 3h217q16 0 19 -16l229 -1443q3 -16 -13 -16h-163q-17 0 -18 16l-52 344h-629l-179 -346q-4 -8 -9 -11t-14 -3h-167q-17 0 -9 14zM381 532h514l-116 767zM656 1614l232 195q7 5 13 7.5t15 2.5h205q7 0 7.5 -2.5t-4.5 -6.5l-270 -197 q-7 -5 -13.5 -7t-15.5 -2h-165q-16 0 -4 10z" />
<glyph unicode="&#xc9;" horiz-adv-x="1189" d="M84 16l266 1443q3 16 19 16h848q16 0 13 -16l-26 -144q-3 -16 -19 -16h-684l-79 -427h575q16 0 13 -16l-27 -143q-3 -16 -19 -16h-575l-95 -522h683q16 0 13 -16l-27 -143q-3 -16 -19 -16h-847q-16 0 -13 16zM649 1614l232 195q7 5 13 7.5t15 2.5h205q7 0 7.5 -2.5 t-4.5 -6.5l-270 -197q-7 -5 -13.5 -7t-15.5 -2h-165q-16 0 -4 10z" />
<glyph unicode="&#xcd;" horiz-adv-x="574" d="M84 16l266 1443q3 16 19 16h147q16 0 13 -16l-266 -1443q-3 -16 -19 -16h-147q-16 0 -13 16zM241 1614l232 195q7 5 13 7.5t15 2.5h205q7 0 7.5 -2.5t-4.5 -6.5l-270 -197q-7 -5 -13.5 -7t-15.5 -2h-165q-16 0 -4 10z" />
<glyph unicode="&#xd3;" horiz-adv-x="1433" d="M126 348.5q-14 131.5 19 319.5l25 140q37 208 99 342t150 211.5t202.5 107.5t256.5 30q139 0 238.5 -37.5t157 -120t71.5 -214t-18 -320.5l-24 -140q-36 -207 -97.5 -340.5t-149.5 -211.5t-203 -108.5t-257 -30.5q-139 0 -239 38t-158.5 120.5t-72.5 214zM305 414.5 q7 -96.5 46 -154t108.5 -81t168.5 -23.5q95 0 174 24.5t140.5 82.5t105.5 154.5t70 241.5l30 158q27 145 20 241.5t-46 154.5t-109 81.5t-169 23.5q-96 0 -174.5 -23.5t-140 -81t-105.5 -154t-71 -241.5l-28 -160q-27 -147 -20 -243.5zM709 1614l232 195q7 5 13 7.5t15 2.5 h205q7 0 7.5 -2.5t-4.5 -6.5l-270 -197q-7 -5 -13.5 -7t-15.5 -2h-165q-16 0 -4 10z" />
<glyph unicode="&#xda;" horiz-adv-x="1457" d="M150.5 265.5q-19.5 97.5 5.5 230.5l179 963q3 16 19 16h148q16 0 13 -16l-170 -920q-19 -100 -14.5 -173t38 -121t99 -71.5t169.5 -23.5q105 0 180 23t127.5 71t85 121t51.5 174l171 920q3 16 19 16h145q16 0 13 -16l-179 -963q-30 -159 -85 -260t-135.5 -158.5 t-186.5 -79.5t-238 -22q-127 0 -222.5 31.5t-154 96t-78 162zM773 1614l232 195q7 5 13 7.5t15 2.5h205q7 0 7.5 -2.5t-4.5 -6.5l-270 -197q-7 -5 -13.5 -7t-15.5 -2h-165q-16 0 -4 10z" />
<glyph unicode="&#xdd;" horiz-adv-x="1163" d="M158 1460q-6 15 11 15h159q16 0 21 -15l233 -748l508 750q9 13 25 13h178q17 0 7 -13l-657 -955l-91 -491q-3 -16 -19 -16h-147q-16 0 -13 16l90 492zM602 1614l232 195q7 5 13 7.5t15 2.5h205q7 0 7.5 -2.5t-4.5 -6.5l-270 -197q-7 -5 -13.5 -7t-15.5 -2h-165 q-16 0 -4 10z" />
<glyph unicode="&#xe1;" horiz-adv-x="1183" d="M80 249q-7 94 18 224l24 126q29 152 70.5 248.5t108 151t164 75t237.5 20.5q46 0 96 -1.5t99.5 -4.5t97 -7t89.5 -8q16 -1 13 -18l-193 -1039q-2 -9 -6 -12.5t-13 -5.5q-101 -11 -196.5 -16.5t-183.5 -5.5q-143 0 -233.5 29t-137.5 89.5t-54 154.5zM251 322 q0 -72 28 -115t89 -61t163 -18q60 0 120.5 3t102.5 8l148 790q-45 5 -102 8.5t-124 3.5q-99 0 -165 -17t-109 -59t-69.5 -112.5t-47.5 -176.5l-14 -74q-20 -108 -20 -180zM582 1276l230 240q11 12 27 12h206q16 0 4 -10l-282 -244q-7 -5 -13 -7.5t-15 -2.5h-152q-17 0 -5 12 z" />
<glyph unicode="&#xe9;" horiz-adv-x="1149" d="M84 263q-8 98 15 233l15 88q24 138 67 235t110.5 158t162.5 89t223 28q104 0 178.5 -23.5t122.5 -68.5t71 -111t23 -151q0 -50 -6.5 -93.5t-16 -78t-19.5 -60t-16 -38.5q-4 -8 -8.5 -11t-13.5 -3l-731 -1q-14 -95 -8.5 -158t35.5 -100.5t86.5 -53.5t143.5 -16 q85 0 172 3.5t182 11.5q16 1 15 -15l-8 -111q-1 -9 -4.5 -12.5t-12.5 -5.5q-91 -10 -183 -16t-198 -6q-130 0 -214.5 30.5t-129.5 94.5t-53 162zM286 596l610 12q12 89 7.5 152.5t-32.5 104t-82 59t-140 18.5q-84 0 -144.5 -19.5t-103 -61.5t-70 -107.5t-45.5 -157.5z M562 1276l230 240q11 12 27 12h206q16 0 4 -10l-282 -244q-7 -5 -13 -7.5t-15 -2.5h-152q-17 0 -5 12z" />
<glyph unicode="&#xed;" horiz-adv-x="509" d="M57 16l192 1039q3 16 19 16h140q16 0 13 -16l-193 -1039q-3 -16 -19 -16h-139q-16 0 -13 16zM184 1276l230 240q11 12 27 12h206q16 0 4 -10l-282 -244q-7 -5 -13 -7.5t-15 -2.5h-152q-17 0 -5 12z" />
<glyph unicode="&#xf3;" horiz-adv-x="1179" d="M81 264.5q-8 95.5 16 223.5l17 91q27 142 71 240.5t111.5 159.5t161 88t219.5 27q127 0 210.5 -31.5t128 -95t52 -160.5t-17.5 -228l-16 -91q-25 -143 -69 -240.5t-112 -158t-162.5 -87t-220.5 -26.5t-209 32t-127.5 96.5t-52.5 160zM251 328.5q1 -70.5 26.5 -115.5 t79 -65.5t140.5 -20.5t148.5 20.5t104 65.5t70 115.5t46.5 171.5l13 71q18 99 17.5 169.5t-26.5 115.5t-79.5 65.5t-141.5 20.5q-87 0 -148.5 -20.5t-104 -65t-69.5 -115t-46 -170.5l-13 -73q-18 -99 -17 -169.5zM548 1276l230 240q11 12 27 12h206q16 0 4 -10l-282 -244 q-7 -5 -13 -7.5t-15 -2.5h-152q-17 0 -5 12z" />
<glyph unicode="&#xfa;" d="M102 230.5q-4 87.5 19 207.5l115 617q3 16 19 16h140q16 0 13 -16l-113 -608q-18 -94 -16 -155t29 -96t81 -49t141 -14q31 0 65 2t68 5t66 8t58 11l167 896q3 16 19 16h140q16 0 13 -16l-186 -1008q-3 -16 -19 -20q-40 -10 -89.5 -19t-104.5 -16t-112.5 -11.5 t-113.5 -4.5q-141 0 -226.5 27t-127 83.5t-45.5 144zM596 1276l230 240q11 12 27 12h206q16 0 4 -10l-282 -244q-7 -5 -13 -7.5t-15 -2.5h-152q-17 0 -5 12z" />
<glyph unicode="&#xfd;" horiz-adv-x="998" d="M-187 -442l40 117q5 15 21 12q21 -4 46.5 -6.5t46.5 -2.5q43 0 77 4.5t63 16.5t55 34t52.5 58t56 87t65.5 122q-2 0 -9 4.5t-17 18.5t-21 41.5t-20 73.5l-172 917q-3 16 13 16h160q16 0 19 -16l116 -716q4 -29 8 -56.5t7 -49.5t5 -35l2 -13l411 872q4 8 9 11t14 3h165 q17 0 9 -14l-573 -1139q-63 -125 -115 -202t-108.5 -119.5t-126 -57t-167.5 -14.5q-27 0 -61 3.5t-61 10.5q-15 4 -10 19zM471 1276l230 240q11 12 27 12h206q16 0 4 -10l-282 -244q-7 -5 -13 -7.5t-15 -2.5h-152q-17 0 -5 12z" />
<glyph unicode="&#x10c;" horiz-adv-x="1170" d="M122.5 345.5q-16.5 131.5 17.5 322.5l25 140q36 204 102 337.5t159 212t213 110t264 31.5q96 0 182 -10t145 -27q16 -4 10 -20l-48 -131q-5 -15 -21 -12q-67 14 -143 20t-150 6q-104 0 -189.5 -24.5t-151.5 -83t-113.5 -156t-74.5 -243.5l-28 -160q-28 -147 -17.5 -245 t55 -156.5t121 -82.5t180.5 -24q90 0 167.5 6t145.5 17q16 3 16 -13l-4 -132q0 -16 -16 -20q-65 -15 -156.5 -23.5t-191.5 -8.5q-144 0 -250 36.5t-169 119t-79.5 214zM611 1807q-12 12 5 12h147q9 0 14.5 -2.5t11.5 -9.5l84 -103h20l123 105q7 5 13 7.5t15 2.5h174 q16 0 3 -10l-252 -195q-8 -5 -14 -7.5t-15 -2.5h-136q-16 0 -27 12z" />
<glyph unicode="&#x10d;" horiz-adv-x="958" d="M84.5 249q-7.5 97 15.5 236l17 101q24 144 66 241.5t111 157t171 84.5t248 25q67 0 126.5 -6t107.5 -15q17 -3 11 -18l-36 -117q-5 -14 -21 -13q-49 8 -104 10.5t-110 2.5q-101 0 -168.5 -18t-112.5 -61t-72 -114.5t-46 -177.5l-13 -65q-20 -108 -19.5 -179.5t29.5 -114 t90 -60t163 -17.5q59 0 115.5 3.5t106.5 11.5q16 3 15 -13l-10 -116q-1 -16 -17 -19q-25 -5 -55 -9t-62 -7t-64.5 -4.5t-62.5 -1.5q-141 0 -230 27.5t-135.5 88t-54 157.5zM406 1515q-10 13 7 13h145q16 0 24 -14l81 -143h21l134 145q11 12 27 12h166q15 0 4 -11l-257 -245 q-12 -11 -28 -11h-135q-16 0 -25 13z" />
<glyph unicode="&#x10e;" horiz-adv-x="1411" d="M83 16l267 1443q3 16 19 17q42 3 90 5t95 3.5t89 2t72 0.5q102 0 194 -10.5t167 -39t131 -77.5t88 -126t37 -185t-22 -254l-21 -113q-29 -158 -71.5 -271t-99 -190.5t-126 -124.5t-153 -71.5t-181 -32.5t-209.5 -8q-36 0 -79.5 1t-90 2.5t-93.5 4t-90 6.5q-9 2 -12 5.5 t-1 12.5zM288 157q24 -3 53 -4.5t59.5 -3t59.5 -2t52 -0.5q124 0 221 20.5t170 78.5t123.5 161.5t81.5 270.5l22 119q20 110 21 192t-16.5 140.5t-53 96.5t-87.5 59.5t-120.5 30t-152.5 8.5q-21 0 -50 -0.5t-59 -1.5t-59 -2.5t-50 -3.5zM562 1807q-12 12 5 12h147 q9 0 14.5 -2.5t11.5 -9.5l84 -103h20l123 105q7 5 13 7.5t15 2.5h174q16 0 3 -10l-252 -195q-8 -5 -14 -7.5t-15 -2.5h-136q-16 0 -27 12z" />
<glyph unicode="&#x10f;" horiz-adv-x="1181" d="M80.5 245.5q-6.5 94.5 17.5 227.5l23 126q18 97 42 172t57 130t77.5 92t103 59.5t132.5 32t168 9.5q59 0 118.5 -7t107.5 -17l95 516q3 17 19 18l147 24q16 1 13 -14l-296 -1590q-3 -17 -19 -18q-101 -15 -197.5 -22.5t-184.5 -7.5q-143 0 -233.5 27.5t-137 87.5 t-53 154.5zM250 322q0 -72 28.5 -115t89 -61t162.5 -18q57 0 115.5 4t108.5 10l146 779q-22 5 -50.5 8.5t-59 6t-60.5 4t-54 1.5q-99 0 -165.5 -17.5t-110 -60t-70 -112.5t-45.5 -175l-15 -74q-20 -108 -20 -180zM1251 1210l70 376q3 17 19 18l143 23q16 1 12 -13l-104 -405 q-4 -15 -20 -15h-107q-16 0 -13 16z" />
<glyph unicode="&#x11a;" horiz-adv-x="1189" d="M84 16l266 1443q3 16 19 16h848q16 0 13 -16l-26 -144q-3 -16 -19 -16h-684l-79 -427h575q16 0 13 -16l-27 -143q-3 -16 -19 -16h-575l-95 -522h683q16 0 13 -16l-27 -143q-3 -16 -19 -16h-847q-16 0 -13 16zM545 1807q-12 12 5 12h147q9 0 14.5 -2.5t11.5 -9.5l84 -103 h20l123 105q7 5 13 7.5t15 2.5h174q16 0 3 -10l-252 -195q-8 -5 -14 -7.5t-15 -2.5h-136q-16 0 -27 12z" />
<glyph unicode="&#x11b;" horiz-adv-x="1149" d="M84 263q-8 98 15 233l15 88q24 138 67 235t110.5 158t162.5 89t223 28q104 0 178.5 -23.5t122.5 -68.5t71 -111t23 -151q0 -50 -6.5 -93.5t-16 -78t-19.5 -60t-16 -38.5q-4 -8 -8.5 -11t-13.5 -3l-731 -1q-14 -95 -8.5 -158t35.5 -100.5t86.5 -53.5t143.5 -16 q85 0 172 3.5t182 11.5q16 1 15 -15l-8 -111q-1 -9 -4.5 -12.5t-12.5 -5.5q-91 -10 -183 -16t-198 -6q-130 0 -214.5 30.5t-129.5 94.5t-53 162zM286 596l610 12q12 89 7.5 152.5t-32.5 104t-82 59t-140 18.5q-84 0 -144.5 -19.5t-103 -61.5t-70 -107.5t-45.5 -157.5z M429 1515q-10 13 7 13h145q16 0 24 -14l81 -143h21l134 145q11 12 27 12h166q15 0 4 -11l-257 -245q-12 -11 -28 -11h-135q-16 0 -25 13z" />
<glyph unicode="&#x147;" horiz-adv-x="1453" d="M84 16l266 1443q3 16 19 16h158q9 0 13.5 -3.5t8.5 -11.5l414 -1039q20 -51 30.5 -81.5t12.5 -30.5l213 1150q3 16 19 16h148q16 0 13 -16l-267 -1443q-3 -16 -19 -16h-169q-9 0 -13.5 3.5t-8.5 11.5l-401 1032q-20 51 -31 84.5t-12 33.5l-215 -1149q-3 -16 -19 -16h-147 q-16 0 -13 16zM649 1807q-12 12 5 12h147q9 0 14.5 -2.5t11.5 -9.5l84 -103h20l123 105q7 5 13 7.5t15 2.5h174q16 0 3 -10l-252 -195q-8 -5 -14 -7.5t-15 -2.5h-136q-16 0 -27 12z" />
<glyph unicode="&#x148;" horiz-adv-x="1210" d="M54 16l197 1058q3 16 19 16h106q9 0 12.5 -3.5t5.5 -12.5l8 -75q43 23 91.5 40.5t98 29.5t97.5 18.5t91 6.5q103 0 167.5 -27.5t96.5 -84.5t34 -143.5t-20 -204.5l-114 -618q-3 -16 -19 -16h-140q-16 0 -13 16l110 593q16 91 18 152.5t-18.5 98t-65.5 52t-121 15.5 q-36 0 -75.5 -4.5t-80.5 -13.5t-81 -22.5t-76 -31.5l-156 -839q-3 -16 -19 -16h-140q-16 0 -13 16zM459 1515q-10 13 7 13h145q16 0 24 -14l81 -143h21l134 145q11 12 27 12h166q15 0 4 -11l-257 -245q-12 -11 -28 -11h-135q-16 0 -25 13z" />
<glyph unicode="&#x158;" horiz-adv-x="1360" d="M84 16l267 1443q3 16 19 17q104 8 200 9.5t190 1.5q174 0 290 -18.5t181.5 -65.5t83.5 -128t-4 -206l-18 -103q-19 -108 -51.5 -180.5t-80.5 -118.5t-110.5 -70.5t-141.5 -34.5q7 -14 13.5 -28.5t14.5 -31.5l207 -487q6 -15 -10 -15h-174q-9 0 -13.5 3.5t-8.5 11.5 l-208 536q-32 -1 -64 -1h-67q-57 0 -111.5 1t-123.5 6l-100 -541q-3 -16 -19 -16h-148q-16 0 -13 16zM395 721q27 -3 58 -4.5t62.5 -2t60.5 -1t52 -0.5q82 0 146.5 3t115 13t88 28.5t64.5 49.5t45 76t30 108l11 61q18 96 4.5 150.5t-61 81.5t-130 33.5t-202.5 6.5 q-29 0 -62.5 -0.5t-65.5 -1t-60.5 -2t-46.5 -4.5zM580 1807q-12 12 5 12h147q9 0 14.5 -2.5t11.5 -9.5l84 -103h20l123 105q7 5 13 7.5t15 2.5h174q16 0 3 -10l-252 -195q-8 -5 -14 -7.5t-15 -2.5h-136q-16 0 -27 12z" />
<glyph unicode="&#x159;" horiz-adv-x="743" d="M54 16l197 1058q3 16 19 16h106q9 0 12.5 -3.5t5.5 -12.5l7 -64q34 22 73.5 38t81 26t82.5 15t78 5q17 0 32 -1t26 -3q16 -3 12 -18l-37 -142q-4 -16 -20 -15q-13 2 -25.5 2.5t-29.5 0.5q-77 0 -147 -12.5t-145 -48.5l-156 -841q-3 -16 -19 -16h-140q-16 0 -13 16z M276 1515q-10 13 7 13h145q16 0 24 -14l81 -143h21l134 145q11 12 27 12h166q15 0 4 -11l-257 -245q-12 -11 -28 -11h-135q-16 0 -25 13z" />
<glyph unicode="&#x160;" horiz-adv-x="1188" d="M20 31l53 130q5 15 22 12q48 -8 90 -13t81 -8t77 -4.5t78 -1.5q133 0 219 16.5t136.5 52t70.5 91.5t20 135q0 39 -14 67.5t-45.5 54t-83 51t-126.5 58.5l-132 61q-72 33 -124 68t-85.5 75t-49 86.5t-15.5 102.5q0 115 31.5 197t105.5 134.5t197.5 77.5t306.5 25 q92 0 178.5 -8t151.5 -25q14 -4 9 -19l-49 -126q-5 -15 -22 -12q-32 5 -69 9t-75 6.5t-74.5 3.5t-66.5 1q-129 0 -213.5 -12.5t-134 -40.5t-69 -74.5t-19.5 -113.5q0 -43 15.5 -73.5t47.5 -55t80 -47.5t113 -50l154 -67q76 -32 127.5 -66.5t82.5 -73t44 -82.5t13 -96 q0 -141 -35 -237t-113 -154.5t-204 -84t-308 -25.5q-103 0 -200.5 9.5t-166.5 26.5q-16 4 -10 19zM524 1807q-12 12 5 12h147q9 0 14.5 -2.5t11.5 -9.5l84 -103h20l123 105q7 5 13 7.5t15 2.5h174q16 0 3 -10l-252 -195q-8 -5 -14 -7.5t-15 -2.5h-136q-16 0 -27 12z" />
<glyph unicode="&#x161;" horiz-adv-x="990" d="M7 25l34 117q5 15 21 12q79 -15 146 -20t138 -5q102 0 165 9t97.5 30.5t46 56t11.5 85.5q0 24 -8 42.5t-27.5 34.5t-52 32t-80.5 35l-171 65q-49 19 -85.5 40t-61 47.5t-36.5 60.5t-12 79q0 100 27.5 166.5t86.5 107t153 57.5t228 17q81 0 154 -7t128 -15q17 -1 11 -17 l-36 -117q-5 -14 -21 -13q-54 7 -115.5 11t-131.5 4q-83 0 -141.5 -6t-95.5 -24t-54.5 -50t-17.5 -83q0 -21 7 -37.5t25.5 -32t50 -30.5t80.5 -33l146 -54q60 -22 103 -44t71 -49.5t41.5 -62.5t13.5 -83q0 -110 -28.5 -182t-90.5 -115t-160.5 -60.5t-237.5 -17.5 q-27 0 -66 1.5t-81.5 5t-85 9t-77.5 14.5q-16 4 -11 19zM331 1515q-10 13 7 13h145q16 0 24 -14l81 -143h21l134 145q11 12 27 12h166q15 0 4 -11l-257 -245q-12 -11 -28 -11h-135q-16 0 -25 13z" />
<glyph unicode="&#x164;" horiz-adv-x="1174" d="M148 1315l27 144q3 16 19 16h1088q16 0 13 -16l-27 -144q-3 -16 -19 -16h-454l-238 -1283q-3 -16 -19 -16h-148q-16 0 -13 16l238 1283h-454q-16 0 -13 16zM502 1807q-12 12 5 12h147q9 0 14.5 -2.5t11.5 -9.5l84 -103h20l123 105q7 5 13 7.5t15 2.5h174q16 0 3 -10 l-252 -195q-8 -5 -14 -7.5t-15 -2.5h-136q-16 0 -27 12z" />
<glyph unicode="&#x165;" horiz-adv-x="774" d="M86 951l18 104q3 16 19 16h194l37 196q3 16 19 19l146 23q16 3 13 -13l-43 -225h314q15 0 11 -15l-45 -124q-5 -15 -21 -15h-287l-117 -636q-9 -50 -8 -79.5t13 -45.5t35.5 -20.5t58.5 -4.5q32 0 68.5 3t63.5 8q16 3 15 -13l-9 -111q-1 -16 -17 -20q-38 -8 -91.5 -15 t-106.5 -7q-64 0 -109 11t-70 43t-29.5 90.5t12.5 153.5l119 643l-190 17q-16 1 -13 17zM631 1222l66 364q3 17 19 18l144 23q16 1 12 -13l-102 -393q-4 -15 -20 -15h-106q-16 0 -13 16z" />
<glyph unicode="&#x16e;" horiz-adv-x="1457" d="M150.5 265.5q-19.5 97.5 5.5 230.5l179 963q3 16 19 16h148q16 0 13 -16l-170 -920q-19 -100 -14.5 -173t38 -121t99 -71.5t169.5 -23.5q105 0 180 23t127.5 71t85 121t51.5 174l171 920q3 16 19 16h145q16 0 13 -16l-179 -963q-30 -159 -85 -260t-135.5 -158.5 t-186.5 -79.5t-238 -22q-127 0 -222.5 31.5t-154 96t-78 162zM726 1705l1 8q12 82 71 129t162 47q51 0 85.5 -15t54.5 -40.5t26.5 -59.5t1.5 -71q-12 -85 -72 -132.5t-163 -47.5q-51 0 -85 15t-54 40.5t-26.5 58t-1.5 68.5zM837 1701q-4 -30 13.5 -52.5t61.5 -22.5 q43 0 71.5 22.5t33.5 57.5q4 33 -13.5 56.5t-62.5 23.5q-43 0 -70.5 -22.5t-32.5 -54.5z" />
<glyph unicode="&#x16f;" d="M102 230.5q-4 87.5 19 207.5l115 617q3 16 19 16h140q16 0 13 -16l-113 -608q-18 -94 -16 -155t29 -96t81 -49t141 -14q31 0 65 2t68 5t66 8t58 11l167 896q3 16 19 16h140q16 0 13 -16l-186 -1008q-3 -16 -19 -20q-40 -10 -89.5 -19t-104.5 -16t-112.5 -11.5 t-113.5 -4.5q-141 0 -226.5 27t-127 83.5t-45.5 144zM523 1362q0 105 62.5 167.5t194.5 62.5q94 0 140 -39.5t46 -113.5q0 -52 -16.5 -94t-48.5 -72t-80.5 -46t-111.5 -16q-95 0 -140.5 39t-45.5 112zM643 1379q0 -38 23 -52t66 -14q66 0 94 25.5t28 86.5q0 37 -22 50.5 t-67 13.5q-64 0 -93 -25t-29 -85z" />
<glyph unicode="&#x17d;" horiz-adv-x="1181" d="M-27 16l25 130q3 17 13 28l986 1134h-750q-16 0 -13 16l25 135q3 16 19 16h946q16 0 13 -16l-23 -130q-3 -15 -13 -28l-986 -1134h774q16 0 13 -16l-27 -135q-3 -16 -19 -16h-970q-16 0 -13 16zM508 1807q-12 12 5 12h147q9 0 14.5 -2.5t11.5 -9.5l84 -103h20l123 105 q7 5 13 7.5t15 2.5h174q16 0 3 -10l-252 -195q-8 -5 -14 -7.5t-15 -2.5h-136q-16 0 -27 12z" />
<glyph unicode="&#x17e;" horiz-adv-x="1021" d="M-20 18l22 114q2 10 5 15.5t8 10.5l737 756h-585q-17 0 -14 18l24 126q2 8 6.5 10.5t12.5 2.5h796q17 0 14 -18l-23 -118q-2 -7 -4.5 -11t-7.5 -9l-737 -757h589q17 0 14 -18l-24 -127q-2 -8 -6 -10.5t-12 -2.5h-801q-17 0 -14 18zM348 1515q-10 13 7 13h145q16 0 24 -14 l81 -143h21l134 145q11 12 27 12h166q15 0 4 -11l-257 -245q-12 -11 -28 -11h-135q-16 0 -25 13z" />
<glyph unicode="&#x2c6;" horiz-adv-x="772" d="M309 1272l257 245q12 11 28 11h135q16 0 25 -13l164 -241q10 -13 -7 -13h-145q-16 0 -24 14l-81 143h-21l-134 -145q-11 -12 -27 -12h-166q-15 0 -4 11z" />
<glyph unicode="&#x2da;" horiz-adv-x="764" d="M424 1362q0 105 62.5 167.5t194.5 62.5q94 0 140 -39.5t46 -113.5q0 -52 -16.5 -94t-48.5 -72t-80.5 -46t-111.5 -16q-95 0 -140.5 39t-45.5 112zM544 1379q0 -38 23 -52t66 -14q66 0 94 25.5t28 86.5q0 37 -22 50.5t-67 13.5q-64 0 -93 -25t-29 -85z" />
<glyph unicode="&#x2dc;" horiz-adv-x="771" d="M283 1280q10 84 32 135.5t51 79.5t64 37t72 9q21 0 39 -3.5t36.5 -12.5t38.5 -24t46 -37q44 -41 69.5 -57.5t50.5 -16.5q16 0 28.5 4t23.5 17.5t20 40t18 70.5q3 16 19 16h95q17 0 14 -16q-11 -85 -32.5 -136.5t-51 -79.5t-64.5 -37t-71 -9q-21 0 -39.5 3.5t-36.5 12.5 t-38.5 24t-45.5 38q-23 20 -39.5 34t-30.5 23t-26 13t-24 4q-16 0 -29 -4t-23.5 -18t-20 -40t-18.5 -70q-3 -16 -19 -16h-94q-17 0 -14 16z" />
<glyph unicode="&#x401;" horiz-adv-x="1191" d="M84 16l266 1443q3 16 19 16h848q16 0 13 -16l-26 -144q-3 -16 -19 -16h-684l-79 -427h575q16 0 13 -16l-27 -143q-3 -16 -19 -16h-575l-95 -522h683q16 0 13 -16l-27 -143q-3 -16 -19 -16h-847q-16 0 -13 16zM570 1620l37 199q3 16 19 19l148 23q16 3 13 -13l-43 -228 q-3 -16 -19 -16h-142q-16 0 -13 16zM907 1620l36 199q3 16 19 19l148 23q16 3 13 -13l-42 -228q-3 -16 -19 -16h-142q-16 0 -13 16z" />
<glyph unicode="&#x402;" horiz-adv-x="1492" d="M147 1315l27 144q3 16 19 16h1088q16 0 13 -16l-27 -144q-3 -16 -19 -16h-454l-60 -324q40 18 84.5 32.5t91 25t92.5 16t90 5.5q106 0 171.5 -26.5t98 -83t34 -144.5t-20.5 -212l-46 -252q-20 -110 -49.5 -180t-73.5 -110t-106.5 -55t-148.5 -15q-31 0 -67.5 3t-66.5 11 q-16 4 -10 20l41 115q5 15 21 11q21 -4 44.5 -6.5t46.5 -2.5q45 0 76 9t52.5 33t35.5 64.5t25 103.5l43 232q17 91 18 152t-19.5 98t-66.5 52t-122 15q-33 0 -70 -4t-75.5 -11.5t-77 -19.5t-73.5 -27l-150 -808q-3 -16 -19 -16h-148q-16 0 -13 16l238 1283h-454 q-16 0 -13 16z" />
<glyph unicode="&#x403;" horiz-adv-x="1082" d="M83 16l268 1443q3 16 19 16h817q16 0 13 -16l-25 -139q-3 -16 -19 -16h-655l-239 -1288q-3 -16 -19 -16h-147q-16 0 -13 16zM651 1614l232 195q7 5 13 7.5t15 2.5h205q7 0 7.5 -2.5t-4.5 -6.5l-270 -197q-7 -5 -13.5 -7t-15.5 -2h-165q-16 0 -4 10z" />
<glyph unicode="&#x404;" horiz-adv-x="1174" d="M123 353.5q-14 131.5 22 315.5l25 141q37 210 99 343.5t151 210.5t205 106t261 29q92 0 175 -10t140 -27q16 -4 10 -20l-48 -131q-4 -8 -8.5 -10.5t-13.5 -0.5q-63 14 -137 18.5t-145 4.5q-95 0 -173 -22t-139.5 -74t-106.5 -138.5t-74 -216.5h637q16 0 13 -16l-27 -143 q-3 -16 -19 -16h-638l-7 -39q-27 -145 -20 -242.5t47.5 -156t113.5 -83t177 -24.5q167 0 302 21q16 3 16 -13l-5 -132q0 -16 -16 -20q-64 -15 -152.5 -23.5t-183.5 -8.5q-142 0 -245 39t-162.5 123t-73.5 215.5z" />
<glyph unicode="&#x405;" horiz-adv-x="1188" d="M20 31l53 130q5 15 22 12q48 -8 90 -13t81 -8t77 -4.5t78 -1.5q133 0 219 16.5t136.5 52t70.5 91.5t20 135q0 39 -14 67.5t-45.5 54t-83 51t-126.5 58.5l-132 61q-72 33 -124 68t-85.5 75t-49 86.5t-15.5 102.5q0 115 31.5 197t105.5 134.5t197.5 77.5t306.5 25 q92 0 178.5 -8t151.5 -25q14 -4 9 -19l-49 -126q-5 -15 -22 -12q-32 5 -69 9t-75 6.5t-74.5 3.5t-66.5 1q-129 0 -213.5 -12.5t-134 -40.5t-69 -74.5t-19.5 -113.5q0 -43 15.5 -73.5t47.5 -55t80 -47.5t113 -50l154 -67q76 -32 127.5 -66.5t82.5 -73t44 -82.5t13 -96 q0 -141 -35 -237t-113 -154.5t-204 -84t-308 -25.5q-103 0 -200.5 9.5t-166.5 26.5q-16 4 -10 19z" />
<glyph unicode="&#x406;" horiz-adv-x="574" d="M84 16l266 1443q3 16 19 16h147q16 0 13 -16l-266 -1443q-3 -16 -19 -16h-147q-16 0 -13 16z" />
<glyph unicode="&#x407;" horiz-adv-x="575" d="M84 16l266 1443q3 16 19 16h147q16 0 13 -16l-266 -1443q-3 -16 -19 -16h-147q-16 0 -13 16zM221 1620l37 199q3 16 19 19l148 23q16 3 13 -13l-43 -228q-3 -16 -19 -16h-142q-16 0 -13 16zM558 1620l36 199q3 16 19 19l148 23q16 3 13 -13l-42 -228q-3 -16 -19 -16h-142 q-16 0 -13 16z" />
<glyph unicode="&#x408;" horiz-adv-x="575" d="M-224 -274l46 131q4 16 21 12q21 -4 41 -4.5t39 -0.5q31 0 57 5t46 20.5t34.5 45t23.5 78.5l267 1446q3 16 19 16h147q16 0 13 -16l-269 -1459q-15 -81 -42 -139t-68.5 -95.5t-99.5 -55t-136 -17.5q-31 0 -66 4t-62 10q-16 4 -11 19z" />
<glyph unicode="&#x409;" horiz-adv-x="2008" d="M-57 150q0 17 16 21q51 14 93 48t78 93.5t67.5 147t62.5 207.5t63 275.5t68 351.5l30 165q3 16 19 16h829q16 0 13 -16l-105 -565q19 3 43.5 5.5t51 4t52 2.5t46.5 1q156 0 269 -16.5t181 -64.5t90 -134t-5 -225l-9 -47q-19 -102 -48.5 -174.5t-71.5 -122t-96.5 -78.5 t-124.5 -44.5t-156.5 -20t-191.5 -4.5q-36 0 -80 1.5t-90.5 4.5t-95 7t-93.5 9q-16 1 -13 18l238 1283h-503q-45 -243 -85.5 -429t-82.5 -325t-86.5 -235.5t-97.5 -160.5t-115.5 -99.5t-140.5 -52.5q-16 -3 -16 13zM1039 145q49 -3 102.5 -4.5t102.5 -1.5q113 0 194.5 8 t137.5 36.5t89.5 84t50.5 150.5l9 50q17 94 4 149t-58 83t-122 35.5t-188 7.5q-47 0 -106 -3.5t-108 -9.5z" />
<glyph unicode="&#x40a;" horiz-adv-x="2132" d="M84 16l266 1443q3 16 19 16h147q16 0 13 -16l-107 -587h697l108 587q3 16 19 16h148q16 0 13 -16l-105 -565q19 3 43.5 5.5t50.5 4t51.5 2.5t46.5 1q156 0 269 -16.5t181 -64.5t90 -134t-5 -225l-9 -47q-20 -102 -49 -174.5t-71 -122t-96.5 -78.5t-124.5 -44.5 t-156.5 -20t-191.5 -4.5q-36 0 -80 1.5t-90.5 4.5t-95 7.5t-93.5 9.5q-16 1 -13 17l127 681h-697l-126 -681q-3 -16 -19 -16h-147q-16 0 -13 16zM1163 145q49 -3 102.5 -4.5t102.5 -1.5q113 0 194.5 8t137.5 36.5t89.5 84t50.5 150.5l9 50q17 94 4 149t-58 83t-122 35.5 t-188 7.5q-46 0 -105 -3.5t-109 -9.5z" />
<glyph unicode="&#x40b;" horiz-adv-x="1527" d="M147 1315l27 144q3 16 19 16h1088q16 0 13 -16l-27 -144q-3 -16 -19 -16h-454l-61 -327q41 19 86.5 34.5t93.5 26t96 16t93 5.5q105 0 170.5 -27.5t98 -84.5t34.5 -143.5t-20 -204.5l-106 -578q-1 -16 -19 -16h-145q-16 0 -13 16l103 553q16 91 17.5 152t-19 98t-65.5 52 t-121 15q-36 0 -75.5 -4.5t-80.5 -13.5t-81 -22.5t-76 -31.5l-148 -798q-3 -16 -19 -16h-148q-16 0 -13 16l238 1283h-454q-16 0 -13 16z" />
<glyph unicode="&#x40c;" horiz-adv-x="1175" d="M84 16l267 1443q3 16 19 16h147q16 0 13 -16l-108 -586l660 591q12 11 28 11h206q15 0 4 -11l-781 -700l492 -751q10 -13 -7 -13h-177q-16 0 -25 13l-436 670l-123 -667q-3 -16 -19 -16h-147q-16 0 -13 16zM703 1614l232 195q7 5 13 7.5t15 2.5h205q7 0 7.5 -2.5 t-4.5 -6.5l-270 -197q-7 -5 -13.5 -7t-15.5 -2h-165q-16 0 -4 10z" />
<glyph unicode="&#x40e;" horiz-adv-x="1061" d="M-12 15l40 112q5 15 21 12q23 -5 49.5 -7.5t48.5 -2.5q55 0 96.5 8.5t76.5 32t67.5 65.5t68.5 110l-263 1114q-4 16 12 16h160q16 0 19 -16l163 -782q8 -41 10.5 -71t3.5 -44l426 899q4 8 9 11t14 3h163q17 0 9 -14l-559 -1106q-43 -83 -80.5 -143.5t-72.5 -102.5 t-71 -68t-76.5 -40.5t-88 -19.5t-106.5 -5q-35 0 -68.5 4.5t-61.5 13.5q-16 6 -10 21zM465 1811q1 16 18 16h98q16 0 16 -16q-1 -33 9.5 -55t27.5 -35t39 -18t45 -5q25 0 49 5.5t45 18.5t38 35t28 55q5 15 22 15h107q16 0 12 -16q-17 -61 -39.5 -104.5t-58.5 -71.5 t-88.5 -41.5t-128.5 -13.5q-134 0 -192 58.5t-47 172.5z" />
<glyph unicode="&#x40f;" horiz-adv-x="1415" d="M84 16l267 1443q3 16 19 16h147q16 0 13 -16l-237 -1284h661l237 1284q3 16 19 16h148q16 0 13 -16l-267 -1443q-3 -16 -19 -16h-405l-47 -256q-3 -16 -19 -16h-147q-16 0 -13 16l47 256h-404q-16 0 -13 16z" />
<glyph unicode="&#x410;" horiz-adv-x="1294" d="M-84 14l765 1447q4 8 9 11t14 3h217q16 0 19 -16l229 -1443q3 -16 -13 -16h-163q-17 0 -18 16l-52 344h-629l-179 -346q-4 -8 -9 -11t-14 -3h-167q-17 0 -9 14zM383 532h514l-116 767z" />
<glyph unicode="&#x411;" horiz-adv-x="1277" d="M84 17l267 1442q3 16 19 16h815q16 0 13 -16l-27 -144q-3 -16 -19 -16h-652l-73 -398q16 1 39 2.5t47 2l48 1t44 0.5q154 0 268 -16.5t184 -64.5t95 -134t1 -225l-8 -47q-18 -105 -49.5 -178.5t-77 -122t-105 -76.5t-132.5 -41.5t-160 -17t-188 -3.5q-31 0 -71.5 1.5 t-85.5 4t-91 5.5t-88 7q-9 2 -12 5.5t-1 12.5zM288 152q48 -4 102 -6t102 -2q113 0 194.5 8t137.5 36t89.5 82.5t50.5 147.5l9 51q18 94 4.5 148.5t-59 82.5t-124 36t-191.5 8q-49 0 -105.5 -1.5t-101.5 -5.5z" />
<glyph unicode="&#x412;" horiz-adv-x="1329" d="M82 13l268 1446q3 16 19 17q36 3 79 6t89.5 5t93 3t90.5 1q151 0 256.5 -18t168.5 -59t84.5 -108.5t3.5 -166.5l-2 -11q-12 -66 -32 -115t-46.5 -84t-58.5 -58.5t-68 -36.5q45 -22 79 -56.5t54.5 -81t25.5 -104t-8 -126.5l-9 -47q-20 -105 -52.5 -178.5t-77.5 -122.5 t-103.5 -76.5t-131 -41t-160 -16.5t-190.5 -3q-37 0 -81 1t-91 3t-95 4.5t-92 6.5q-16 1 -13 17zM287 152q52 -4 112 -6t114 -2q113 0 195 7.5t138.5 35t90 81.5t50.5 146l8 43q14 74 5 122.5t-36.5 77t-71.5 40t-100 11.5h-402zM420 868h355q115 3 182.5 60t87.5 165l4 15 q13 73 -3 117t-58 66.5t-109.5 29.5t-156.5 7q-64 0 -117 -1.5t-101 -6.5z" />
<glyph unicode="&#x413;" horiz-adv-x="1083" d="M83 16l268 1443q3 16 19 16h817q16 0 13 -16l-25 -139q-3 -16 -19 -16h-655l-239 -1288q-3 -16 -19 -16h-147q-16 0 -13 16z" />
<glyph unicode="&#x414;" horiz-adv-x="1430" d="M-134 -260l77 415q3 16 19 16h51q36 0 69.5 24t66 77.5t64.5 139.5t65.5 211t69 291t74.5 380l31 165q3 16 19 16h870q16 0 13 -16l-240 -1288h90q16 0 13 -16l-77 -415q-3 -16 -19 -16h-148q-16 0 -13 16l48 260h-916l-47 -260q-3 -16 -19 -16h-148q-16 0 -13 16z M246 171h690l209 1128h-544q-34 -184 -64 -332t-58.5 -264.5t-55.5 -204t-55 -151.5t-58 -106.5t-64 -69.5z" />
<glyph unicode="&#x415;" horiz-adv-x="1191" d="M84 16l266 1443q3 16 19 16h848q16 0 13 -16l-26 -144q-3 -16 -19 -16h-684l-79 -427h575q16 0 13 -16l-27 -143q-3 -16 -19 -16h-575l-95 -522h683q16 0 13 -16l-27 -143q-3 -16 -19 -16h-847q-16 0 -13 16z" />
<glyph unicode="&#x416;" horiz-adv-x="1779" d="M-104 11l802 777l-521 674q-10 13 6 13h191q9 0 14.5 -2.5t11.5 -10.5l447 -589l108 586q3 16 19 16h148q16 0 13 -16l-109 -586l661 591q12 11 28 11h205q15 0 4 -11l-780 -700l491 -751q10 -13 -7 -13h-176q-16 0 -25 13l-436 670l-123 -667q-3 -16 -19 -16h-148 q-16 0 -13 16l124 667l-692 -672q-11 -11 -27 -11h-192q-14 0 -5 11z" />
<glyph unicode="&#x417;" horiz-adv-x="1144" d="M5 16l32 138q2 9 6.5 12t13.5 2q77 -8 157 -12t154 -4q95 0 166.5 13.5t122.5 44.5t81.5 81.5t44.5 124.5l7 35q8 43 4 87.5t-29 80.5t-75.5 59t-134.5 23h-349q-16 0 -13 16l24 140q3 16 19 16h346q87 0 146 20.5t97 51.5t57 68t25 71l4 22q12 63 -5 105t-59.5 67 t-108.5 35.5t-153 10.5q-74 0 -149.5 -4.5t-150.5 -11.5q-16 -3 -14 14l17 137q2 9 5.5 13t12.5 5q68 8 151 15t171 7q127 0 223 -23t157 -69t85 -115t6 -160l-5 -26q-14 -70 -38.5 -123t-63 -92.5t-92 -66t-124.5 -42.5q67 -19 109 -57.5t63.5 -86.5t26 -100.5t-4.5 -99.5 l-7 -39q-24 -134 -75.5 -217t-128.5 -129t-180 -61.5t-230 -15.5q-93 0 -179 6.5t-153 15.5q-16 1 -12 18z" />
<glyph unicode="&#x418;" horiz-adv-x="1461" d="M84 16l266 1443q3 16 19 16h147q16 0 13 -16l-209 -1135h3q9 13 21 31q11 15 25.5 35.5t34.5 45.5l803 1024q11 15 32 15h165q16 0 13 -16l-266 -1443q-3 -16 -19 -16h-147q-16 0 -13 16l209 1134h-3q-10 -16 -23 -34q-11 -16 -27 -37t-36 -47l-792 -1010 q-8 -9 -18.5 -15.5t-29.5 -6.5h-155q-16 0 -13 16z" />
<glyph unicode="&#x419;" horiz-adv-x="1462" d="M84 16l266 1443q3 16 19 16h147q16 0 13 -16l-209 -1135h3q9 13 21 31q11 15 25.5 35.5t34.5 45.5l803 1024q11 15 32 15h165q16 0 13 -16l-266 -1443q-3 -16 -19 -16h-147q-16 0 -13 16l209 1134h-3q-10 -16 -23 -34q-11 -16 -27 -37t-36 -47l-792 -1010 q-8 -9 -18.5 -15.5t-29.5 -6.5h-155q-16 0 -13 16zM657 1811q1 16 18 16h98q16 0 16 -16q-1 -33 9.5 -55t27.5 -35t39 -18t45 -5q25 0 49 5.5t45 18.5t38 35t28 55q5 15 22 15h107q16 0 12 -16q-17 -61 -39.5 -104.5t-58.5 -71.5t-88.5 -41.5t-128.5 -13.5q-134 0 -192 58.5 t-47 172.5z" />
<glyph unicode="&#x41a;" horiz-adv-x="1175" d="M84 16l267 1443q3 16 19 16h147q16 0 13 -16l-108 -586l660 591q12 11 28 11h206q15 0 4 -11l-781 -700l492 -751q10 -13 -7 -13h-177q-16 0 -25 13l-436 670l-123 -667q-3 -16 -19 -16h-147q-16 0 -13 16z" />
<glyph unicode="&#x41b;" horiz-adv-x="1380" d="M-57 150q0 17 16 21q51 14 93 48t78 93.5t67.5 147t62.5 207.5t63 275.5t68 351.5l30 165q3 16 19 16h884q16 0 13 -16l-268 -1443q-3 -16 -19 -16h-147q-16 0 -13 16l238 1283h-558q-43 -238 -83.5 -422t-82 -323t-86.5 -237t-98.5 -163.5t-116.5 -102.5t-141 -54 q-16 -3 -16 13z" />
<glyph unicode="&#x41c;" horiz-adv-x="1667" d="M84 16l266 1443q3 16 19 16h163q9 0 13.5 -3.5t8.5 -11.5l246 -655q7 -18 13 -36t10.5 -33t7 -25l2.5 -10l6.5 9.5t17 24.5t23.5 34t27 37l487 656q6 8 11.5 10.5t14.5 2.5h190q16 0 13 -16l-267 -1443q-3 -16 -19 -16h-148q-16 0 -13 16l205 1106l11 72 q-2 -1 -17.5 -24.5t-34.5 -50.5l-457 -622q-9 -13 -25 -13h-106q-16 0 -21 15l-221 612q-11 33 -17.5 58t-8.5 25l-18 -88l-203 -1090q-3 -16 -19 -16h-147q-16 0 -13 16z" />
<glyph unicode="&#x41d;" horiz-adv-x="1451" d="M84 16l266 1443q3 16 19 16h147q16 0 13 -16l-107 -587h697l108 587q3 16 19 16h148q16 0 13 -16l-268 -1443q-3 -16 -19 -16h-147q-16 0 -13 16l126 681h-697l-126 -681q-3 -16 -19 -16h-147q-16 0 -13 16z" />
<glyph unicode="&#x41e;" horiz-adv-x="1433" d="M126 348.5q-14 131.5 19 319.5l25 140q37 208 99 342t150 211.5t202.5 107.5t256.5 30q139 0 238.5 -37.5t157 -120t71.5 -214t-18 -320.5l-24 -140q-36 -207 -97.5 -340.5t-149.5 -211.5t-203 -108.5t-257 -30.5q-139 0 -239 38t-158.5 120.5t-72.5 214zM305 414.5 q7 -96.5 46 -154t108.5 -81t168.5 -23.5q95 0 174 24.5t140.5 82.5t105.5 154.5t70 241.5l30 158q27 145 20 241.5t-46 154.5t-109 81.5t-169 23.5q-96 0 -174.5 -23.5t-140 -81t-105.5 -154t-71 -241.5l-28 -160q-27 -147 -20 -243.5z" />
<glyph unicode="&#x41f;" horiz-adv-x="1451" d="M84 16l267 1443q3 16 19 16h1022q16 0 13 -16l-267 -1443q-3 -16 -19 -16h-147q-16 0 -13 16l238 1283h-696l-238 -1283q-3 -16 -19 -16h-147q-16 0 -13 16z" />
<glyph unicode="&#x420;" horiz-adv-x="1296" d="M83 16l269 1443q3 16 19 17q42 3 91.5 5.5t98 5t92 3.5t74.5 1q170 0 287.5 -19.5t186 -69t89 -134.5t-3.5 -215l-16 -87q-18 -98 -44.5 -169t-66 -119.5t-94 -78t-129 -45.5t-170.5 -21t-218 -5q-20 0 -49 0.5t-57.5 1t-51.5 1.5t-32 2l-95 -517q-3 -16 -19 -16h-148 q-16 0 -13 16zM389 698q16 -2 41.5 -3t53 -2t54 -1.5t43.5 -0.5q132 0 222 11t149 42.5t91.5 88.5t49.5 148l11 56q16 91 4.5 148t-58 88.5t-133 43t-219.5 11.5q-17 0 -43.5 -0.5t-54 -2t-53.5 -3t-42 -2.5z" />
<glyph unicode="&#x421;" horiz-adv-x="1170" d="M122.5 345.5q-16.5 131.5 17.5 322.5l25 140q36 204 102 337.5t159 212t213 110t264 31.5q96 0 182 -10t145 -27q16 -4 10 -20l-48 -131q-5 -15 -21 -12q-67 14 -143 20t-150 6q-104 0 -189.5 -24.5t-151.5 -83t-113.5 -156t-74.5 -243.5l-28 -160q-28 -147 -17.5 -245 t55 -156.5t121 -82.5t180.5 -24q90 0 167.5 6t145.5 17q16 3 16 -13l-4 -132q0 -16 -16 -20q-65 -15 -156.5 -23.5t-191.5 -8.5q-144 0 -250 36.5t-169 119t-79.5 214z" />
<glyph unicode="&#x422;" horiz-adv-x="1173" d="M148 1315l27 144q3 16 19 16h1088q16 0 13 -16l-27 -144q-3 -16 -19 -16h-454l-238 -1283q-3 -16 -19 -16h-148q-16 0 -13 16l238 1283h-454q-16 0 -13 16z" />
<glyph unicode="&#x423;" horiz-adv-x="1061" d="M-12 15l40 112q5 15 21 12q23 -5 49.5 -7.5t48.5 -2.5q55 0 96.5 8.5t76.5 32t67.5 65.5t68.5 110l-263 1114q-4 16 12 16h160q16 0 19 -16l163 -782q8 -41 10.5 -71t3.5 -44l426 899q4 8 9 11t14 3h163q17 0 9 -14l-559 -1106q-43 -83 -80.5 -143.5t-72.5 -102.5 t-71 -68t-76.5 -40.5t-88 -19.5t-106.5 -5q-35 0 -68.5 4.5t-61.5 13.5q-16 6 -10 21z" />
<glyph unicode="&#x424;" horiz-adv-x="1774" d="M97.5 425q-13.5 96 13.5 237l25 132q22 116 51.5 199.5t68.5 141.5t88.5 93.5t111.5 54.5t138 25.5t167 6.5q29 0 73.5 -1t88.5 -5l28 150q3 16 19 16h147q16 0 13 -16l-28 -150q45 5 89.5 5.5t74.5 0.5q136 0 231.5 -26.5t149.5 -87.5t67 -160.5t-15 -246.5l-25 -132 q-21 -112 -50 -193t-68 -136.5t-88.5 -90t-111.5 -53t-137.5 -24.5t-166.5 -6q-44 0 -87 2t-75 4l-28 -149q-3 -16 -19 -16h-147q-16 0 -13 16l28 149q-26 -2 -66.5 -4t-97.5 -2q-137 0 -232 25.5t-149.5 85t-68 155.5zM283.5 498q8.5 -69 44 -108t98 -53t149.5 -14 q48 0 92.5 2t73.5 4l152 815q-14 2 -35.5 3.5t-44.5 2t-45.5 1t-38.5 0.5q-88 0 -155.5 -14.5t-118 -55.5t-85.5 -113.5t-56 -187.5l-19 -103q-20 -110 -11.5 -179zM921 329q28 -2 72 -4t92 -2q86 0 153.5 14t118.5 53t85 108t54 179l16 90q22 119 15.5 194t-41 117 t-96.5 57.5t-152 15.5q-16 0 -38.5 -0.5t-46 -1t-45 -2t-36.5 -3.5z" />
<glyph unicode="&#x425;" horiz-adv-x="1269" d="M-72 12l611 725l-342 724q-8 14 9 14h175q16 0 23 -15l264 -588l484 591q6 7 11.5 9.5t14.5 2.5h197q16 0 6 -12l-610 -725l340 -724q8 -14 -9 -14h-175q-17 0 -22 15l-263 593l-485 -596q-6 -7 -11.5 -9.5t-14.5 -2.5h-197q-16 0 -6 12z" />
<glyph unicode="&#x426;" horiz-adv-x="1457" d="M84 16l267 1443q3 16 19 16h148q16 0 13 -16l-238 -1284h661l237 1284q3 16 19 16h148q16 0 13 -16l-238 -1284h105q16 0 13 -16l-77 -415q-3 -16 -19 -16h-147q-16 0 -13 16l47 256h-945q-16 0 -13 16z" />
<glyph unicode="&#x427;" horiz-adv-x="1234" d="M146 824q-8 80 14 185l83 450q1 16 19 16h145q16 0 13 -16l-78 -422q-15 -82 -13.5 -137t27.5 -88t80 -47t143 -14q37 0 78.5 3.5t84 11t84 18t77.5 24.5l121 651q3 16 19 16h145q16 0 13 -16l-268 -1443q-1 -16 -19 -16h-145q-16 0 -13 16l115 622q-38 -13 -85 -23.5 t-96.5 -18t-99 -11.5t-91.5 -4q-113 0 -188 27.5t-116 81.5t-49 134z" />
<glyph unicode="&#x428;" horiz-adv-x="2032" d="M84 16l267 1443q3 16 19 16h147q16 0 13 -16l-238 -1284h550l238 1284q3 16 19 16h148q16 0 13 -16l-238 -1284h550l238 1284q3 16 19 16h146q16 0 13 -16l-267 -1443q-3 -16 -19 -16h-1605q-16 0 -13 16z" />
<glyph unicode="&#x429;" horiz-adv-x="2075" d="M84 16l267 1443q3 16 19 16h147q16 0 13 -16l-238 -1284h550l238 1284q3 16 19 16h148q16 0 13 -16l-238 -1284h550l238 1284q3 16 19 16h146q16 0 13 -16l-238 -1284h106q16 0 13 -16l-77 -415q-3 -16 -19 -16h-148q-16 0 -13 16l48 256h-1563q-16 0 -13 16z" />
<glyph unicode="&#x42a;" horiz-adv-x="1362" d="M157 1315l27 144q3 16 19 16h419q16 0 13 -16l-105 -565q19 3 43.5 5.5t51 4t52 2.5t46.5 1q156 0 269 -16.5t181 -64.5t90 -134t-5 -225l-9 -47q-20 -102 -49 -174.5t-70.5 -122t-96.5 -78.5t-125 -44.5t-156.5 -20t-191.5 -4.5q-36 0 -80 1.5t-90.5 4.5t-95 7t-93.5 9 q-16 1 -13 18l237 1283h-255q-16 0 -13 16zM393 152q48 -4 101.5 -6t102.5 -2q113 0 194.5 8t137.5 36t89.5 82.5t50.5 147.5l9 50q17 94 4 149t-58 83t-122 35.5t-188 7.5q-23 0 -50 -1t-55.5 -2.5t-56.5 -4t-52 -5.5z" />
<glyph unicode="&#x42b;" horiz-adv-x="1858" d="M84 16l267 1443q3 16 19 16h147q16 0 13 -16l-105 -565q19 3 44 5.5t51.5 4t52 2.5t46.5 1q155 0 267 -16.5t179 -64.5t89.5 -134t-1.5 -225l-8 -47q-17 -102 -46 -175t-70.5 -122.5t-97 -78.5t-126 -44t-157.5 -19.5t-192 -4.5q-36 0 -80 1.5t-90.5 4.5t-95 7t-93.5 9 q-16 1 -13 18zM288 152q48 -4 102 -6t102 -2q113 0 194.5 8t137.5 36t89.5 82.5t50.5 147.5l9 50q17 94 4 149t-58 83t-122 35.5t-188 7.5q-47 0 -106 -3.5t-108 -9.5zM1367 16l267 1443q3 16 19 16h148q16 0 13 -16l-267 -1443q-3 -16 -19 -16h-148q-16 0 -13 16z" />
<glyph unicode="&#x42c;" horiz-adv-x="1256" d="M83 16l267 1443q3 16 19 16h148q16 0 13 -16l-105 -565q18 3 43 5.5t51.5 4t52 2.5t46.5 1q156 0 269 -16.5t181 -64.5t90 -134t-5 -225l-9 -47q-19 -102 -48.5 -174.5t-71.5 -122t-96.5 -78.5t-124.5 -44.5t-156.5 -20t-191.5 -4.5q-36 0 -80 1.5t-90.5 4.5t-95 7 t-93.5 9q-16 1 -13 18zM287 152q49 -4 102.5 -6t102.5 -2q113 0 194.5 8t137 36t89 82.5t50.5 147.5l10 50q17 94 4 149t-58 83t-122 35.5t-188 7.5q-23 0 -50.5 -1t-56 -2.5t-56.5 -4t-52 -5.5z" />
<glyph unicode="&#x42d;" horiz-adv-x="1174" d="M-5 31l48 131q5 15 22 11q64 -14 140 -18t148 -4q99 0 182.5 25t149.5 87t112.5 167.5t70.5 266.5h-637q-16 0 -13 16l27 143q3 16 19 16h638q13 118 4.5 203t-46 140t-107.5 81.5t-179 26.5q-82 0 -154 -6t-138 -17q-16 -3 -16 13v129q0 16 16 20q63 15 150.5 26 t180.5 11q142 0 244 -42t161.5 -128t73.5 -216t-20 -307l-27 -139q-41 -211 -103 -345.5t-149.5 -211t-202 -105.5t-259.5 -29q-95 0 -181.5 9t-144.5 26q-16 4 -10 20z" />
<glyph unicode="&#x42e;" horiz-adv-x="2037" d="M84 16l267 1443q3 16 19 16h148q16 0 13 -16l-108 -587h364q39 187 101.5 308.5t149 192.5t197.5 98.5t248 27.5q139 0 238.5 -37.5t157 -120t71.5 -214t-18 -320.5l-24 -140q-36 -207 -97.5 -340.5t-149.5 -211.5t-203 -108.5t-257 -30.5q-139 0 -239 38t-158.5 120.5 t-72.5 214t19 319.5l5 29h-366l-125 -681q-3 -16 -19 -16h-148q-16 0 -13 16zM910 414.5q7 -96.5 46 -154t108.5 -81t168.5 -23.5q95 0 174 24.5t140.5 82.5t105.5 154.5t70 241.5l30 158q27 145 20 241.5t-46 154.5t-109 81.5t-169 23.5q-96 0 -174.5 -23.5t-140 -81 t-105.5 -154t-71 -241.5l-28 -160q-27 -147 -20 -243.5z" />
<glyph unicode="&#x42f;" horiz-adv-x="1367" d="M-15 4.5q-1 4.5 4 11.5l380 486q15 19 30 36.5t30 34.5q-60 12 -104 30.5t-73 46.5q-52 48 -65.5 127t6.5 189l19 103q17 96 44 164t67 114.5t94.5 74t128 42t166.5 19t210 4.5q99 0 196.5 -2t191.5 -10q16 -1 13 -16l-267 -1443q-3 -16 -19 -16h-147q-16 0 -13 16 l101 541q-36 -2 -67.5 -3.5t-60.5 -2.5t-57 -1h-57h-63t-59 2l-416 -538q-7 -9 -14 -11.5t-16 -2.5h-174q-8 0 -9 4.5zM372.5 841q12.5 -55 59 -83.5t129.5 -36.5t207 -8q23 0 52.5 0.5t61.5 1t64 2t61 4.5l111 595q-18 3 -45.5 4.5t-59.5 2t-65.5 1t-62.5 0.5 q-122 0 -208 -6.5t-144 -33.5t-92 -81.5t-52 -150.5l-11 -61q-18 -95 -5.5 -150z" />
<glyph unicode="&#x430;" horiz-adv-x="1183" d="M80 249q-7 94 18 224l24 126q29 152 70.5 248.5t108 151t164 75t237.5 20.5q46 0 96 -1.5t99.5 -4.5t97 -7t89.5 -8q16 -1 13 -18l-193 -1039q-2 -9 -6 -12.5t-13 -5.5q-101 -11 -196.5 -16.5t-183.5 -5.5q-143 0 -233.5 29t-137.5 89.5t-54 154.5zM251 322 q0 -72 28 -115t89 -61t163 -18q60 0 120.5 3t102.5 8l148 790q-45 5 -102 8.5t-124 3.5q-99 0 -165 -17t-109 -59t-69.5 -112.5t-47.5 -176.5l-14 -74q-20 -108 -20 -180z" />
<glyph unicode="&#x431;" horiz-adv-x="1191" d="M111 273.5q-8 95.5 15 215.5l14 74q28 153 54 268.5t57 202t71 147t98 103.5t137 71.5t187 51.5q94 20 160 38t109.5 38.5t67 45.5t32.5 58q5 16 21 16h114q16 0 13 -16q-12 -56 -37.5 -102t-74 -82.5t-124.5 -65.5t-190 -51q-65 -13 -118.5 -26t-97.5 -29t-80 -38 t-65.5 -52.5t-53.5 -72.5t-45 -98q67 52 151 82t187 30q119 0 196.5 -35t118.5 -101.5t47.5 -162t-16.5 -215.5l-15 -79q-28 -146 -71 -244t-108.5 -158t-156 -85.5t-213.5 -25.5q-125 0 -207 35t-125.5 101t-51.5 161.5zM281.5 328q0.5 -71 25.5 -116t77.5 -65.5 t138.5 -20.5q84 0 144.5 21t103 66.5t70 116.5t45.5 171l11 57q18 99 17.5 169.5t-26 116t-78.5 66.5t-138 21q-82 0 -141.5 -21t-102.5 -66t-71 -115.5t-47 -170.5l-11 -59q-18 -100 -17.5 -171z" />
<glyph unicode="&#x432;" horiz-adv-x="1133" d="M55 16l192 1039q3 16 19 17q32 3 71.5 5t80.5 3.5t82.5 2.5t77.5 1q131 0 218.5 -17t137 -51t64.5 -85t3 -118q-15 -82 -51.5 -133t-100.5 -78q31 -15 59 -37t46 -53t24.5 -72.5t-3.5 -95.5l-9 -45q-15 -75 -39.5 -127.5t-60 -87t-82.5 -54t-107.5 -29.5t-134.5 -12 t-164 -2q-31 0 -68.5 0.5t-78 2t-82.5 4t-81 5.5q-16 1 -13 17zM260 155q41 -4 88 -4.5t96 -0.5q85 0 145.5 5t101.5 22t64.5 49.5t33.5 87.5l7 35q9 48 -0.5 76.5t-34 44t-62 20.5t-84.5 5h-292zM349 639h325q37 9 61.5 24.5t40.5 34.5t24 41t13 45q9 47 -2 74.5t-41 41.5 t-80.5 18t-121.5 4q-42 0 -85.5 -0.5t-81.5 -5.5z" />
<glyph unicode="&#x433;" horiz-adv-x="993" d="M20 212q0 97 17 156.5t57 98t106 65t165 58.5l167 54q69 22 112.5 40t68.5 38.5t34.5 48t9.5 69.5q0 29 -13.5 48.5t-44 31t-81 16t-123.5 4.5q-69 0 -134.5 -4.5t-122.5 -10.5q-17 -1 -16 16l7 114q1 9 4 12t13 5q80 11 153.5 16.5t141.5 5.5q198 0 295 -53.5t97 -165.5 q0 -90 -18.5 -147.5t-56 -95t-95 -63t-135.5 -50.5l-197 -65q-67 -23 -112.5 -41.5t-73 -40.5t-39 -51.5t-11.5 -75.5q0 -34 14.5 -56.5t47 -35.5t83.5 -18.5t124 -5.5q37 0 70.5 1t68 3.5t72 7.5t83.5 13q19 3 18 -14l-9 -117q-1 -9 -4 -12t-13 -5q-106 -20 -189 -25 t-136 -5q-200 0 -302.5 55.5t-102.5 180.5z" />
<glyph unicode="&#x434;" horiz-adv-x="1161" d="M79.5 291q-6.5 102 17.5 233l12 64q26 142 78 237.5t136.5 154.5t205 85.5t284.5 29.5q-53 122 -159 217t-278 162q-8 4 -11 8.5t-1 13.5l21 117q3 16 18 12q207 -60 340.5 -169.5t205 -254.5t85 -317t-19.5 -357q-29 -162 -73.5 -268.5t-110.5 -169.5t-158 -89t-216 -26 t-205 37t-123 107.5t-48.5 172.5zM246 349.5q-1 -77.5 23.5 -127t76 -73t136.5 -23.5q82 0 142 21t103.5 69t72.5 125.5t49 191.5q20 117 22 221t-15 198q-152 -1 -255 -23.5t-169.5 -68.5t-103 -116.5t-54.5 -167.5l-7 -41q-20 -108 -21 -185.5z" />
<glyph unicode="&#x435;" horiz-adv-x="1149" d="M84 263q-8 98 15 233l15 88q24 138 67 235t110.5 158t162.5 89t223 28q104 0 178.5 -23.5t122.5 -68.5t71 -111t23 -151q0 -50 -6.5 -93.5t-16 -78t-19.5 -60t-16 -38.5q-4 -8 -8.5 -11t-13.5 -3l-731 -1q-14 -95 -8.5 -158t35.5 -100.5t86.5 -53.5t143.5 -16 q85 0 172 3.5t182 11.5q16 1 15 -15l-8 -111q-1 -9 -4.5 -12.5t-12.5 -5.5q-91 -10 -183 -16t-198 -6q-130 0 -214.5 30.5t-129.5 94.5t-53 162zM286 596l610 12q12 89 7.5 152.5t-32.5 104t-82 59t-140 18.5q-84 0 -144.5 -19.5t-103 -61.5t-70 -107.5t-45.5 -157.5z" />
<glyph unicode="&#x436;" horiz-adv-x="1690" d="M-52 16l35 117q5 16 20 12q56 -14 117 -14q36 0 76 14t78.5 55t72 115t55.5 193l10 53q22 118 16 191.5t-29 114.5t-58.5 56t-71.5 15q-27 0 -59 -2.5t-61 -8.5q-17 -5 -15 12l7 115q1 16 17 20q37 8 74.5 14t78.5 6q75 0 133 -25.5t94 -80.5t48 -141t-5 -207h182l77 415 q3 16 19 16h140q16 0 13 -16l-76 -415h182q31 141 74.5 229.5t99 138.5t121.5 68t143 18q41 0 76 -6t68 -14q15 -4 10 -19l-36 -116q-5 -16 -21 -12q-26 6 -55.5 8.5t-58.5 2.5q-36 0 -76 -15t-78.5 -56t-72 -114.5t-55.5 -191.5l-10 -53q-15 -81 -17 -140.5t6 -101.5 t24 -68t37 -41t45 -20.5t48 -5.5q61 0 123 14q16 5 14 -12l-9 -116q-1 -16 -16 -20q-35 -10 -77 -15.5t-77 -5.5q-76 0 -135.5 25.5t-96 83t-46.5 150t13 226.5h-181l-82 -445q-3 -16 -19 -16h-140q-16 0 -13 16l82 445h-182q-21 -105 -48.5 -182t-60.5 -130.5t-71 -87.5 t-80 -52.5t-88.5 -25.5t-95.5 -7q-33 0 -73 5.5t-72 14.5q-15 4 -11 20z" />
<glyph unicode="&#x437;" horiz-adv-x="996" d="M-3 17l37 117q5 14 22 13q69 -8 137 -11t128 -3q76 0 130.5 7.5t91 27t58 53.5t31.5 87l3 18q5 28 3 56.5t-23.5 51t-68 37t-130.5 14.5h-256q-17 0 -14 16l22 114q4 11 22 11h264q87 0 137 14.5t77 37t36 49t13 49.5l2 11q8 46 -2 75.5t-41 46.5t-84.5 23t-131.5 6 q-70 0 -132.5 -4t-128.5 -11q-17 -1 -16 16l7 114q1 9 4 12.5t13 5.5q64 10 138.5 16.5t163.5 6.5q227 0 324 -70t75 -215l-3 -19q-8 -50 -25 -89.5t-45.5 -68.5t-70.5 -48t-100 -28q-5 0 -5.5 -3t4.5 -3q52 -16 84.5 -45t49 -64t19.5 -72.5t-2 -70.5l-4 -24 q-17 -98 -56 -156.5t-102 -89.5t-151 -41t-202 -10q-42 0 -83.5 1.5t-80 4.5t-72.5 7.5t-61 9.5q-11 2 -5 17z" />
<glyph unicode="&#x438;" d="M102 230.5q-4 87.5 19 207.5l115 617q3 16 19 16h140q16 0 13 -16l-113 -608q-18 -94 -16 -155t29 -96t81 -49t141 -14q31 0 65 2t68 5t66 8t58 11l167 896q3 16 19 16h140q16 0 13 -16l-186 -1008q-3 -16 -19 -20q-40 -10 -89.5 -19t-104.5 -16t-112.5 -11.5 t-113.5 -4.5q-141 0 -226.5 27t-127 83.5t-45.5 144z" />
<glyph unicode="&#x439;" d="M102 230.5q-4 87.5 19 207.5l115 617q3 16 19 16h140q16 0 13 -16l-113 -608q-18 -94 -16 -155t29 -96t81 -49t141 -14q31 0 65 2t68 5t66 8t58 11l167 896q3 16 19 16h140q16 0 13 -16l-186 -1008q-3 -16 -19 -20q-40 -10 -89.5 -19t-104.5 -16t-112.5 -11.5 t-113.5 -4.5q-141 0 -226.5 27t-127 83.5t-45.5 144zM480 1512q0 16 17 16h104q15 0 14 -16q-3 -35 4 -59t21.5 -38.5t35 -20.5t44.5 -6q27 0 51.5 6t46 20.5t39 38.5t29.5 60q5 15 22 15h108q9 0 12 -3.5t2 -12.5q-9 -55 -29.5 -101.5t-58 -80t-94.5 -52.5t-139 -19 q-65 0 -111 18t-73.5 51t-38.5 80t-6 104z" />
<glyph unicode="&#x43a;" horiz-adv-x="1020" d="M56 16l192 1039q3 16 19 16h140q16 0 13 -16l-78 -424l504 430q7 5 13 7.5t15 2.5h198q16 0 4 -10l-609 -518l400 -530q10 -13 -6 -13h-183q-16 0 -25 13l-339 466l-86 -463q-3 -16 -19 -16h-140q-16 0 -13 16z" />
<glyph unicode="&#x43b;" horiz-adv-x="1103" d="M-55 10l3 137q0 9 3.5 13t12.5 6q67 15 115.5 58t86.5 127t70 216t66 324l31 164q3 16 19 16h651q16 0 13 -16l-192 -1039q-3 -16 -19 -16h-140q-16 0 -13 16l162 876h-333q-30 -168 -60 -295.5t-63.5 -222.5t-72 -161t-86.5 -109.5t-106.5 -68.5t-131.5 -38 q-16 -3 -16 13z" />
<glyph unicode="&#x43c;" horiz-adv-x="1440" d="M56 16l192 1039q3 16 19 16h164q17 0 22 -15l210 -476q11 -24 19 -46.5t10 -25.5q0 1 5.5 8t13 17t17 22.5t18.5 23.5l372 479q6 8 11.5 10.5t14.5 2.5h197q16 0 13 -16l-193 -1039q-3 -16 -19 -16h-148q-16 0 -13 16l135 727l11 69q-1 0 -5.5 -7t-11.5 -17.5t-16 -23.5 l-18 -26l-340 -428q-10 -13 -26 -13h-99q-9 0 -13.5 3.5t-8.5 11.5l-179 422q-5 12 -9 25.5t-7.5 25t-5.5 19.5t-3 8l-15 -70l-134 -726q-3 -16 -19 -16h-148q-16 0 -13 16z" />
<glyph unicode="&#x43d;" horiz-adv-x="1242" d="M56 16l192 1039q3 16 19 16h140q16 0 13 -16l-76 -415h562l77 415q3 16 19 16h140q16 0 13 -16l-192 -1039q-3 -16 -19 -16h-140q-16 0 -13 16l82 445h-562l-83 -445q-3 -16 -19 -16h-140q-16 0 -13 16z" />
<glyph unicode="&#x43e;" horiz-adv-x="1179" d="M81 264.5q-8 95.5 16 223.5l17 91q27 142 71 240.5t111.5 159.5t161 88t219.5 27q127 0 210.5 -31.5t128 -95t52 -160.5t-17.5 -228l-16 -91q-25 -143 -69 -240.5t-112 -158t-162.5 -87t-220.5 -26.5t-209 32t-127.5 96.5t-52.5 160zM251 328.5q1 -70.5 26.5 -115.5 t79 -65.5t140.5 -20.5t148.5 20.5t104 65.5t70 115.5t46.5 171.5l13 71q18 99 17.5 169.5t-26.5 115.5t-79.5 65.5t-141.5 20.5q-87 0 -148.5 -20.5t-104 -65t-69.5 -115t-46 -170.5l-13 -73q-18 -99 -17 -169.5z" />
<glyph unicode="&#x43f;" horiz-adv-x="1210" d="M54 16l197 1058q3 16 19 16h106q9 0 12.5 -3.5t5.5 -12.5l8 -75q43 23 91.5 40.5t98 29.5t97.5 18.5t91 6.5q103 0 167.5 -27.5t96.5 -84.5t34 -143.5t-20 -204.5l-114 -618q-3 -16 -19 -16h-140q-16 0 -13 16l110 593q16 91 18 152.5t-18.5 98t-65.5 52t-121 15.5 q-36 0 -75.5 -4.5t-80.5 -13.5t-81 -22.5t-76 -31.5l-156 -839q-3 -16 -19 -16h-140q-16 0 -13 16z" />
<glyph unicode="&#x440;" horiz-adv-x="1182" d="M-30 -436l275 1483q3 17 19 18q103 16 199 22.5t185 6.5q141 0 230.5 -27t136 -86t54 -153t-16.5 -228l-22 -124q-26 -147 -67.5 -243.5t-109 -153.5t-167 -80t-241.5 -23q-58 0 -116.5 6.5t-106.5 16.5l-80 -435q-3 -16 -19 -16h-140q-16 0 -13 16zM249 147 q45 -9 104.5 -14t116.5 -5q101 0 168 18t111.5 61t70.5 114t46 178l14 74q20 107 19.5 178t-29 113t-89 59.5t-161.5 17.5q-54 0 -115.5 -3.5t-110.5 -11.5z" />
<glyph unicode="&#x441;" horiz-adv-x="957" d="M84.5 249q-7.5 97 15.5 236l17 101q24 144 66 241.5t111 157t171 84.5t248 25q67 0 126.5 -6t107.5 -15q17 -3 11 -18l-36 -117q-5 -14 -21 -13q-49 8 -104 10.5t-110 2.5q-101 0 -168.5 -18t-112.5 -61t-72 -114.5t-46 -177.5l-13 -65q-20 -108 -19.5 -179.5t29.5 -114 t90 -60t163 -17.5q59 0 115.5 3.5t106.5 11.5q16 3 15 -13l-10 -116q-1 -16 -17 -19q-25 -5 -55 -9t-62 -7t-64.5 -4.5t-62.5 -1.5q-141 0 -230 27.5t-135.5 88t-54 157.5z" />
<glyph unicode="&#x442;" horiz-adv-x="1744" d="M54 16l197 1058q3 16 19 16h106q9 0 12.5 -3.5t5.5 -12.5l7 -73q68 42 150 67.5t165 25.5q87 0 145.5 -22.5t91.5 -70.5q87 45 176.5 69t174.5 24q103 0 169.5 -26.5t101 -80t39 -135t-15.5 -190.5l-120 -646q-3 -16 -19 -16h-138q-16 0 -13 16l112 610q18 95 17.5 154 t-22 92t-65.5 45t-112 12q-57 0 -118.5 -13.5t-125.5 -44.5q7 -89 -18 -216l-119 -639q-3 -16 -19 -16h-136q-16 0 -13 16l114 618q16 88 15.5 145t-20 90t-59 46t-100.5 13q-60 0 -128 -16.5t-131 -58.5l-155 -837q-3 -16 -19 -16h-139q-16 0 -13 16z" />
<glyph unicode="&#x443;" horiz-adv-x="998" d="M-187 -442l40 117q5 15 21 12q21 -4 46.5 -6.5t46.5 -2.5q43 0 77 4.5t63 16.5t55 34t52.5 58t56 87t65.5 122q-2 0 -9 4.5t-17 18.5t-21 41.5t-20 73.5l-172 917q-3 16 13 16h160q16 0 19 -16l116 -716q4 -29 8 -56.5t7 -49.5t5 -35l2 -13l411 872q4 8 9 11t14 3h165 q17 0 9 -14l-573 -1139q-63 -125 -115 -202t-108.5 -119.5t-126 -57t-167.5 -14.5q-27 0 -61 3.5t-61 10.5q-15 4 -10 19z" />
<glyph unicode="&#x444;" horiz-adv-x="1759" d="M85 253.5q-5 93.5 17 219.5l22 125q18 105 42 182.5t56.5 132.5t75.5 90t99 55.5t126.5 28t159.5 7.5q91 0 194 -23l95 514q3 16 19 19l146 23q16 3 13 -13l-101 -543q46 10 101 16.5t103 6.5q133 0 217 -29t127 -89.5t48.5 -154t-18.5 -223.5l-23 -125 q-19 -102 -42.5 -178.5t-55.5 -132t-74 -91.5t-97.5 -57t-126 -29.5t-159.5 -8.5q-51 0 -103.5 6t-95.5 17l-80 -435q-3 -16 -19 -16h-140q-16 0 -13 16l80 433q-51 -10 -105 -15.5t-101 -5.5q-133 0 -216 30.5t-124.5 92t-46.5 155zM251 320.5q-1 -70.5 24 -112.5t79.5 -60 t147.5 -18q48 0 99 3.5t105 15.5l144 774q-47 11 -96 15.5t-102 4.5q-92 0 -153 -18t-101.5 -60.5t-66 -114t-45.5 -178.5l-14 -76q-20 -105 -21 -175.5zM879 150q46 -11 95.5 -15.5t101.5 -4.5q92 0 153 18t101.5 60t65 112.5t44.5 175.5l14 76q20 107 21.5 178.5t-23 114 t-79 60.5t-146.5 18q-53 0 -103.5 -4.5t-101.5 -15.5z" />
<glyph unicode="&#x445;" horiz-adv-x="1076" d="M-62 12l472 531l-267 514q-8 14 9 14h161q9 0 14 -3t9 -11l201 -415l356 417q9 12 26 12h184q17 0 5 -12l-474 -530l269 -515q8 -14 -9 -14h-163q-9 0 -14 3t-9 11l-201 416l-356 -418q-9 -12 -26 -12h-182q-17 0 -5 12z" />
<glyph unicode="&#x446;" horiz-adv-x="1329" d="M102 231q-5 87 18 207l115 617q3 16 19 16h140q16 0 13 -16l-113 -608q-18 -94 -16 -155t29 -96t81 -49t141 -14q31 0 65.5 2.5t69 8t66.5 13t59 17.5l2 12t3 13l159 856q3 16 19 16h139q16 0 13 -16l-156 -836q-6 -30 -7.5 -48.5t2 -28t11.5 -13t22 -3.5q11 0 23 1t19 2 l120 9q16 1 13 -15l-72 -393q-3 -16 -19 -16h-128q-16 0 -13 16l46 251q-12 -2 -25 -3.5t-24 -1.5q-53 0 -85 15t-48 43q-69 -26 -154 -42t-169 -16q-130 0 -211 27t-121.5 84t-45.5 144z" />
<glyph unicode="&#x447;" horiz-adv-x="1126" d="M99.5 604.5q-1.5 90.5 23.5 219.5l43 231q3 16 19 16h141q16 0 13 -16l-37 -202q-19 -104 -21.5 -169.5t17 -102.5t64 -50.5t120.5 -13.5q69 0 149 18t151 52l86 468q3 16 19 16h140q16 0 13 -16l-192 -1039q-3 -16 -19 -16h-140q-16 0 -13 16l73 394 q-36 -15 -78.5 -26.5t-87.5 -20t-91.5 -13t-90.5 -4.5q-104 0 -170 26.5t-98 84t-33.5 148z" />
<glyph unicode="&#x448;" horiz-adv-x="1744" d="M99.5 218.5q-4.5 81.5 15.5 190.5l120 646q3 16 19 16h138q16 0 13 -16l-112 -610q-18 -95 -17.5 -154t22 -92t65.5 -45t112 -12q57 0 118.5 13.5t125.5 44.5q-7 89 18 216l119 639q3 16 19 16h136q16 0 13 -16l-114 -618q-16 -88 -15.5 -145t20 -90t59 -46t100.5 -13 q60 0 128 16.5t131 58.5l155 837q3 16 19 16h139q16 0 13 -16l-197 -1058q-3 -16 -19 -16h-106q-9 0 -12.5 3.5t-5.5 12.5l-7 73q-68 -42 -150 -67.5t-165 -25.5q-87 0 -145.5 22.5t-91.5 70.5q-87 -45 -176.5 -69t-174.5 -24q-103 0 -169.5 26.5t-101 80t-39 135z" />
<glyph unicode="&#x449;" horiz-adv-x="1864" d="M100.5 226.5q-4.5 80.5 14.5 182.5l120 646q3 16 19 16h138q16 0 13 -16l-113 -610q-18 -95 -17 -154t22.5 -92t65 -45t112.5 -12q57 0 119.5 13.5t127.5 45.5q-9 89 15 215l119 639q3 16 19 16h136q16 0 13 -16l-114 -618q-17 -92 -16.5 -149t20 -89.5t59 -44 t101.5 -11.5q58 0 126.5 16.5t131.5 57.5l156 838q3 16 19 16h139q16 0 13 -16l-155 -836q-6 -30 -7.5 -48.5t1.5 -28t11 -13t22 -3.5q11 0 23 1t19 2l120 9q16 1 13 -15l-72 -393q-3 -16 -19 -16h-128q-16 0 -13 16l46 251q-14 -2 -27.5 -3.5t-27.5 -1.5q-59 0 -91 21 t-45 59q-70 -36 -157 -57.5t-175 -21.5q-155 0 -222 82q-90 -41 -184 -61.5t-182 -20.5q-104 0 -170 29t-100 84.5t-38.5 136z" />
<glyph unicode="&#x44a;" horiz-adv-x="1179" d="M91 917l26 138q3 16 19 16h358q16 0 13 -16l-66 -356q50 6 109 10t123 4q126 0 208 -20.5t126 -63t54.5 -107.5t-5.5 -154l-9 -49q-20 -109 -55.5 -176.5t-97.5 -104.5t-155 -49.5t-228 -12.5q-84 0 -173.5 5.5t-182.5 16.5q-16 1 -13 18l163 885h-201q-16 0 -13 16z M336 129q49 -3 100.5 -5.5t104.5 -2.5q93 0 153.5 9.5t98 33.5t57.5 65t33 103l4 22q12 61 7 101t-34 63.5t-87 33t-151 9.5q-51 0 -105.5 -2.5t-102.5 -7.5z" />
<glyph unicode="&#x44b;" horiz-adv-x="1618" d="M55 16l192 1039q3 16 19 16h141q16 0 13 -16l-65 -356q49 6 108 10t123 4q126 0 208 -20.5t126 -63t54.5 -107.5t-5.5 -154l-9 -49q-20 -109 -55.5 -176.5t-97.5 -104.5t-155 -49.5t-228 -12.5q-84 0 -173.5 5.5t-182.5 16.5q-16 1 -13 18zM249 129q49 -3 100.5 -5.5 t104.5 -2.5q93 0 153.5 9.5t98 33.5t57.5 65t33 103l4 22q12 61 7 101t-34 63.5t-87 33t-151 9.5q-51 0 -105.5 -2.5t-102.5 -7.5zM1167 16l192 1039q3 16 19 16h140q16 0 13 -16l-192 -1039q-3 -16 -19 -16h-140q-16 0 -13 16z" />
<glyph unicode="&#x44c;" horiz-adv-x="1093" d="M55 16l192 1039q3 16 19 16h141q16 0 13 -16l-65 -356q49 6 108 10t123 4q126 0 208 -20.5t126 -63t54.5 -107.5t-5.5 -154l-9 -49q-20 -109 -55.5 -176.5t-97.5 -104.5t-155 -49.5t-228 -12.5q-84 0 -173.5 5.5t-182.5 16.5q-16 1 -13 18zM249 129q49 -3 100.5 -5.5 t104.5 -2.5q93 0 153.5 9.5t98 33.5t57.5 65t33 103l4 22q12 61 7 101t-34 63.5t-87 33t-151 9.5q-51 0 -105.5 -2.5t-102.5 -7.5z" />
<glyph unicode="&#x44d;" horiz-adv-x="975" d="M-19 13l42 116q4 8 8.5 11t13.5 1q48 -8 104 -11t119 -3q94 0 159 17.5t109.5 59t72.5 110t48 169.5h-498q-16 0 -13 16l21 107q3 16 19 16h495q14 91 8 152t-36.5 98.5t-87.5 53.5t-146 16q-60 0 -117 -3t-109 -11q-16 -1 -16 14l-3 113q0 16 16 19q54 10 121.5 15 t139.5 5q135 0 222 -31.5t133 -95t54 -158t-15 -220.5l-20 -109q-20 -106 -45.5 -185t-60 -135t-79.5 -91.5t-103 -56.5t-130.5 -28.5t-162.5 -7.5q-32 0 -66 1.5t-67.5 3.5t-64 5.5t-54.5 8.5q-17 3 -11 18z" />
<glyph unicode="&#x44e;" horiz-adv-x="1705" d="M56 16l192 1039q3 16 19 16h141q16 0 13 -16l-74 -404h308q29 122 74 206.5t111 137t155.5 76t207.5 23.5q127 0 210.5 -31.5t128 -95t52 -160.5t-17.5 -228l-16 -91q-25 -143 -69 -240.5t-112 -158t-162.5 -87t-220.5 -26.5q-124 0 -206.5 31t-127.5 93t-54.5 155 t12.5 217h-307l-84 -456q-3 -16 -19 -16h-141q-16 0 -13 16zM777 328.5q1 -70.5 26.5 -115.5t79 -65.5t140.5 -20.5t148.5 20.5t104 65.5t70 115.5t46.5 171.5l13 71q18 99 17.5 169.5t-26.5 115.5t-79.5 65.5t-141.5 20.5q-87 0 -148.5 -20.5t-104 -65t-69.5 -115 t-46 -170.5l-13 -73q-18 -99 -17 -169.5z" />
<glyph unicode="&#x44f;" horiz-adv-x="1143" d="M-32 12l331 406q-54 18 -88 45t-50.5 63t-18 80.5t9.5 98.5l12 60q15 75 35.5 127.5t50.5 88t71.5 56t98.5 30.5t131 13t169 3q79 0 159 -3t165 -8q16 -1 13 -17l-193 -1039q-3 -16 -19 -16h-148q-16 0 -13 16l70 374q-51 -4 -89 -4.5t-79 -0.5q-32 0 -61.5 1t-56.5 3 l-290 -376q-10 -13 -26 -13h-178q-16 0 -6 12zM334.5 624q7.5 -36 39 -54.5t90 -24t150.5 -5.5h37t44 1t45.5 1.5t42.5 2.5l69 377q-14 1 -33.5 2t-41.5 2t-45 1h-44q-88 0 -149 -4.5t-100.5 -22.5t-62 -53.5t-33.5 -97.5l-5 -28q-11 -61 -3.5 -97z" />
<glyph unicode="&#x451;" horiz-adv-x="1149" d="M84 263q-8 98 15 233l15 88q24 138 67 235t110.5 158t162.5 89t223 28q104 0 178.5 -23.5t122.5 -68.5t71 -111t23 -151q0 -50 -6.5 -93.5t-16 -78t-19.5 -60t-16 -38.5q-4 -8 -8.5 -11t-13.5 -3l-731 -1q-14 -95 -8.5 -158t35.5 -100.5t86.5 -53.5t143.5 -16 q85 0 172 3.5t182 11.5q16 1 15 -15l-8 -111q-1 -9 -4.5 -12.5t-12.5 -5.5q-91 -10 -183 -16t-198 -6q-130 0 -214.5 30.5t-129.5 94.5t-53 162zM286 596l610 12q12 89 7.5 152.5t-32.5 104t-82 59t-140 18.5q-84 0 -144.5 -19.5t-103 -61.5t-70 -107.5t-45.5 -157.5z M438 1259l50 265q3 16 19 19l148 23q16 3 13 -13l-55 -294q-3 -16 -19 -16h-143q-16 0 -13 16zM776 1259l49 265q3 16 19 19l149 23q16 3 13 -13l-55 -294q-3 -16 -19 -16h-143q-16 0 -13 16z" />
<glyph unicode="&#x452;" horiz-adv-x="1213" d="M56 16l230 1242h-123q-16 0 -13 16l22 117q3 16 19 16h122l34 179q3 17 19 18l146 24q16 1 13 -14l-39 -207h300q16 0 13 -16l-22 -117q-3 -16 -19 -16h-299l-44 -235q40 16 86.5 29.5t94.5 22.5t96 14t91 5q97 0 160.5 -26.5t97 -82.5t37.5 -143t-18 -208l-134 -726 q-15 -82 -33 -142t-41.5 -102.5t-53 -69.5t-67.5 -42.5t-85 -21t-106 -5.5q-36 0 -77.5 4.5t-73.5 12.5q-15 4 -10 19l41 114q5 16 21 12q25 -5 54 -7.5t57 -2.5q48 0 81 10t55.5 36.5t37.5 71t28 113.5l130 702q18 94 18 155.5t-21.5 97.5t-66.5 50t-118 14 q-75 0 -156 -18.5t-156 -54.5l-156 -838q-3 -16 -19 -16h-140q-16 0 -13 16z" />
<glyph unicode="&#x453;" horiz-adv-x="994" d="M20 212q0 97 17 156.5t57 98t106 65t165 58.5l167 54q69 22 112.5 40t68.5 38.5t34.5 48t9.5 69.5q0 29 -13.5 48.5t-44 31t-81 16t-123.5 4.5q-69 0 -134.5 -4.5t-122.5 -10.5q-17 -1 -16 16l7 114q1 9 4 12t13 5q80 11 153.5 16.5t141.5 5.5q198 0 295 -53.5t97 -165.5 q0 -90 -18.5 -147.5t-56 -95t-95 -63t-135.5 -50.5l-197 -65q-67 -23 -112.5 -41.5t-73 -40.5t-39 -51.5t-11.5 -75.5q0 -34 14.5 -56.5t47 -35.5t83.5 -18.5t124 -5.5q37 0 70.5 1t68 3.5t72 7.5t83.5 13q19 3 18 -14l-9 -117q-1 -9 -4 -12t-13 -5q-106 -20 -189 -25 t-136 -5q-200 0 -302.5 55.5t-102.5 180.5zM504 1276l230 240q11 12 27 12h206q16 0 4 -10l-282 -244q-7 -5 -13 -7.5t-15 -2.5h-152q-17 0 -5 12z" />
<glyph unicode="&#x454;" horiz-adv-x="975" d="M85.5 252q-9.5 95 13.5 228l19 109q19 108 44.5 187t60 135.5t79.5 92t103.5 55.5t131.5 27.5t163 7.5q77 0 145 -5.5t106 -14.5q9 -2 11 -6.5t-1 -12.5l-44 -117q-3 -8 -7 -10.5t-13 -0.5q-51 9 -106 12t-116 3q-89 0 -152.5 -16t-107.5 -53.5t-72.5 -98.5t-48.5 -152 h496q10 0 12.5 -3.5t0.5 -12.5l-21 -111q-3 -12 -21 -12h-493q-18 -101 -16 -169t31.5 -109.5t88 -59.5t153.5 -18q26 0 57 1t62 3t60.5 4.5t52.5 6.5q7 1 9.5 -2t2.5 -12v-119q0 -11 -14 -14q-19 -4 -50.5 -7.5t-68 -6t-74.5 -4t-70 -1.5q-131 0 -217.5 29t-133 90.5 t-56 156.5z" />
<glyph unicode="&#x455;" horiz-adv-x="990" d="M7 25l34 117q5 15 21 12q79 -15 146 -20t138 -5q102 0 165 9t97.5 30.5t46 56t11.5 85.5q0 24 -8 42.5t-27.5 34.5t-52 32t-80.5 35l-171 65q-49 19 -85.5 40t-61 47.5t-36.5 60.5t-12 79q0 100 27.5 166.5t86.5 107t153 57.5t228 17q81 0 154 -7t128 -15q17 -1 11 -17 l-36 -117q-5 -14 -21 -13q-54 7 -115.5 11t-131.5 4q-83 0 -141.5 -6t-95.5 -24t-54.5 -50t-17.5 -83q0 -21 7 -37.5t25.5 -32t50 -30.5t80.5 -33l146 -54q60 -22 103 -44t71 -49.5t41.5 -62.5t13.5 -83q0 -110 -28.5 -182t-90.5 -115t-160.5 -60.5t-237.5 -17.5 q-27 0 -66 1.5t-81.5 5t-85 9t-77.5 14.5q-16 4 -11 19z" />
<glyph unicode="&#x456;" horiz-adv-x="507" d="M57 16l192 1039q3 16 19 16h140q16 0 13 -16l-193 -1039q-3 -16 -19 -16h-139q-16 0 -13 16zM283 1259l49 265q3 17 19 18l153 25q16 1 13 -14l-55 -294q-3 -16 -19 -16h-147q-16 0 -13 16z" />
<glyph unicode="&#x457;" horiz-adv-x="508" d="M57 16l192 1039q3 16 19 16h140q16 0 13 -16l-193 -1039q-3 -16 -19 -16h-139q-16 0 -13 16zM121 1259l50 265q3 16 19 19l148 23q16 3 13 -13l-55 -294q-3 -16 -19 -16h-143q-16 0 -13 16zM459 1259l49 265q3 16 19 19l149 23q16 3 13 -13l-55 -294q-3 -16 -19 -16h-143 q-16 0 -13 16z" />
<glyph unicode="&#x458;" horiz-adv-x="508" d="M-352 -442l41 116q5 15 21 12q25 -5 55 -7.5t57 -2.5q52 0 87 8t58.5 29.5t37 58.5t24.5 94l220 1189q3 16 19 16h140q16 0 13 -16l-219 -1189q-19 -100 -48.5 -166t-75 -105t-111 -54.5t-157.5 -15.5q-36 0 -77.5 3.5t-73.5 10.5q-16 4 -11 19zM284 1259l48 265 q3 17 19 18l153 25q16 1 13 -14l-54 -294q-3 -16 -19 -16h-147q-16 0 -13 16z" />
<glyph unicode="&#x459;" horiz-adv-x="1700" d="M-56 10l3 136q0 16 16 19q63 12 112.5 56.5t91 130.5t76.5 218.5t70 320.5l30 164q3 16 19 16h652q16 0 13 -16l-65 -356q49 6 108 10t123 4q126 0 208 -20.5t126 -63t54.5 -107.5t-5.5 -154l-9 -49q-20 -109 -55.5 -176.5t-97.5 -104.5t-155 -49.5t-228 -12.5 q-84 0 -173.5 5.5t-182.5 16.5q-16 1 -13 18l162 876h-333q-45 -241 -95.5 -405t-113.5 -267.5t-141.5 -155t-180.5 -68.5q-8 -1 -12 2t-4 12zM856 129q49 -3 100.5 -5.5t104.5 -2.5q93 0 153.5 9.5t98 33.5t57.5 65t33 103l4 22q12 61 7 101t-34 63.5t-87 33t-151 9.5 q-51 0 -105.5 -2.5t-102.5 -7.5z" />
<glyph unicode="&#x45a;" horiz-adv-x="1815" d="M56 16l192 1039q3 16 19 16h140q16 0 13 -16l-76 -415h550l77 415q3 16 19 16h140q16 0 13 -16l-65 -356q50 6 109 10t123 4q126 0 208 -20.5t126 -63t54.5 -107.5t-5.5 -154l-9 -49q-20 -109 -55.5 -176.5t-97.5 -104.5t-155 -49.5t-228 -12.5q-84 0 -173.5 5.5 t-182.5 16.5q-16 1 -13 18l82 445h-550l-83 -445q-3 -16 -19 -16h-140q-16 0 -13 16zM972 129q50 -3 101.5 -5.5t103.5 -2.5q93 0 153.5 9.5t98.5 33.5t58 65t33 103l4 22q12 61 7 101t-34 63.5t-87 33t-151 9.5q-51 0 -105.5 -2.5t-103.5 -7.5z" />
<glyph unicode="&#x45b;" horiz-adv-x="1212" d="M56 16l230 1242h-120q-16 0 -13 16l21 117q3 16 19 16h120l34 179q3 17 19 18l145 24q16 1 13 -14l-39 -207h303q16 0 13 -16l-22 -117q-3 -16 -19 -16h-303l-47 -256q43 22 90.5 39t96 29t95.5 18t90 6q103 0 167.5 -26t96.5 -82t34 -143t-20 -209l-114 -618 q-3 -16 -19 -16h-141q-16 0 -13 16l111 593q16 91 17.5 152.5t-18.5 98t-65.5 52t-121.5 15.5q-35 0 -75 -4.5t-81 -13.5t-81 -22.5t-76 -31.5l-155 -839q-3 -16 -19 -16h-140q-16 0 -13 16z" />
<glyph unicode="&#x45c;" horiz-adv-x="1020" d="M56 16l192 1039q3 16 19 16h140q16 0 13 -16l-78 -424l504 430q7 5 13 7.5t15 2.5h198q16 0 4 -10l-609 -518l400 -530q10 -13 -6 -13h-183q-16 0 -25 13l-339 466l-86 -463q-3 -16 -19 -16h-140q-16 0 -13 16zM560 1276l230 240q11 12 27 12h206q16 0 4 -10l-282 -244 q-7 -5 -13 -7.5t-15 -2.5h-152q-17 0 -5 12z" />
<glyph unicode="&#x45e;" horiz-adv-x="998" d="M-187 -442l40 117q5 15 21 12q21 -4 46.5 -6.5t46.5 -2.5q43 0 77 4.5t63 16.5t55 34t52.5 58t56 87t65.5 122q-2 0 -9 4.5t-17 18.5t-21 41.5t-20 73.5l-172 917q-3 16 13 16h160q16 0 19 -16l116 -716q4 -29 8 -56.5t7 -49.5t5 -35l2 -13l411 872q4 8 9 11t14 3h165 q17 0 9 -14l-573 -1139q-63 -125 -115 -202t-108.5 -119.5t-126 -57t-167.5 -14.5q-27 0 -61 3.5t-61 10.5q-15 4 -10 19zM364 1512q0 16 17 16h104q15 0 14 -16q-3 -35 4 -59t21.5 -38.5t35 -20.5t44.5 -6q27 0 51.5 6t46 20.5t39 38.5t29.5 60q5 15 22 15h108q9 0 12 -3.5 t2 -12.5q-9 -55 -29.5 -101.5t-58 -80t-94.5 -52.5t-139 -19q-65 0 -111 18t-73.5 51t-38.5 80t-6 104z" />
<glyph unicode="&#x45f;" d="M102 230.5q-4 87.5 19 207.5l115 617q3 16 19 16h140q16 0 13 -16l-113 -608q-18 -94 -16 -155t29 -96t81 -49t141 -14q31 0 65 2t68 5t66 8t58 11l167 896q3 16 19 16h140q16 0 13 -16l-186 -1008q-3 -16 -19 -20q-40 -10 -89.5 -19t-104.5 -16t-112.5 -11.5 t-113.5 -4.5q-141 0 -226.5 27t-127 83.5t-45.5 144zM276 -424l128 276q7 16 23 17l155 23q16 2 8 -12l-164 -305q-8 -14 -24 -14h-117q-17 0 -9 15z" />
<glyph unicode="&#x490;" horiz-adv-x="1080" d="M83 16l268 1443q3 16 19 16h653l36 194q3 16 19 16h147q16 0 13 -16l-65 -354q-3 -16 -19 -16h-654l-238 -1283q-3 -16 -19 -16h-147q-16 0 -13 16z" />
<glyph unicode="&#x491;" horiz-adv-x="812" d="M56 16l192 1039q3 16 19 16h404l33 180q3 16 19 16h149q16 0 13 -16l-62 -334q-3 -16 -19 -16h-404l-164 -885q-3 -16 -19 -16h-148q-16 0 -13 16z" />
<glyph unicode="&#x2000;" horiz-adv-x="944" />
<glyph unicode="&#x2001;" horiz-adv-x="1889" />
<glyph unicode="&#x2002;" horiz-adv-x="944" />
<glyph unicode="&#x2003;" horiz-adv-x="1889" />
<glyph unicode="&#x2004;" horiz-adv-x="629" />
<glyph unicode="&#x2005;" horiz-adv-x="472" />
<glyph unicode="&#x2006;" horiz-adv-x="314" />
<glyph unicode="&#x2007;" horiz-adv-x="314" />
<glyph unicode="&#x2008;" horiz-adv-x="236" />
<glyph unicode="&#x2009;" horiz-adv-x="377" />
<glyph unicode="&#x200a;" horiz-adv-x="104" />
<glyph unicode="&#x2010;" horiz-adv-x="812" d="M141 527l26 135q3 16 19 16h459q16 0 13 -16l-25 -135q-3 -16 -19 -16h-460q-16 0 -13 16z" />
<glyph unicode="&#x2011;" horiz-adv-x="812" d="M141 527l26 135q3 16 19 16h459q16 0 13 -16l-25 -135q-3 -16 -19 -16h-460q-16 0 -13 16z" />
<glyph unicode="&#x2012;" horiz-adv-x="812" d="M141 527l26 135q3 16 19 16h459q16 0 13 -16l-25 -135q-3 -16 -19 -16h-460q-16 0 -13 16z" />
<glyph unicode="&#x2013;" horiz-adv-x="1091" d="M141 527l26 135q3 16 19 16h739q16 0 13 -16l-25 -135q-3 -16 -19 -16h-740q-16 0 -13 16z" />
<glyph unicode="&#x2014;" horiz-adv-x="1863" d="M141 527l26 135q3 16 19 16h1511q16 0 13 -16l-25 -135q-3 -16 -19 -16h-1512q-16 0 -13 16z" />
<glyph unicode="&#x2018;" horiz-adv-x="445" d="M216 1483q-1 15 15 14l159 -20q16 -1 16 -18l-2 -462q0 -16 -16 -16h-120q-16 0 -17 16z" />
<glyph unicode="&#x2019;" horiz-adv-x="474" d="M169 997l151 462q5 17 23 18l194 20q11 2 14 -3.5t0 -13.5l-213 -486q-4 -8 -7.5 -10.5t-12.5 -2.5h-137q-18 0 -12 16z" />
<glyph unicode="&#x201a;" horiz-adv-x="483" d="M-85 -213l151 462q5 17 23 18l194 20q11 2 14 -3.5t0 -13.5l-213 -486q-4 -8 -7.5 -10.5t-12.5 -2.5h-137q-18 0 -12 16z" />
<glyph unicode="&#x201c;" horiz-adv-x="774" d="M211 1483q-3 16 14 14l164 -20q9 -2 12.5 -5.5t3.5 -12.5l9 -462q0 -16 -16 -16h-121q-9 0 -12.5 3.5t-5.5 12.5zM536 1483q-3 16 14 14l164 -20q9 -2 12.5 -5.5t3.5 -12.5l8 -462q0 -16 -16 -16h-120q-9 0 -12.5 3.5t-5.5 12.5z" />
<glyph unicode="&#x201d;" horiz-adv-x="809" d="M169 997l156 462q5 17 23 18l189 20q11 2 14 -3.5t0 -13.5l-213 -486q-4 -8 -7.5 -10.5t-12.5 -2.5h-137q-18 0 -12 16zM505 997l156 462q5 17 23 18l189 20q11 2 14 -3.5t0 -13.5l-213 -486q-4 -8 -7.5 -10.5t-12.5 -2.5h-137q-18 0 -12 16z" />
<glyph unicode="&#x201e;" horiz-adv-x="832" d="M-71 -213l156 462q5 17 23 18l189 20q11 2 14 -3.5t0 -13.5l-213 -486q-4 -8 -7.5 -10.5t-12.5 -2.5h-137q-18 0 -12 16zM265 -213l156 462q5 17 23 18l189 20q11 2 14 -3.5t0 -13.5l-213 -486q-4 -8 -7.5 -10.5t-12.5 -2.5h-137q-18 0 -12 16z" />
<glyph unicode="&#x2026;" horiz-adv-x="1370" d="M27 16l43 228q3 17 19 18l151 24q16 1 13 -14l-46 -256q-3 -16 -19 -16h-148q-16 0 -13 16zM486 16l43 228q3 17 19 18l151 24q16 1 13 -14l-46 -256q-3 -16 -19 -16h-148q-16 0 -13 16zM945 16l43 228q3 17 19 18l151 24q16 1 13 -14l-46 -256q-3 -16 -19 -16h-148 q-16 0 -13 16z" />
<glyph unicode="&#x202f;" horiz-adv-x="377" />
<glyph unicode="&#x2039;" horiz-adv-x="727" d="M51 584q-9 13 3 24l408 372q12 11 28 11h192q15 0 4 -11l-433 -395l270 -368q10 -13 -7 -13h-169q-16 0 -25 13z" />
<glyph unicode="&#x203a;" horiz-adv-x="730" d="M33 214l433 395l-270 368q-10 13 7 13h169q16 0 25 -13l271 -367q9 -13 -3 -24l-408 -372q-12 -11 -28 -11h-192q-15 0 -4 11z" />
<glyph unicode="&#x205f;" horiz-adv-x="472" />
<glyph unicode="&#x20ac;" horiz-adv-x="1288" d="M44 500l59 138q4 8 8.5 11.5t13.5 3.5h113l3 15l25 140q0 4 2 12h-147q-16 0 -10 15l59 138q4 8 8.5 11.5t13.5 3.5h116q44 149 110.5 247.5t154.5 157t196 82.5t235 24q96 0 182 -10t145 -27q16 -4 10 -20l-48 -131q-5 -15 -21 -12q-67 14 -143 20t-150 6 q-87 0 -161 -17t-135 -56t-108 -103.5t-81 -160.5h535q16 0 10 -15l-59 -138q-4 -8 -8.5 -11.5t-13.5 -3.5h-508v-2l-28 -160q-1 -2 -1 -5h480q16 0 10 -15l-59 -138q-4 -8 -8.5 -11.5t-13.5 -3.5h-428q-2 -96 21.5 -160t69.5 -103t113.5 -55.5t154.5 -16.5q90 0 167.5 6 t145.5 17q16 3 16 -13l-4 -132q0 -16 -16 -20q-65 -15 -156.5 -23.5t-191.5 -8.5q-126 0 -222.5 27.5t-161 88t-95 157.5t-24.5 236h-165q-16 0 -10 15z" />
<glyph unicode="&#x2116;" horiz-adv-x="2367" d="M85 16l267 1443q3 16 19 16h170q9 0 13.5 -3.5t8.5 -11.5l382 -1039q18 -51 27.5 -81.5t11.5 -30.5l213 1150q3 16 19 16h147q16 0 13 -16l-267 -1443q-3 -16 -19 -16h-170q-9 0 -13.5 3.5t-8.5 11.5l-379 1032q-19 51 -29 84.5t-11 33.5l-215 -1149q-3 -16 -19 -16h-147 q-16 0 -13 16zM1321 237l20 118q3 16 19 16h796q16 0 13 -16l-20 -118q-3 -16 -19 -16h-796q-16 0 -13 16zM1438.5 738.5q-5.5 87.5 16.5 206.5l16 86q23 126 62 214.5t98.5 144.5t142.5 82t194 26q109 0 181.5 -28.5t111 -86.5t45 -146t-15.5 -206l-17 -86 q-25 -126 -64.5 -214.5t-99.5 -144.5t-142 -81.5t-192 -25.5q-111 0 -183.5 28.5t-110 86t-43 145zM1596 807q0 -62 21 -101.5t65.5 -58t118.5 -18.5t127.5 18.5t91.5 58t63 102t42 150.5l12 65q16 86 16 148t-22 102t-68.5 59t-122.5 19q-73 0 -126.5 -19t-91.5 -58.5 t-62.5 -101.5t-38.5 -149l-11 -67q-14 -87 -14 -149z" />
<glyph unicode="&#x2122;" horiz-adv-x="1694" d="M210 1365l22 118q3 16 19 16h583q16 0 13 -16l-23 -118q-3 -16 -19 -16h-220l-119 -644q-3 -16 -19 -16h-110q-16 0 -13 16l119 644h-220q-16 0 -13 16zM783 705l145 778q3 16 19 16h135q16 0 20 -15l95 -364q4 -16 7 -34.5t5 -34t3.5 -26.5t1.5 -12q0 1 5.5 12l13.5 27 t18.5 34.5t21.5 35.5l228 363q5 8 10.5 11t14.5 3h145q16 0 13 -16l-144 -778q-3 -16 -19 -16h-105q-16 0 -13 16l93 504l10 66q-3 -1 -16 -21t-28 -46l-206 -334q-8 -14 -24 -14h-83q-16 0 -20 16l-82 326q-7 26 -12.5 47.5t-7.5 21.5l-18 -71l-90 -495q-3 -16 -19 -16 h-104q-16 0 -13 16z" />
<glyph unicode="&#xe000;" horiz-adv-x="1070" d="M0 0v1070h1070v-1070h-1070z" />
</font>
</defs>
</svg>
