<?xml version="1.0" standalone="no"?>
<!DOCTYPE svg PUBLIC "-//W3C//DTD SVG 1.1//EN" "http://www.w3.org/Graphics/SVG/1.1/DTD/svg11.dtd" >
<svg xmlns="http://www.w3.org/2000/svg">
<metadata></metadata>
<defs>
<font id="skoda_probold" horiz-adv-x="778" >
<font-face units-per-em="2048" ascent="1638" descent="-410" />
<missing-glyph horiz-adv-x="508" />
<glyph horiz-adv-x="2048" />
<glyph horiz-adv-x="2048" />
<glyph unicode="&#xd;" horiz-adv-x="508" />
<glyph unicode=" "  horiz-adv-x="508" />
<glyph unicode="&#x09;" horiz-adv-x="508" />
<glyph unicode="&#xa0;" horiz-adv-x="508" />
<glyph unicode="!" horiz-adv-x="579" d="M156 18v264q0 19 18 20l220 30q18 1 18 -16v-298q0 -18 -18 -18h-220q-18 0 -18 18zM156 1457q0 19 18 20l233 31q18 1 18 -16l-16 -920q0 -18 -18 -18h-201q-18 0 -18 18z" />
<glyph unicode="&#x22;" horiz-adv-x="889" d="M122 953v504q0 17 18 20l210 23q18 1 18 -16v-531q0 -18 -18 -18h-210q-18 0 -18 18zM522 953v504q0 17 18 20l210 23q18 1 18 -16v-531q0 -18 -18 -18h-210q-18 0 -18 18z" />
<glyph unicode="#" horiz-adv-x="1489" d="M69 334l18 210q1 18 19 18h221l56 353h-212q-18 0 -17 18l16 207q1 18 19 18h233l48 299q2 11 6.5 14.5t14.5 3.5h219q18 0 15 -18l-48 -299h269l48 299q2 11 6.5 14.5t14.5 3.5h219q18 0 15 -18l-48 -299h202q18 0 17 -18l-17 -207q-1 -18 -19 -18h-222l-56 -353h213 q18 0 17 -18l-17 -210q-1 -18 -19 -18h-234l-47 -298q-2 -11 -6.5 -14.5t-14.5 -3.5h-219q-18 0 -15 18l47 298h-269l-47 -298q-2 -11 -6.5 -14.5t-14.5 -3.5h-219q-18 0 -15 18l47 298h-201q-18 0 -17 18zM582 562h269l56 353h-269z" />
<glyph unicode="$" horiz-adv-x="1158" d="M76 1093q0 90 23.5 157t73 113t126.5 72.5t184 37.5v214q0 18 18 18h169q18 0 18 -18v-206q85 -2 165 -9t145 -18q18 -3 15 -21l-32 -178q-3 -18 -21 -17q-68 6 -133 9.5t-140 5.5l-5 -420l66 -17q108 -29 174 -69.5t102.5 -92t48.5 -114.5t12 -138q0 -91 -21 -160.5 t-68 -118.5t-123 -78.5t-185 -41.5v-215q0 -18 -18 -18h-169q-18 0 -18 18v206q-91 1 -180 8t-164 21q-18 4 -15 21l36 185q3 18 21 15q74 -12 147.5 -16.5t154.5 -5.5l5 433l-74 22q-104 31 -169.5 70t-103 88.5t-51.5 113t-14 144.5zM298 1087q0 -42 8 -72t29.5 -53 t60 -41.5t98.5 -37.5v367q-59 -5 -96.5 -15.5t-60 -30t-31 -48.5t-8.5 -69zM679 228q60 6 96 19.5t54.5 34.5t24.5 51t6 69q0 37 -6.5 64.5t-26 49.5t-55 41t-93.5 40v-369z" />
<glyph unicode="%" horiz-adv-x="2011" d="M77 987v119q0 114 26.5 190t74.5 122t115 65t148 19t147.5 -19t114 -65t73.5 -122t26 -190v-119q0 -113 -26 -189t-73 -122.5t-113.5 -66t-148.5 -19.5q-81 0 -148 19.5t-115 66t-74.5 122.5t-26.5 189zM294 984q0 -100 37.5 -143t109.5 -43q69 0 107 43t38 144v124 q0 52 -10 87.5t-29 57t-45.5 31t-60.5 9.5q-36 0 -63 -9.5t-46 -31t-28.5 -57t-9.5 -87.5v-125zM456 16l815 1443q5 9 10.5 12.5t16.5 3.5h242q18 0 9 -16l-815 -1443q-5 -9 -10.5 -12.5t-16.5 -3.5h-242q-18 0 -9 16zM1208 370v119q0 114 26 190.5t74 122t115 65t148 19.5 t148 -19.5t114.5 -65t73.5 -122t26 -190.5v-119q0 -113 -26 -189t-73 -122.5t-114 -66.5t-149 -20q-81 0 -147.5 20t-114.5 66.5t-74.5 122.5t-26.5 189zM1425 367q0 -100 37.5 -142.5t108.5 -42.5q70 0 108 42.5t38 143.5v123q0 53 -10 88.5t-29 57t-46 30.5t-61 9 q-35 0 -62.5 -9t-46 -30.5t-28 -57t-9.5 -88.5v-124z" />
<glyph unicode="&#x26;" horiz-adv-x="1485" d="M77 391q0 106 13 176t46.5 119.5t92 87.5t148.5 81q-34 45 -58 85t-39 79t-22 80.5t-7 89.5q0 89 28.5 149t80.5 96.5t125.5 52t164.5 15.5q90 0 163.5 -15.5t126.5 -52t82 -96.5t29 -149q0 -78 -11.5 -133.5t-44 -101t-91 -86t-152.5 -87.5l258 -294q54 64 94 138 t64 156q5 17 23 17h218q18 0 14 -18q-34 -139 -97 -260.5t-151 -221.5l250 -284q11 -14 -6 -14h-282q-11 0 -17 3t-13 11l-109 124q-112 -79 -242 -122.5t-273 -43.5q-86 0 -160 13t-128.5 56.5t-86 126.5t-31.5 223zM349 414q0 -62 11.5 -99t33 -56t51.5 -24.5t68 -5.5 q83 0 163 25.5t155 73.5l-302 345q-56 -28 -91.5 -52t-55 -52t-26.5 -64.5t-7 -90.5zM496 1177q0 -32 7 -60t20 -54.5t32 -52.5t43 -54q71 33 112.5 57t62.5 47.5t27 50.5t6 66q0 32 -7.5 55t-25.5 37.5t-47.5 21.5t-72.5 7q-45 0 -75 -7t-48 -21.5t-26 -37.5t-8 -55z" />
<glyph unicode="'" horiz-adv-x="490" d="M122 953v504q0 17 18 20l210 23q18 1 18 -16v-531q0 -18 -18 -18h-210q-18 0 -18 18z" />
<glyph unicode="(" horiz-adv-x="649" d="M102 499v88q0 121 14.5 240t42.5 231t68.5 213.5t92.5 188.5q5 8 10.5 11.5t16.5 3.5h234q18 0 9 -15q-54 -94 -95 -202.5t-68.5 -224.5t-41 -235t-13.5 -233v-45q0 -114 13.5 -233t41 -234.5t68.5 -224t95 -202.5q9 -15 -9 -15h-234q-11 0 -16.5 3.5t-10.5 11.5 q-52 87 -92.5 188.5t-68.5 213t-42.5 230.5t-14.5 241z" />
<glyph unicode=")" horiz-adv-x="649" d="M59 -374q54 94 95 202.5t68.5 224t41 234.5t13.5 233v45q0 114 -13.5 233t-41 235t-68.5 224.5t-95 202.5q-9 15 9 15h234q11 0 16.5 -3.5t10.5 -11.5q52 -87 92.5 -188.5t68.5 -213.5t42.5 -231t14.5 -240v-88q0 -122 -14.5 -241t-42.5 -230.5t-68.5 -213t-92.5 -188.5 q-5 -8 -10.5 -11.5t-16.5 -3.5h-234q-18 0 -9 15z" />
<glyph unicode="*" horiz-adv-x="990" d="M88 1019q-9 16 7 25l205 118l-205 119q-16 9 -7 25l78 137q9 16 25 7l207 -119v236q0 18 18 18h158q18 0 18 -18v-237l207 120q16 9 25 -7l79 -137q9 -16 -7 -25l-206 -119l206 -118q16 -9 7 -25l-79 -137q-9 -16 -25 -7l-207 119v-237q0 -18 -18 -18h-158q-18 0 -18 18 v237l-207 -119q-16 -9 -25 7z" />
<glyph unicode="+" horiz-adv-x="1086" d="M79 673v208q0 18 18 18h324v327q0 18 18 18h208q18 0 18 -18v-327h324q18 0 18 -18v-208q0 -18 -18 -18h-324v-322q0 -18 -18 -18h-208q-18 0 -18 18v322h-324q-18 0 -18 18z" />
<glyph unicode="," horiz-adv-x="537" d="M65 -236l74 518q2 11 6 15t15 5l254 30q18 2 14 -15l-141 -554q-2 -10 -6.5 -13.5t-15.5 -3.5h-185q-18 0 -15 18z" />
<glyph unicode="-" horiz-adv-x="780" d="M136 475v208q0 18 18 18h472q18 0 18 -18v-208q0 -18 -18 -18h-472q-18 0 -18 18z" />
<glyph unicode="." horiz-adv-x="511" d="M124 18v264q0 19 18 20l220 30q18 1 18 -16v-298q0 -18 -18 -18h-220q-18 0 -18 18z" />
<glyph unicode="/" horiz-adv-x="837" d="M68 17l433 1522q3 10 7.5 13.5t15.5 3.5h242q19 0 13 -17l-434 -1522q-3 -10 -7.5 -13.5t-15.5 -3.5h-241q-19 0 -13 17z" />
<glyph unicode="0" horiz-adv-x="1304" d="M125 601v273q0 136 15.5 235t46.5 169t75.5 113.5t103.5 68t130.5 33.5t155.5 9q85 0 157 -9t130.5 -33.5t103 -68t75 -113.5t46 -169t15.5 -235v-273q0 -136 -15.5 -235.5t-45.5 -169.5t-75 -113.5t-103 -68t-130 -33.5t-157 -9q-84 0 -155.5 9t-130 33.5t-104 68 t-76 113.5t-46.5 169.5t-16 235.5zM390 613q0 -122 16 -197t48.5 -116.5t82 -56t116.5 -14.5t116 14.5t81.5 56t48.5 117t16 197.5v249q0 122 -16 197t-49 116.5t-82.5 55.5t-115.5 14q-67 0 -116 -14t-81.5 -55.5t-48.5 -116.5t-16 -197v-250z" />
<glyph unicode="1" horiz-adv-x="817" d="M21 1381q-3 18 15 22l330 68q8 2 18 3t18 1h229q18 0 18 -18v-1439q0 -18 -18 -18h-229q-18 0 -18 18v1207l-309 -65q-18 -4 -21 14z" />
<glyph unicode="2" horiz-adv-x="1134" d="M94 18v128q0 107 16 185.5t52 143t94.5 122t144.5 122.5l209 157q33 25 59 47.5t43 46.5t26 51t9 60q0 45 -14 76t-45.5 50.5t-84 28.5t-128.5 9q-27 0 -63 -1t-76.5 -4t-84.5 -7.5t-86 -11.5q-18 -3 -21 15l-34 203q-2 11 1 15.5t13 7.5q47 12 97 19.5t99.5 12t95.5 6.5 t84 2q157 0 259.5 -27t162.5 -78t84 -123.5t24 -162.5q0 -68 -14 -123t-42.5 -103t-72 -92.5t-102.5 -91.5l-161 -127q-76 -60 -122.5 -101.5t-71.5 -76.5t-33 -69t-8 -78h596q18 0 18 -18v-213q0 -18 -18 -18h-887q-18 0 -18 18z" />
<glyph unicode="3" horiz-adv-x="1137" d="M104 23l12 212q1 17 19 16q87 -11 169 -14.5t154 -3.5q74 0 128.5 10t90 33t53 61t17.5 94v31q0 37 -10 72t-36 62t-70 43.5t-111 16.5h-263q-18 0 -18 18v207q0 18 18 18h256q71 0 116.5 14t71.5 37.5t36 52.5t10 59v21q0 89 -75 124.5t-214 35.5q-81 0 -157.5 -5 t-160.5 -13q-18 -3 -19 16l-13 212q-1 18 17 21q70 11 160.5 19.5t189.5 8.5q129 0 229.5 -20t170 -64t105.5 -116t36 -175v-27q0 -115 -60.5 -198.5t-185.5 -118.5q61 -20 107 -54.5t77 -79.5t46.5 -98.5t15.5 -110.5v-37q0 -126 -35.5 -209t-104 -132.5t-167.5 -69.5 t-226 -20q-102 0 -196 8.5t-166 21.5q-11 2 -14.5 6t-2.5 15z" />
<glyph unicode="4" horiz-adv-x="1236" d="M50 323v227q0 18 11 33l634 877q6 8 12 11.5t17 3.5h260q18 0 18 -18v-932h149q18 0 18 -18v-184q0 -18 -18 -18h-149v-287q0 -18 -18 -18h-229q-18 0 -18 18v287h-669q-18 0 -18 18zM317 525h420v589h-16l-404 -576v-13z" />
<glyph unicode="5" horiz-adv-x="1128" d="M87 36l35 207q3 18 21 15q39 -6 80.5 -11.5t82 -9.5t76 -6t62.5 -2q87 0 147 15t97 44t53.5 71.5t16.5 97.5v24q0 61 -17 106t-56.5 74t-104 43t-158.5 14q-31 0 -69.5 -2.5t-76 -6t-70 -7.5t-50.5 -6q-18 -1 -18 16v162q0 8 0.5 18t1.5 18l56 547q3 18 20 18h785 q18 0 15 -18l-38 -213q-2 -11 -6 -14.5t-15 -3.5h-538l-29 -293l11 1t25 2l28 2t21 1q130 0 232 -23.5t172.5 -77.5t108 -141.5t37.5 -215.5v-24q0 -130 -38 -222t-110.5 -150.5t-179 -85.5t-243.5 -27q-100 0 -187.5 10.5t-165.5 30.5q-10 3 -13 7.5t-1 15.5z" />
<glyph unicode="6" horiz-adv-x="1239" d="M116 616v202q0 189 39.5 319.5t118 211.5t196.5 117t274 36q73 0 153 -9t162 -30q10 -3 13 -7.5t1 -15.5l-36 -200q-3 -18 -21 -15q-32 6 -67.5 10t-71 6.5t-69.5 3.5t-62 1q-91 0 -157.5 -14.5t-110.5 -52t-67.5 -102.5t-27.5 -165q58 10 126 18.5t146 8.5 q106 0 198 -22t159.5 -73.5t106 -136t38.5 -209.5v-20q0 -116 -33 -209.5t-98.5 -159.5t-163 -101.5t-226.5 -35.5q-119 0 -215 32.5t-164 108t-104.5 198.5t-36.5 305zM382 616q0 -120 17 -195.5t50 -118t81.5 -58t111.5 -15.5q121 0 185 57.5t64 183.5v21q0 63 -19 104.5 t-54 66.5t-84 35.5t-109 10.5q-27 0 -58 -2t-62.5 -5.5t-63 -8l-59.5 -8.5v-68z" />
<glyph unicode="7" horiz-adv-x="1067" d="M42 1457q-1 18 16 18h954q18 0 18 -18v-212q0 -19 -8 -34l-583 -1195q-5 -9 -10 -12.5t-16 -3.5h-272q-17 0 -10 16l621 1210h-668q-17 0 -20 18z" />
<glyph unicode="8" horiz-adv-x="1281" d="M104 397v44q0 40 13.5 87t42.5 92t74.5 83.5t110.5 61.5q-53 20 -90 54.5t-59.5 77.5t-32.5 91t-10 95v29q0 106 32.5 180.5t94.5 121t153 67.5t208 21t207.5 -21t152.5 -67.5t94.5 -121t32.5 -180.5v-29q0 -47 -10 -95t-32.5 -91t-59 -77.5t-89.5 -54.5 q64 -23 109.5 -61.5t74.5 -83.5t42.5 -92t13.5 -87v-44q0 -124 -38.5 -206t-108.5 -130.5t-169 -68.5t-220 -20q-122 0 -221 20t-169 68.5t-108.5 130.5t-38.5 206zM363 419q0 -57 15.5 -97t49 -64.5t86.5 -36t127 -11.5t126.5 11.5t86 36t49 64.5t15.5 97v30q0 21 -8.5 54 t-33.5 63.5t-71 52.5t-122 22h-84q-76 0 -122 -22t-71.5 -52.5t-34 -63.5t-8.5 -54v-30zM398 1068q0 -29 7 -61t29 -58.5t61 -44t104 -17.5h84q64 0 103 17.5t60.5 44t29 58.5t7.5 61v15q0 50 -13 84.5t-41.5 56.5t-75 31.5t-112.5 9.5t-112.5 -9.5t-75.5 -31.5t-42 -56.5 t-13 -84.5v-15z" />
<glyph unicode="9" horiz-adv-x="1243" d="M88 980v20q0 117 30.5 210t94 158t161 99.5t231.5 34.5q118 0 214.5 -32t165.5 -107t106.5 -198t37.5 -304v-177q0 -197 -39.5 -333t-118 -220t-196.5 -121.5t-274 -37.5q-76 0 -159.5 10t-169.5 31q-10 3 -13 7.5t-1 15.5l34 206q3 18 21 14q34 -7 72 -12t75.5 -8.5 t73 -5t65.5 -1.5q87 0 151.5 14t109 51t69 100t31.5 161q-59 -11 -126.5 -19t-143.5 -8q-113 0 -205.5 22.5t-158.5 75t-102 139.5t-36 215zM354 987q0 -66 16.5 -109.5t50 -69.5t83.5 -37t116 -11q54 0 119.5 5t123.5 12v91q0 120 -18 194t-52.5 115t-83.5 55t-110 14 q-129 0 -187 -56t-58 -183v-20z" />
<glyph unicode=":" horiz-adv-x="557" d="M148 18v264q0 19 18 20l220 30q18 1 18 -16v-298q0 -18 -18 -18h-220q-18 0 -18 18zM148 694v264q0 19 18 20l220 30q18 1 18 -16v-298q0 -18 -18 -18h-220q-18 0 -18 18z" />
<glyph unicode=";" horiz-adv-x="585" d="M102 -236l74 518q2 11 6 15t15 5l254 30q18 2 14 -15l-141 -554q-2 -10 -6.5 -13.5t-15.5 -3.5h-185q-18 0 -15 18zM179 694v264q0 19 18 20l220 30q18 1 18 -16v-298q0 -18 -18 -18h-220q-18 0 -18 18z" />
<glyph unicode="&#x3c;" horiz-adv-x="971" d="M68 649v217q0 11 3.5 16.5t11.5 10.5l696 411q14 9 20 -8l58 -214q5 -17 -11 -26l-549 -299l549 -299q16 -9 11 -26l-58 -214q-6 -17 -20 -8l-696 412q-8 5 -11.5 10.5t-3.5 16.5z" />
<glyph unicode="=" horiz-adv-x="1193" d="M147 437v207q0 18 18 18h863q18 0 18 -18v-207q0 -18 -18 -18h-863q-18 0 -18 18zM147 956v207q0 18 18 18h863q18 0 18 -18v-207q0 -18 -18 -18h-863q-18 0 -18 18z" />
<glyph unicode="&#x3e;" horiz-adv-x="971" d="M114 432q-5 17 11 26l549 299l-549 299q-16 9 -11 26l58 214q6 17 20 8l696 -411q8 -5 11.5 -10.5t3.5 -16.5v-217q0 -11 -3.5 -16.5t-11.5 -10.5l-696 -412q-14 -9 -20 8z" />
<glyph unicode="?" horiz-adv-x="916" d="M67 1443q-3 17 14 22q67 19 151.5 28t172.5 9q102 0 184 -16t139.5 -51.5t89 -92.5t31.5 -140v-17q0 -48 -9.5 -88t-30.5 -78.5t-54.5 -79t-80.5 -88.5l-85 -88q-36 -37 -56 -62t-30.5 -49.5t-13 -54.5t-2.5 -77v-35q0 -18 -18 -18h-209q-11 0 -15 3.5t-6 14.5 q-3 17 -6 44.5t-3 56.5q0 38 4 71.5t17.5 67t39 69t68.5 77.5l75 70q32 31 55.5 55.5t38.5 46.5t22 43.5t7 47.5q0 59 -47.5 85t-152.5 26q-56 0 -111.5 -5t-123.5 -16q-18 -3 -21 15zM236 18v264q0 19 18 20l220 30q18 1 18 -16v-298q0 -18 -18 -18h-220q-18 0 -18 18z" />
<glyph unicode="@" horiz-adv-x="1860" d="M97 541l14 142q21 200 95 348.5t194.5 246.5t283.5 146.5t362 48.5q194 0 332 -47t225.5 -134t128 -211t40.5 -278q0 -152 -29.5 -267t-84.5 -199t-135 -140t-180.5 -89t-221 -47t-257.5 -14q-105 0 -175 22t-109.5 73t-51.5 135t0 209l13 129q13 123 40 206.5t78 134.5 t129.5 73t194.5 22q78 0 161 -9t161 -23q18 -3 17 -21l-37 -693q61 21 106.5 58t76 96.5t45.5 144t15 201.5q0 109 -25 193.5t-84.5 142t-157 87t-242.5 29.5q-80 0 -156.5 -10.5t-145.5 -36t-129 -69t-107.5 -108.5t-80.5 -154t-49 -207l-17 -133q-13 -100 -12.5 -190 t19 -167t58.5 -139t107.5 -106t165.5 -68.5t232 -25.5q17 0 16 -18l-20 -181q-2 -11 -6 -14.5t-14 -3.5q-248 2 -409.5 64t-251.5 178.5t-116.5 285.5t-5.5 387zM766.5 387.5q1.5 -48.5 18.5 -75t52 -35.5t94 -9q63 0 113 9l28 550q-29 4 -58.5 6.5t-58.5 2.5 q-48 0 -78.5 -12.5t-49.5 -42t-30 -78.5t-18 -122l-6 -66q-8 -79 -6.5 -127.5z" />
<glyph unicode="A" horiz-adv-x="1343" d="M15 17l467 1441q4 10 8.5 13.5t15.5 3.5h330q11 0 15.5 -3.5t8.5 -13.5l469 -1441q1 -4 1 -7q0 -10 -13 -10h-256q-11 0 -15.5 3.5t-7.5 13.5l-87 283h-562l-86 -283q-3 -10 -7.5 -13.5t-15.5 -3.5h-253q-13 0 -13 10q0 3 1 7zM463 540h415l-208 677z" />
<glyph unicode="B" horiz-adv-x="1342" d="M166 15v1442q0 18 18 19q39 3 87 6t99 5t102 3t97 1q165 0 281.5 -16.5t189.5 -57.5t106.5 -112t33.5 -180v-11q0 -100 -39 -168.5t-102 -107.5q46 -21 85 -54t67 -78.5t44 -103.5t16 -130v-41q0 -99 -20 -171t-59.5 -122t-98 -80.5t-134.5 -47.5t-170 -23t-204 -6 q-36 0 -81.5 1t-95.5 3t-102.5 4.5t-101.5 6.5q-18 1 -18 19zM432 225q20 -2 44 -3t48.5 -1.5t48 -1t42.5 -0.5q102 0 172.5 6t114.5 27t63.5 61t19.5 109v32q0 58 -15.5 96t-44 59.5t-69.5 30t-91 8.5h-333v-423zM432 881h286q92 0 143.5 42t51.5 139v14q0 60 -19 95.5 t-56 53.5t-91.5 23.5t-125.5 5.5q-53 0 -97.5 -1t-91.5 -5v-367z" />
<glyph unicode="C" horiz-adv-x="1197" d="M110 665v147q0 196 43 328.5t124.5 213t200 114.5t268.5 34q51 0 101.5 -3t96.5 -9t87 -14.5t73 -18.5q17 -5 14 -23l-33 -201q-3 -18 -21 -14q-75 15 -153.5 21t-154.5 6q-92 0 -162.5 -20.5t-118.5 -70t-73 -131t-25 -202.5v-167q0 -122 24.5 -204t72.5 -131.5t119 -70 t163 -20.5q87 0 166.5 5.5t153.5 15.5q18 3 21 -15l29 -205q1 -4 1 -8q0 -6 -2 -8q-3 -4 -13 -7q-33 -8 -75 -14.5t-89 -11t-98.5 -7t-103.5 -2.5q-150 0 -268.5 34t-200 114.5t-124.5 213.5t-43 331z" />
<glyph unicode="D" horiz-adv-x="1416" d="M167 18v1439q0 18 18 19q40 3 88.5 5.5t96 4t91 2.5t73.5 1q116 0 218.5 -9.5t189 -36.5t155 -75t116 -125.5t73 -187.5t25.5 -260v-113q0 -150 -25.5 -260.5t-73 -188t-116 -126t-155 -76t-189 -37.5t-218.5 -10q-34 0 -76.5 1t-88.5 2.5t-93.5 4t-90.5 6.5 q-18 1 -18 20zM432 229q16 -2 39.5 -3.5t47.5 -2.5t46.5 -1.5t38.5 -0.5q111 0 194 18t137.5 68t82 139t27.5 232v119q0 142 -28.5 230.5t-85.5 138.5t-142.5 68t-199.5 18q-16 0 -36.5 -0.5t-42 -1t-42 -2t-36.5 -3.5v-1016z" />
<glyph unicode="E" horiz-adv-x="1202" d="M168 18v1439q0 18 18 18h894q18 0 18 -18v-216q0 -18 -18 -18h-646v-334h519q18 0 18 -18v-215q0 -18 -18 -18h-519v-386h646q18 0 18 -18v-216q0 -18 -18 -18h-894q-18 0 -18 18z" />
<glyph unicode="F" horiz-adv-x="1141" d="M168 18v1439q0 18 18 18h897q18 0 18 -18v-216q0 -18 -18 -18h-649v-339h507q18 0 18 -18v-216q0 -18 -18 -18h-507v-614q0 -18 -18 -18h-230q-18 0 -18 18z" />
<glyph unicode="G" horiz-adv-x="1308" d="M110 665v147q0 196 42 328.5t124 213t202.5 114.5t277.5 34q47 0 97 -3t98 -9t91 -14.5t76 -19.5q17 -5 14 -23l-34 -200q-3 -18 -21 -15q-76 13 -154.5 19t-156.5 6q-99 0 -172 -20t-121 -69t-71.5 -130t-23.5 -202v-167q0 -122 22 -203.5t67 -130t114.5 -68.5 t164.5 -20q51 0 95 2t85 7v332l-223 9q-18 1 -18 19v186q0 18 18 18h468q18 0 18 -18l1 -43v-687q0 -19 -17 -24q-53 -19 -107.5 -31t-108.5 -19t-106.5 -9.5t-100.5 -2.5q-156 0 -275.5 34t-200.5 114.5t-122.5 213.5t-41.5 331z" />
<glyph unicode="H" horiz-adv-x="1482" d="M168 18v1439q0 18 18 18h230q18 0 18 -18v-568h616v568q0 18 18 18h228q18 0 18 -18v-1439q0 -18 -18 -18h-228q-18 0 -18 18v619h-616v-619q0 -18 -18 -18h-230q-18 0 -18 18z" />
<glyph unicode="I" horiz-adv-x="602" d="M168 18v1439q0 18 18 18h230q18 0 18 -18v-1439q0 -18 -18 -18h-230q-18 0 -18 18z" />
<glyph unicode="J" horiz-adv-x="601" d="M-94 -322l30 202q3 18 21 15q23 -3 43 -3.5t39 -0.5q31 0 55 5t40 19.5t24.5 40.5t8.5 67v1434q0 18 18 18h230q18 0 18 -18v-1457q0 -81 -17 -147t-58 -113.5t-109.5 -73t-170.5 -25.5q-38 0 -80.5 4.5t-76.5 11.5q-18 4 -15 21z" />
<glyph unicode="K" horiz-adv-x="1300" d="M168 18v1439q0 18 18 18h230q18 0 18 -18v-560l484 564q7 8 13 11t17 3h320q17 0 6 -13l-559 -626l588 -821q3 -5 3 -9q0 -6 -11 -6h-316q-11 0 -16.5 3.5t-11.5 11.5l-429 615l-88 -88v-524q0 -18 -18 -18h-230q-18 0 -18 18z" />
<glyph unicode="L" horiz-adv-x="1054" d="M168 18v1439q0 18 18 18h230q18 0 18 -18v-1205h569q18 0 18 -18v-216q0 -18 -18 -18h-817q-18 0 -18 18z" />
<glyph unicode="M" horiz-adv-x="1696" d="M168 18v1439q0 18 18 18h276q11 0 16.5 -3.5t10.5 -12.5l314 -557q9 -15 17 -31.5t14 -30t10 -23t5 -11.5q0 1 4 10l10 22.5t14 30.5t17 34l313 556q5 9 10.5 12.5t16.5 3.5h277q18 0 18 -18v-1439q0 -18 -18 -18h-230q-18 0 -18 18l-2 1067q-1 0 -3.5 -7t-7 -17.5 t-10.5 -24t-13 -26.5l-273 -510q-5 -9 -10.5 -12.5t-16.5 -3.5h-157q-11 0 -16.5 3.5t-10.5 12.5l-270 501q-8 16 -14.5 31t-11.5 27t-7.5 19t-3.5 7l-2 -1067q0 -18 -18 -18h-230q-18 0 -18 18z" />
<glyph unicode="N" horiz-adv-x="1484" d="M168 18v1439q0 18 18 18h257q11 0 16.5 -3.5t10.5 -12.5l526 -895q26 -44 39.5 -73.5t15.5 -29.5l1 996q0 18 18 18h229q18 0 18 -18v-1439q0 -18 -18 -18h-257q-11 0 -16.5 3.5t-10.5 12.5l-523 890q-29 48 -42 78.5t-14 30.5l-2 -997q0 -18 -18 -18h-230q-18 0 -18 18z " />
<glyph unicode="O" horiz-adv-x="1441" d="M113 665v147q0 196 40.5 328.5t118.5 212.5t191 114.5t258 34.5t258.5 -34t190.5 -114.5t117.5 -213.5t40.5 -330v-147q0 -197 -40.5 -329.5t-117.5 -213t-190.5 -114.5t-258.5 -34t-258 34t-191 114.5t-118.5 213.5t-40.5 331zM379 655q0 -120 22 -200.5t65.5 -128.5 t107 -68.5t147.5 -20.5q83 0 147 20.5t107.5 68.5t65.5 128.5t22 200.5v165q0 120 -22 200.5t-65.5 128.5t-107.5 68.5t-147 20.5q-84 0 -147.5 -20t-107 -68t-65.5 -128t-22 -200v-167z" />
<glyph unicode="P" horiz-adv-x="1332" d="M168 18v1442q0 18 18 19q51 3 108.5 5t113.5 3.5t107.5 2.5t89.5 1q193 0 319 -20t200.5 -69.5t104.5 -134t30 -213.5v-103q0 -130 -30 -214.5t-104.5 -134t-200.5 -69t-319 -19.5q-19 0 -44 0.5l-50 1t-46.5 1t-31.5 1.5v-500q0 -18 -18 -18h-229q-18 0 -18 18zM433 758 q16 -2 39 -3t47.5 -2t48 -1.5t41.5 -0.5q114 0 188 8t117.5 32t60.5 67.5t17 113.5v61q0 70 -17 113.5t-60.5 67.5t-117.5 32t-188 8q-18 0 -41.5 -0.5t-48 -1.5t-47.5 -2.5t-39 -2.5v-489z" />
<glyph unicode="Q" horiz-adv-x="1442" d="M113 665v147q0 196 40.5 328.5t118.5 212.5t191 114.5t258 34.5t258.5 -34t190.5 -114.5t117.5 -213.5t40.5 -330v-147q0 -144 -22 -253t-64 -188.5t-104 -131t-142 -79.5l240 -385q10 -15 -8 -15h-278q-11 0 -16.5 3.5t-10.5 12.5l-187 346q-4 0 -7.5 -0.5t-7.5 -0.5 q-145 0 -258 34t-191 114.5t-118.5 213.5t-40.5 331zM379 655q0 -120 22 -200.5t65.5 -128.5t107 -68.5t147.5 -20.5q83 0 147 20.5t107.5 68.5t65.5 128.5t22 200.5v165q0 120 -22 200.5t-65.5 128.5t-107.5 68.5t-147 20.5q-84 0 -147.5 -20t-107 -68t-65.5 -128t-22 -200 v-167z" />
<glyph unicode="R" horiz-adv-x="1376" d="M167 18v1439q0 18 18 19q113 8 218 10.5t208 2.5q193 0 320 -17.5t202.5 -64t106 -129t30.5 -211.5v-118q0 -115 -24 -193t-85 -126q-65 -51 -185 -75q14 -21 28.5 -44.5t31.5 -52.5l253 -442q3 -5 3 -9q0 -7 -12 -7h-273q-11 0 -16 3.5t-10 12.5l-267 515 q-19 -1 -38.5 -1h-39.5q-49 0 -96 1.5t-107 5.5v-519q0 -18 -18 -18h-230q-18 0 -18 18zM433 774q45 -4 98.5 -5.5t100.5 -1.5q108 0 180 6.5t114.5 28.5t60 64t17.5 113v64q0 72 -18 114t-61.5 63t-116 26.5t-182.5 5.5q-23 0 -50 -0.5t-53 -1t-49.5 -2t-40.5 -3.5v-471z " />
<glyph unicode="S" horiz-adv-x="1206" d="M88 1107q0 109 34 184.5t106 122.5t184 67.5t268 20.5q99 0 191.5 -9.5t167.5 -29.5q17 -5 14 -22l-37 -192q-3 -18 -21 -15q-36 5 -75.5 9t-77.5 6.5t-72.5 3.5t-61.5 1q-93 0 -159 -6t-107.5 -22t-60.5 -43.5t-19 -70.5q0 -40 12.5 -67.5t43 -51.5t80.5 -47t125 -54 l182 -77q96 -40 158.5 -81t99 -89.5t51 -107t14.5 -134.5q0 -104 -25 -184.5t-91.5 -135t-182.5 -83t-298 -28.5q-115 0 -219.5 11.5t-182.5 31.5q-17 5 -14 22l38 199q3 18 21 15q52 -8 96 -13.5t84.5 -9t80 -5t83.5 -1.5q112 0 178 10.5t101 32t45.5 55t10.5 78.5 q0 36 -10 62t-39.5 50t-83 51t-140.5 65l-158 72q-99 45 -163.5 90t-102.5 94.5t-53 105t-15 119.5z" />
<glyph unicode="T" horiz-adv-x="1207" d="M32 1241v216q0 18 18 18h1107q18 0 18 -18v-216q0 -18 -18 -18h-421v-1205q0 -18 -18 -18h-229q-18 0 -18 18v1205h-421q-18 0 -18 18z" />
<glyph unicode="U" horiz-adv-x="1474" d="M155 493v964q0 18 18 18h228q18 0 18 -18v-903q0 -86 16 -147t53 -101t98 -58.5t150 -18.5t150 18.5t99 58t55 101t17 147.5v903q0 18 18 18h227q18 0 18 -18v-964q0 -142 -39.5 -241t-114.5 -161.5t-183.5 -90.5t-246.5 -28t-246.5 28t-182.5 90.5t-113 161.5t-39 241z " />
<glyph unicode="V" horiz-adv-x="1328" d="M14 1458q-1 3 -1 6q0 11 14 11h249q11 0 15.5 -3.5t7.5 -13.5l364 -1215h2l363 1215q3 10 7.5 13.5t15.5 3.5h252q13 0 13 -10q0 -3 -1 -7l-463 -1441q-4 -10 -8.5 -13.5t-15.5 -3.5h-329q-11 0 -15.5 3.5t-7.5 13.5z" />
<glyph unicode="W" horiz-adv-x="1912" d="M65 1457q-3 18 15 18h261q19 0 20 -18l138 -1004l31 -225l4 21t10.5 53t15 71.5t17.5 77.5l242 1006q2 11 6.5 14.5t15.5 3.5h227q11 0 15.5 -3.5t6.5 -13.5l245 -1001q9 -36 17 -76.5t15 -74.5t11 -56l5 -22l31 232l136 997q1 18 20 18h262q18 0 15 -18l-271 -1439 q-2 -11 -6 -14.5t-15 -3.5h-315q-11 0 -15.5 3.5t-7.5 13.5l-236 904q-5 18 -9.5 38.5t-8 39t-6 32t-2.5 17.5q0 -3 -2.5 -16t-5.5 -31.5t-7.5 -40t-9.5 -39.5l-236 -904q-3 -10 -7.5 -13.5t-15.5 -3.5h-313q-11 0 -15 3.5t-6 14.5z" />
<glyph unicode="X" horiz-adv-x="1322" d="M25 15l465 724l-465 721q-4 6 -4 9q0 6 12 6h282q11 0 16.5 -3.5t10.5 -11.5l319 -523l320 523q5 8 10.5 11.5t16.5 3.5h282q12 0 12 -6q0 -3 -4 -9l-466 -721l466 -724q4 -5 4 -9q0 -6 -12 -6h-282q-11 0 -16.5 3.5t-10.5 11.5l-319 533l-320 -533q-5 -8 -10.5 -11.5 t-16.5 -3.5h-282q-12 0 -12 6q0 3 4 9z" />
<glyph unicode="Y" horiz-adv-x="1227" d="M3 1459q-2 5 -2 8q0 8 12 8h262q11 0 16 -3.5t10 -12.5l314 -669l313 669q5 9 10 12.5t16 3.5h260q12 0 12 -8q0 -3 -2 -8l-477 -964v-477q0 -18 -18 -18h-229q-18 0 -18 18v477z" />
<glyph unicode="Z" horiz-adv-x="1230" d="M84 18v199q0 18 11 33l723 989h-690q-18 0 -18 18v200q0 18 18 18h984q18 0 18 -18v-198q0 -18 -11 -33l-721 -989h722q18 0 18 -18v-201q0 -18 -18 -18h-1018q-18 0 -18 18z" />
<glyph unicode="[" horiz-adv-x="696" d="M151 -371v1909q0 18 18 18h483q18 0 18 -18v-212q0 -18 -18 -18h-236v-1448h236q18 0 18 -18v-213q0 -18 -18 -18h-483q-18 0 -18 18z" />
<glyph unicode="\" horiz-adv-x="837" d="M58 1539q-6 17 13 17h242q11 0 15.5 -3.5t7.5 -13.5l433 -1522q6 -17 -13 -17h-241q-11 0 -15.5 3.5t-7.5 13.5z" />
<glyph unicode="]" horiz-adv-x="696" d="M26 -158q0 18 18 18h236v1448h-236q-18 0 -18 18v212q0 18 18 18h483q18 0 18 -18v-1909q0 -18 -18 -18h-483q-18 0 -18 18v213z" />
<glyph unicode="^" horiz-adv-x="1282" d="M262 1148l257 311q6 8 12 11t17 3h187q11 0 17 -3t12 -11l258 -311q11 -14 -7 -14h-192q-11 0 -17 3t-12 11l-152 187l-152 -187q-6 -8 -12 -11t-17 -3h-192q-18 0 -7 14z" />
<glyph unicode="_" horiz-adv-x="978" d="M31 -104q0 18 18 18h880q18 0 18 -18v-207q0 -18 -18 -18h-880q-18 0 -18 18v207z" />
<glyph unicode="`" d="M161 1524q-11 13 6 13h258q11 0 16.5 -3.5t11.5 -11.5l162 -240q9 -15 -8 -15h-200q-11 0 -17 2.5t-13 10.5z" />
<glyph unicode="a" horiz-adv-x="1125" d="M73 307q0 68 9.5 119.5t34 89.5t66 64t105 41.5t151 22t204.5 6.5h103v52q0 51 -9.5 85.5t-36 55.5t-73.5 30t-123 9q-72 0 -153.5 -4.5t-156.5 -12.5q-18 -1 -18 16v171q0 11 3.5 15t14.5 6q40 6 85.5 11t90.5 8.5t87 5.5t75 2q103 0 177.5 -10.5t125.5 -32t82 -55.5 t48 -80.5t22.5 -106.5t5.5 -135v-657q0 -11 -3.5 -15t-14.5 -5q-52 -7 -109 -13t-112.5 -10t-105 -6t-85.5 -2q-127 0 -219.5 16t-152.5 54t-89 102.5t-29 162.5zM303 316q0 -48 19.5 -76t53.5 -43t80.5 -19t101.5 -4q49 0 99.5 2.5t88.5 8.5v273h-110q-104 0 -168.5 -5.5 t-101.5 -21.5t-50 -43.5t-13 -71.5z" />
<glyph unicode="b" horiz-adv-x="1205" d="M139 23v1561q0 19 18 20l216 30h2q16 0 16 -16v-541q52 8 110 14t130 6q131 0 220.5 -25.5t145 -83.5t80 -151.5t24.5 -229.5v-144q0 -137 -25 -231t-84.5 -152t-157.5 -83t-245 -25q-104 0 -212.5 7.5t-219.5 22.5q-11 2 -14.5 6t-3.5 15zM391 201q43 -5 97 -7.5 t105 -2.5q82 0 133.5 15.5t80.5 51.5t39.5 95.5t10.5 147.5v79q0 86 -10 143t-39 91.5t-80.5 49t-133.5 14.5q-24 0 -52 -1t-55 -2.5t-52 -4t-44 -6.5v-663z" />
<glyph unicode="c" horiz-adv-x="963" d="M102 479v113q0 133 24.5 228.5t84 157t158.5 90.5t249 29q72 0 135.5 -6.5t115.5 -16.5q10 -2 14 -6t3 -15l-15 -176q-1 -17 -19 -16q-54 7 -110 9.5t-116 2.5q-86 0 -138.5 -15t-82 -50.5t-39.5 -93.5t-10 -144v-71q0 -87 10 -145t39 -93t82 -49.5t139 -14.5 q62 0 118 3.5t109 9.5q18 1 19 -16l14 -176q1 -11 -2.5 -15.5t-14.5 -6.5q-25 -5 -55.5 -9.5t-63.5 -7.5t-66.5 -5t-65.5 -2q-148 0 -247 27.5t-159 88t-85 157t-25 234.5z" />
<glyph unicode="d" horiz-adv-x="1204" d="M104 467v140q0 137 24 230.5t82 151.5t153.5 83t239.5 25q54 0 110 -6t101 -15v508q0 19 18 20l216 30h2q16 0 16 -16v-1595q0 -19 -18 -20q-110 -15 -218.5 -23t-211.5 -8q-148 0 -246.5 25.5t-158 83.5t-84.5 152.5t-25 233.5zM347 505q0 -90 10.5 -150.5t39.5 -97 t81.5 -51.5t135.5 -15q50 0 104 2.5t96 7.5v662q-19 4 -45 7t-54 4.5t-55.5 2.5t-49.5 1q-82 0 -133 -14.5t-80 -49.5t-39.5 -92.5t-10.5 -143.5v-73z" />
<glyph unicode="e" horiz-adv-x="1165" d="M101 486v101q0 132 26.5 228t85 158.5t151.5 93t227 30.5q133 0 227 -30t152.5 -91.5t85.5 -155.5t27 -223q0 -55 -6.5 -99t-11.5 -64q-2 -8 -6 -11.5t-13 -3.5l-695 -2q5 -69 21.5 -113t48 -69.5t79.5 -35t116 -9.5q90 0 176.5 3t185.5 13q18 1 19 -16l14 -168 q1 -18 -17 -21q-95 -14 -190.5 -21.5t-204.5 -7.5q-135 0 -230 28.5t-154.5 90.5t-86.5 159.5t-27 235.5zM349 605l506 15q-7 72 -23 122t-46 80.5t-77.5 44t-117.5 13.5q-69 0 -115.5 -15t-74 -47.5t-39.5 -85t-13 -127.5z" />
<glyph unicode="f" horiz-adv-x="766" d="M47 884v169q0 18 18 18h163v183q0 103 18 176t63.5 118.5t123.5 66.5t197 21q54 0 106.5 -5.5t87.5 -12.5q11 -2 14.5 -6.5t2.5 -15.5l-15 -176q-3 -17 -20 -16q-30 2 -69 3t-71 1q-62 0 -98.5 -8.5t-56 -27t-25.5 -49t-6 -73.5v-179h237q18 0 17 -18l-16 -195 q-1 -18 -19 -18h-219v-822q0 -18 -18 -18h-216q-18 0 -18 18v822l-163 23q-11 2 -14.5 6.5t-3.5 14.5z" />
<glyph unicode="g" horiz-adv-x="1204" d="M104 471v138q0 136 24.5 229.5t83.5 151t157.5 82.5t246.5 25q51 0 106.5 -2t111.5 -6t110 -9t104 -12q11 -1 14.5 -5t3.5 -15v-1038q0 -149 -36.5 -243.5t-108 -149t-177.5 -75t-246 -20.5q-34 0 -70.5 1.5t-73.5 4.5t-72.5 8t-66.5 11q-11 2 -14.5 6.5t-2.5 15.5 l14 168q1 18 19 15q27 -5 58.5 -8.5t63 -5.5t61.5 -3t54 -1q104 0 171 11.5t106 41.5t54 82t15 133q-41 -10 -93 -16t-118 -6q-142 0 -237.5 25.5t-153.5 83.5t-83 152t-25 230zM347 501q0 -84 10 -141.5t39 -92t81.5 -49.5t137.5 -15q22 0 49 1t54 3t52 5t44 8v653 q-43 4 -96.5 6t-105.5 2q-83 0 -135 -15.5t-81 -51.5t-39 -94.5t-10 -145.5v-73z" />
<glyph unicode="h" horiz-adv-x="1231" d="M139 18v1566q0 19 18 20l216 30h2q16 0 16 -16v-606q65 39 149.5 62t176.5 23q100 0 172 -24t118.5 -79t68.5 -144.5t22 -221.5v-610q0 -18 -18 -18h-216q-18 0 -18 18v568q0 73 -8 124.5t-32 83t-67 46t-113 14.5q-59 0 -122.5 -12.5t-112.5 -36.5v-787q0 -18 -18 -18 h-216q-18 0 -18 18z" />
<glyph unicode="i" horiz-adv-x="543" d="M144 1249v276q0 19 18 20l219 31h2q16 0 16 -16v-311q0 -18 -18 -18h-219q-18 0 -18 18zM146 18v1035q0 18 18 18h216q18 0 18 -18v-1035q0 -18 -18 -18h-216q-18 0 -18 18z" />
<glyph unicode="j" horiz-adv-x="543" d="M-165 -443l26 174q3 18 21 15q26 -3 55.5 -5.5t56.5 -2.5q48 0 77.5 6.5t46 24t22.5 47t6 74.5v1163q0 18 18 18h216q18 0 18 -18v-1163q0 -102 -18 -172.5t-61.5 -114t-116 -62.5t-180.5 -19q-42 0 -89 3.5t-83 10.5q-18 4 -15 21zM144 1249v276q0 19 18 20l219 31h2 q16 0 16 -16v-311q0 -18 -18 -18h-219q-18 0 -18 18z" />
<glyph unicode="k" horiz-adv-x="1169" d="M139 18v1566q0 19 18 20l216 30h2q16 0 16 -16v-912l392 353q12 12 32 12h315q7 0 9 -4.5t-4 -9.5l-423 -366l434 -671q3 -5 3 -10q-1 -2 -1 -4q-2 -6 -11 -6h-293q-11 0 -16.5 3.5t-10.5 11.5l-296 511l-130 -112v-396q0 -18 -18 -18h-216q-18 0 -18 18z" />
<glyph unicode="l" horiz-adv-x="558" d="M153 18v1566q0 19 18 20l216 30h2q16 0 16 -16v-1600q0 -18 -18 -18h-216q-18 0 -18 18z" />
<glyph unicode="m" horiz-adv-x="1773" d="M139 18v1054q0 18 18 18h168q11 0 16 -3.5t9 -13.5l26 -63q57 41 132.5 64t156.5 23q89 0 153.5 -21.5t107.5 -69.5q70 45 150.5 68t168.5 23q108 0 183.5 -27t123 -84t68.5 -146t21 -213v-609q0 -18 -18 -18h-213q-18 0 -18 18v571q0 83 -9.5 135.5t-33.5 82t-64 40.5 t-101 11q-43 0 -90 -10t-90 -33q12 -74 12 -167v-630q0 -18 -18 -18h-210q-18 0 -18 18v596q0 68 -8.5 114t-29 74.5t-56 41t-89.5 12.5q-49 0 -102.5 -12.5t-95.5 -40.5v-785q0 -18 -18 -18h-214q-18 0 -18 18z" />
<glyph unicode="n" horiz-adv-x="1231" d="M139 18v1054q0 18 18 18h168q11 0 16 -3.5t9 -13.5l28 -65q72 41 158.5 65t186.5 24q97 0 167.5 -24.5t116.5 -78.5t68.5 -141t22.5 -212v-623q0 -18 -18 -18h-216q-18 0 -18 18v574q0 70 -9 120t-33 81.5t-66 46t-109 14.5q-58 0 -122.5 -13t-115.5 -37v-786 q0 -18 -18 -18h-216q-18 0 -18 18z" />
<glyph unicode="o" horiz-adv-x="1184" d="M101 485v98q0 135 27 232t85.5 159.5t152 92.5t225.5 30q133 0 227 -30t152.5 -92.5t85.5 -159.5t27 -232v-98q0 -135 -27 -232t-85.5 -159.5t-152.5 -92t-227 -29.5q-132 0 -225.5 29.5t-152 92t-85.5 159.5t-27 232zM349 495q0 -84 11 -142.5t38 -94.5t74 -52t119 -16 t119.5 16t75.5 52.5t39 95t11 143.5v78q0 84 -10.5 142.5t-38 94.5t-75 52t-121.5 16q-73 0 -120 -16t-74 -52t-37.5 -94t-10.5 -143v-80z" />
<glyph unicode="p" horiz-adv-x="1204" d="M139 -435v1483q0 19 18 20q111 14 219.5 21.5t212.5 7.5q147 0 245 -24.5t157.5 -81.5t84.5 -150.5t25 -231.5v-137q0 -139 -24.5 -234.5t-83 -154.5t-155.5 -85t-241 -26q-54 0 -107.5 6t-98.5 16v-429q0 -18 -18 -18h-216q-18 0 -18 18zM391 204q41 -6 92.5 -9.5 t108.5 -3.5q82 0 134 15.5t81 51.5t39.5 95.5t10.5 148.5v72q0 88 -10.5 146.5t-40 93.5t-82.5 49.5t-137 14.5q-22 0 -48.5 -0.5t-53 -2t-51.5 -4t-43 -5.5v-662z" />
<glyph unicode="q" horiz-adv-x="1204" d="M104 465v144q0 138 25 231.5t84.5 150.5t159 81.5t248.5 24.5q51 0 105.5 -2t110 -6t109 -9t102.5 -12q18 -1 18 -20v-1483q0 -18 -18 -18h-215q-18 0 -18 18v429q-45 -10 -98 -16t-107 -6q-145 0 -242 25.5t-155.5 83.5t-83.5 152.5t-25 231.5zM348 502 q0 -89 10.5 -148.5t39.5 -95.5t81 -51.5t135 -15.5q57 0 108 3.5t93 9.5v662q-40 7 -94 9.5t-103 2.5q-84 0 -136.5 -14.5t-82.5 -49.5t-40.5 -93.5t-10.5 -146.5v-72z" />
<glyph unicode="r" d="M139 18v1054q0 18 18 18h168q11 0 16 -3.5t9 -13.5l27 -61q30 25 67.5 41.5t77 26t79 13.5t73.5 4t55 -3q11 -2 14.5 -6.5t2.5 -14.5l-14 -220q-1 -19 -19 -16q-12 1 -24.5 1.5t-28.5 0.5q-78 0 -143 -9.5t-126 -35.5v-776q0 -18 -18 -18h-216q-18 0 -18 18z" />
<glyph unicode="s" horiz-adv-x="1009" d="M90 796q0 91 30 149.5t88 92t144 46.5t198 13q85 0 162.5 -7.5t140.5 -16.5q18 -1 17 -20l-15 -176q-1 -17 -19 -16q-63 7 -132 11.5t-126 4.5q-71 0 -117 -4t-72.5 -13.5t-36.5 -26.5t-10 -44q0 -21 4 -35.5t20 -27.5t47.5 -27t85.5 -32l161 -51q79 -25 132 -52t84 -63 t44 -85.5t13 -119.5q0 -102 -31.5 -165.5t-92 -98.5t-148.5 -47.5t-202 -12.5q-29 0 -69.5 1.5t-86 5.5t-92 9.5t-86.5 13.5q-11 2 -14.5 6.5t-2.5 15.5l13 176q1 18 19 15q46 -6 85.5 -10.5t76 -7t71 -3.5t69.5 -1q69 0 115 4.5t73.5 15.5t39 30t11.5 48q0 22 -5 37.5 t-21.5 29t-47.5 27.5t-84 33l-185 62q-72 24 -119.5 52t-76 65.5t-40.5 86t-12 112.5z" />
<glyph unicode="t" horiz-adv-x="832" d="M37 890v163q0 18 18 18h177v194q0 10 3.5 14.5t14.5 5.5l216 31h2q16 0 16 -16v-229h293q18 0 15 -18l-28 -188q-2 -11 -6.5 -14.5t-14.5 -3.5h-259v-533q0 -39 6 -62.5t20 -35.5t36 -16t55 -4q25 0 58 2t58 5q18 3 19 -15l14 -169q1 -11 -2.5 -15.5t-13.5 -7.5 q-42 -10 -100.5 -17t-118.5 -7q-72 0 -125 13t-88 49t-52.5 100.5t-17.5 166.5v546l-177 23q-18 1 -18 20z" />
<glyph unicode="u" horiz-adv-x="1227" d="M142 453v600q0 18 18 18h215q18 0 18 -18v-585q0 -78 10 -130t36.5 -82.5t73 -43t119.5 -12.5q23 0 49 1t52.5 3.5t51 6t44.5 8.5v834q0 18 18 18h216q18 0 18 -18v-1002q0 -11 -3.5 -15.5t-13.5 -7.5q-40 -11 -92 -21t-109 -17.5t-116.5 -12.5t-114.5 -5q-149 0 -244 25 t-150 82t-75.5 149t-20.5 225z" />
<glyph unicode="v" horiz-adv-x="1092" d="M22 1054q-2 4 -2 7q0 10 14 10h243q11 0 15.5 -3.5t7.5 -13.5l245 -835l247 835q3 10 7.5 13.5t15.5 3.5h243q14 0 14 -10q0 -3 -2 -7l-343 -1037q-4 -10 -8.5 -13.5t-15.5 -3.5h-316q-11 0 -15.5 3.5t-8.5 13.5z" />
<glyph unicode="w" horiz-adv-x="1702" d="M50 1054q-1 3 -1 6q0 11 15 11h234q11 0 15.5 -3.5t6.5 -14.5l151 -734q1 -5 4.5 -25t7 -42.5t6 -40.5t3.5 -18t3.5 10.5t6.5 27.5t9 39t11 46l213 738q3 10 7.5 13.5t15.5 3.5h187q11 0 15.5 -3.5t7.5 -13.5l210 -741q6 -22 11 -43.5t9 -38.5t7 -27.5t4 -10.5t4 18 t6.5 40t6.5 41.5t4 23.5l153 737q2 11 6.5 14.5t15.5 3.5h234q15 0 15 -11q0 -3 -1 -6l-253 -1037q-2 -10 -6.5 -13.5t-15.5 -3.5h-293q-11 0 -15.5 3.5t-8.5 13.5l-183 552q-5 16 -9.5 36t-8.5 37.5t-6 29t-3 11.5t-3 -12t-6 -29.5t-8.5 -37t-10.5 -35.5l-183 -552 q-4 -10 -8.5 -13.5t-15.5 -3.5h-293q-11 0 -15.5 3.5t-6.5 13.5z" />
<glyph unicode="x" horiz-adv-x="1133" d="M39 15l359 522l-359 519q-3 5 -3 9q0 6 11 6h263q11 0 16.5 -3.5t11.5 -11.5l228 -366l229 366q6 8 11.5 11.5t16.5 3.5h263q11 0 11 -6q0 -3 -3 -9l-359 -519l359 -522q3 -5 3 -9q0 -6 -11 -6h-263q-11 0 -16.5 3.5t-11.5 11.5l-229 368l-228 -368q-6 -8 -11.5 -11.5 t-16.5 -3.5h-263q-11 0 -11 6q0 4 3 9z" />
<glyph unicode="y" horiz-adv-x="1069" d="M13 1054q-1 4 -1 7q0 10 13 10h249q11 0 15.5 -3.5t8.5 -13.5l206 -602q9 -27 18.5 -54t17 -51t13 -42.5t8.5 -27.5l200 777q2 10 6.5 13.5t15.5 3.5h249q14 0 14 -11q0 -3 -1 -6l-356 -1136q-37 -116 -77 -192.5t-97.5 -121.5t-139 -63.5t-202.5 -18.5q-32 0 -70 3.5 t-68 10.5q-11 2 -14 6.5t-1 14.5l25 177q3 18 21 15q23 -3 48 -5.5t48 -2.5q72 0 119.5 10t82 38.5t59.5 79t52 131.5q-2 0 -13 6t-29.5 27t-42.5 61t-50 108z" />
<glyph unicode="z" horiz-adv-x="1062" d="M93 18v169q0 13 3.5 21.5t11.5 18.5l537 618h-527q-18 0 -18 18v190q0 18 18 18h825q18 0 18 -18v-159q0 -19 -6 -32t-16 -24l-533 -610h545q18 0 18 -18v-192q0 -18 -18 -18h-840q-18 0 -18 18z" />
<glyph unicode="{" horiz-adv-x="747" d="M71 444v198q0 17 17 24q36 14 58 30.5t34.5 40.5t17 57t4.5 81v239q0 128 19.5 200.5t62.5 108t111.5 44t166.5 8.5h128q18 0 18 -18v-213q0 -18 -18 -18h-127q-32 0 -51 -5t-29 -17t-13 -32t-3 -51v-246q0 -72 -7.5 -121t-25 -84.5t-47 -62t-73.5 -53.5v-22 q44 -27 73.5 -54t47 -62t25 -84t7.5 -119v-249q0 -31 3 -51t13 -32t29 -16.5t51 -4.5h127q18 0 18 -18v-213q0 -18 -18 -18h-127q-99 0 -167.5 8.5t-111.5 44t-62.5 108t-19.5 200.5v239q0 47 -4.5 80.5t-17 57.5t-34.5 40.5t-58 30.5q-17 7 -17 24z" />
<glyph unicode="|" horiz-adv-x="570" d="M152 -371v1828q0 18 18 18h229q18 0 18 -18v-1828q0 -18 -18 -18h-229q-18 0 -18 18z" />
<glyph unicode="}" horiz-adv-x="749" d="M41 -158q0 18 18 18h127q32 0 51 4.5t29 16.5t13 32t3 51v249q0 70 7.5 119t25 84t47 62t73.5 54v22q-44 27 -73.5 53.5t-47 62t-25 84.5t-7.5 121v246q0 31 -3 51t-13 32t-29 17t-51 5h-127q-18 0 -18 18v213q0 18 18 18h128q98 0 166.5 -8.5t111.5 -44t62.5 -108 t19.5 -200.5v-239q0 -48 4.5 -81t17 -57t34.5 -40.5t58 -30.5q17 -7 17 -24v-198q0 -17 -17 -24q-36 -14 -58 -30.5t-34.5 -40.5t-17 -57.5t-4.5 -80.5v-239q0 -128 -19.5 -200.5t-62.5 -108t-111.5 -44t-167.5 -8.5h-127q-18 0 -18 18v213z" />
<glyph unicode="~" horiz-adv-x="1103" d="M124 576v65q0 94 21 149t54 83.5t73.5 36.5t79.5 8q27 0 50 -3t45 -10.5t43.5 -19.5t46.5 -30l63 -45q25 -18 43 -30t32.5 -20t27 -11.5t26.5 -3.5q18 0 31 4.5t22 19.5t14 44t6 79q0 18 18 18h150q18 0 18 -18v-65q0 -93 -21 -148t-54 -84t-73.5 -37.5t-79.5 -8.5 q-27 0 -50 3t-44 10t-43 19t-48 31l-62 45q-24 18 -42.5 30.5t-33 20.5t-27.5 12t-26 4q-18 0 -31.5 -4.5t-22.5 -19.5t-14 -44.5t-6 -79.5q0 -18 -18 -18h-150q-18 0 -18 18z" />
<glyph unicode="&#xa2;" horiz-adv-x="955" d="M89 501v125q0 130 18.5 224.5t63 157.5t119.5 97t189 44v211q0 18 18 18h132q18 0 18 -18v-207q57 -2 108.5 -6.5t93.5 -11.5q10 -2 13.5 -6t1.5 -15l-27 -189q-3 -17 -21 -16q-42 5 -84.5 8t-84.5 5v-732q45 1 86 3t79 8q18 3 21 -15l31 -174q3 -17 -15 -21 q-40 -8 -94 -12t-108 -6v-207q0 -18 -18 -18h-132q-18 0 -18 18v211q-112 9 -187 42t-120 95t-64 157.5t-19 229.5zM335 508q0 -72 5.5 -125t21 -90t44 -59.5t73.5 -32.5v709q-45 -12 -73 -36t-43.5 -61.5t-21.5 -89t-6 -119.5v-96z" />
<glyph unicode="&#xa3;" horiz-adv-x="1142" d="M95 18v214q0 11 3.5 16t13.5 9q35 13 57 29.5t34.5 40.5t17 57t4.5 81v170h-112q-18 0 -18 18v212q0 18 18 18h112v120q0 80 6.5 146t25 118.5t53 91.5t91 65t137 38.5t192.5 12.5h258q18 0 18 -18v-213q0 -18 -18 -18h-257q-82 0 -130 -12t-72.5 -38t-31.5 -67t-7 -99 v-127h418q18 0 15 -18l-36 -212q-2 -11 -6.5 -14.5t-14.5 -3.5h-376v-170q0 -78 -9 -129t-30 -87h593q18 0 18 -18v-213q0 -18 -18 -18h-931q-18 0 -18 18z" />
<glyph unicode="&#xa5;" horiz-adv-x="1346" d="M61 1459q-7 16 10 16h262q11 0 16 -3.5t10 -12.5l314 -669l313 669q5 9 10 12.5t16 3.5h260q17 0 10 -16l-387 -782h265q18 0 15 -18l-24 -131q-2 -11 -6 -14.5t-15 -3.5h-318l-7 -15v-115h355q18 0 15 -18l-23 -131q-2 -11 -6.5 -14.5t-14.5 -3.5h-326v-195 q0 -18 -18 -18h-229q-18 0 -18 18v195h-336q-18 0 -15 18l24 131q2 11 6 14.5t15 3.5h306v115l-8 15h-328q-18 0 -15 18l24 131q2 11 6 14.5t15 3.5h215z" />
<glyph unicode="&#xa8;" d="M66 1249v276q0 10 3.5 14.5t14.5 6.5l213 29q18 3 18 -15v-311q0 -18 -18 -18h-213q-18 0 -18 18zM464 1249v276q0 10 3.5 14.5t14.5 6.5l212 29q18 3 18 -15v-311q0 -18 -18 -18h-212q-18 0 -18 18z" />
<glyph unicode="&#xa9;" horiz-adv-x="1530" d="M95 747q0 166 34.5 298t113.5 224.5t207 141.5t315 49t315 -49t207 -141.5t114 -224.5t35 -298q0 -167 -35 -299.5t-114 -225t-207 -141.5t-315 -49t-315 49t-207 141.5t-113.5 225t-34.5 299.5zM286 747q0 -125 21 -221.5t75 -163t146.5 -101t236.5 -34.5t236.5 34.5 t146.5 101t75 163t21 221.5q0 124 -21 221t-75 163t-146.5 100.5t-236.5 34.5t-236.5 -34.5t-146.5 -100.5t-75 -163t-21 -221zM440 699v93q0 97 19.5 166t62.5 112.5t112.5 63.5t169.5 20q48 0 97.5 -5t87.5 -13q11 -2 14 -6.5t2 -15.5l-21 -180q-1 -19 -20 -16 q-38 3 -73 4.5t-71 1.5q-42 0 -69 -10t-43.5 -29.5t-23 -48.5t-6.5 -68v-41q0 -40 6.5 -70t23 -49.5t43.5 -29.5t69 -10q41 0 75.5 1.5t68.5 5.5q19 1 20 -16l21 -182q3 -17 -16 -21q-36 -8 -86.5 -12.5t-98.5 -4.5q-100 0 -169.5 20t-112.5 63t-62.5 111.5t-19.5 165.5z " />
<glyph unicode="&#xab;" horiz-adv-x="1341" d="M45 534q0 6 7 14l312 369q7 8 13 11t17 3h275q17 0 6 -13l-331 -384l331 -383q11 -13 -6 -13h-275q-11 0 -17 3t-13 11l-312 368q-7 8 -7 14zM604 534q0 6 7 14l312 369q7 8 13 11t17 3h275q17 0 6 -13l-331 -384l331 -383q11 -13 -6 -13h-275q-11 0 -17 3t-13 11 l-312 368q-7 8 -7 14z" />
<glyph unicode="&#xad;" horiz-adv-x="780" d="M136 475v208q0 18 18 18h472q18 0 18 -18v-208q0 -18 -18 -18h-472q-18 0 -18 18z" />
<glyph unicode="&#xae;" horiz-adv-x="1288" d="M101 987q0 136 29.5 243.5t95 182t168.5 113.5t250 39t250.5 -39t169 -113.5t95 -182t29.5 -243.5q0 -137 -29.5 -245t-95 -182.5t-169 -114t-250.5 -39.5t-250 39.5t-168.5 114t-95 182.5t-29.5 245zM268 987q0 -101 17.5 -177t61 -128t115.5 -78t182 -26t182.5 26 t115.5 78t60.5 128t17.5 177q0 100 -17.5 176t-60.5 127.5t-115.5 77.5t-182.5 26t-182 -26t-115.5 -77.5t-61 -127.5t-17.5 -176zM428 696v579q0 18 18 19q45 2 88 3.5t83 1.5q86 0 138.5 -10.5t81.5 -32.5t38.5 -57.5t9.5 -84.5v-35q0 -55 -16 -95.5t-70 -63.5l99 -197 q5 -9 4 -15t-9 -14l-3 -3q-13 -13 -31 -13h-82q-11 0 -16 3.5t-9 13.5l-81 202q-10 -1 -20.5 -1h-21.5h-26.5t-39.5 2v-202q0 -18 -18 -18h-99q-18 0 -18 18zM563 1015q20 -2 44 -2h37q30 0 50 2.5t33 10t18.5 21t5.5 34.5v26q0 38 -25.5 50t-87.5 12q-14 0 -35.5 -0.5 t-39.5 -2.5v-151z" />
<glyph unicode="&#xb4;" d="M164 1282l162 240q6 8 11.5 11.5t16.5 3.5h258q17 0 6 -13l-216 -244q-7 -8 -13 -10.5t-17 -2.5h-200q-17 0 -8 15z" />
<glyph unicode="&#xb8;" d="M204 -373l151 255q5 9 10.5 12.5t16.5 3.5h182q17 0 10 -16l-135 -255q-5 -9 -10 -12.5t-16 -3.5h-200q-18 0 -9 16z" />
<glyph unicode="&#xbb;" horiz-adv-x="1342" d="M108 151l331 383l-331 384q-11 13 6 13h275q11 0 17 -3t13 -11l312 -369q7 -8 7 -14t-7 -14l-312 -368q-7 -8 -13 -11t-17 -3h-275q-17 0 -6 13zM667 151l331 383l-331 384q-11 13 6 13h275q11 0 17 -3t13 -11l312 -369q7 -8 7 -14t-7 -14l-312 -368q-7 -8 -13 -11 t-17 -3h-275q-17 0 -6 13z" />
<glyph unicode="&#xc1;" horiz-adv-x="1343" d="M15 17l467 1441q4 10 8.5 13.5t15.5 3.5h330q11 0 15.5 -3.5t8.5 -13.5l469 -1441q6 -17 -12 -17h-256q-11 0 -15.5 3.5t-7.5 13.5l-87 283h-562l-86 -283q-3 -10 -7.5 -13.5t-15.5 -3.5h-253q-18 0 -12 17zM463 540h415l-208 677zM502 1614l190 204q7 8 13 10.5t17 2.5 h269q8 0 9 -3.5t-5 -8.5l-246 -206q-13 -12 -32 -12h-209q-17 0 -6 13z" />
<glyph unicode="&#xc9;" horiz-adv-x="1202" d="M168 18v1439q0 18 18 18h894q18 0 18 -18v-216q0 -18 -18 -18h-646v-334h519q18 0 18 -18v-215q0 -18 -18 -18h-519v-386h646q18 0 18 -18v-216q0 -18 -18 -18h-894q-18 0 -18 18zM459 1614l190 204q7 8 13 10.5t17 2.5h269q8 0 9 -3.5t-5 -8.5l-246 -206 q-13 -12 -32 -12h-209q-17 0 -6 13z" />
<glyph unicode="&#xcd;" horiz-adv-x="602" d="M54 1614l190 204q7 8 13 10.5t17 2.5h269q8 0 9 -3.5t-5 -8.5l-246 -206q-13 -12 -32 -12h-209q-17 0 -6 13zM168 18v1439q0 18 18 18h230q18 0 18 -18v-1439q0 -18 -18 -18h-230q-18 0 -18 18z" />
<glyph unicode="&#xd3;" horiz-adv-x="1441" d="M113 665v147q0 196 40.5 328.5t118.5 212.5t191 114.5t258 34.5t258.5 -34t190.5 -114.5t117.5 -213.5t40.5 -330v-147q0 -197 -40.5 -329.5t-117.5 -213t-190.5 -114.5t-258.5 -34t-258 34t-191 114.5t-118.5 213.5t-40.5 331zM379 655q0 -120 22 -200.5t65.5 -128.5 t107 -68.5t147.5 -20.5q83 0 147 20.5t107.5 68.5t65.5 128.5t22 200.5v165q0 120 -22 200.5t-65.5 128.5t-107.5 68.5t-147 20.5q-84 0 -147.5 -20t-107 -68t-65.5 -128t-22 -200v-167zM514 1614l190 204q7 8 13 10.5t17 2.5h269q8 0 9 -3.5t-5 -8.5l-246 -206 q-13 -12 -32 -12h-209q-17 0 -6 13z" />
<glyph unicode="&#xda;" horiz-adv-x="1475" d="M156 493v964q0 18 18 18h228q18 0 18 -18v-903q0 -86 16 -147t53 -101t98 -58.5t150 -18.5t150 18.5t99 58t55 101t17 147.5v903q0 18 18 18h227q18 0 18 -18v-964q0 -142 -39.5 -241t-114.5 -161.5t-183.5 -90.5t-246.5 -28t-246.5 28t-182.5 90.5t-113 161.5t-39 241z M541 1614l190 204q7 8 13 10.5t17 2.5h269q8 0 9 -3.5t-5 -8.5l-246 -206q-13 -12 -32 -12h-209q-17 0 -6 13z" />
<glyph unicode="&#xdd;" horiz-adv-x="1227" d="M3 1459q-7 16 10 16h262q11 0 16 -3.5t10 -12.5l314 -669l313 669q5 9 10 12.5t16 3.5h260q17 0 10 -16l-477 -964v-477q0 -18 -18 -18h-229q-18 0 -18 18v477zM441 1614l190 204q7 8 13 10.5t17 2.5h269q8 0 9 -3.5t-5 -8.5l-246 -206q-13 -12 -32 -12h-209q-17 0 -6 13 z" />
<glyph unicode="&#xe1;" horiz-adv-x="1125" d="M73 307q0 68 9.5 119.5t34 89.5t66 64t105 41.5t151 22t204.5 6.5h103v52q0 51 -9.5 85.5t-36 55.5t-73.5 30t-123 9q-72 0 -153.5 -4.5t-156.5 -12.5q-18 -1 -18 16v171q0 11 3.5 15t14.5 6q40 6 85.5 11t90.5 8.5t87 5.5t75 2q103 0 177.5 -10.5t125.5 -32t82 -55.5 t48 -80.5t22.5 -106.5t5.5 -135v-657q0 -11 -3.5 -15t-14.5 -5q-52 -7 -109 -13t-112.5 -10t-105 -6t-85.5 -2q-127 0 -219.5 16t-152.5 54t-89 102.5t-29 162.5zM303 316q0 -48 19.5 -76t53.5 -43t80.5 -19t101.5 -4q49 0 99.5 2.5t88.5 8.5v273h-110q-104 0 -168.5 -5.5 t-101.5 -21.5t-50 -43.5t-13 -71.5zM389 1282l162 240q6 8 11.5 11.5t16.5 3.5h258q17 0 6 -13l-216 -244q-7 -8 -13 -10.5t-17 -2.5h-200q-17 0 -8 15z" />
<glyph unicode="&#xe9;" horiz-adv-x="1165" d="M101 486v101q0 132 26.5 228t85 158.5t151.5 93t227 30.5q133 0 227 -30t152.5 -91.5t85.5 -155.5t27 -223q0 -55 -6.5 -99t-11.5 -64q-2 -8 -6 -11.5t-13 -3.5l-695 -2q5 -69 21.5 -113t48 -69.5t79.5 -35t116 -9.5q90 0 176.5 3t185.5 13q18 1 19 -16l14 -168 q1 -18 -17 -21q-95 -14 -190.5 -21.5t-204.5 -7.5q-135 0 -230 28.5t-154.5 90.5t-86.5 159.5t-27 235.5zM349 605l506 15q-7 72 -23 122t-46 80.5t-77.5 44t-117.5 13.5q-69 0 -115.5 -15t-74 -47.5t-39.5 -85t-13 -127.5zM451 1282l162 240q6 8 11.5 11.5t16.5 3.5h258 q17 0 6 -13l-216 -244q-7 -8 -13 -10.5t-17 -2.5h-200q-17 0 -8 15z" />
<glyph unicode="&#xed;" horiz-adv-x="543" d="M47 1282l162 240q6 8 11.5 11.5t16.5 3.5h258q17 0 6 -13l-216 -244q-7 -8 -13 -10.5t-17 -2.5h-200q-17 0 -8 15zM146 18v1035q0 18 18 18h216q18 0 18 -18v-1035q0 -18 -18 -18h-216q-18 0 -18 18z" />
<glyph unicode="&#xf3;" horiz-adv-x="1184" d="M101 485v98q0 135 27 232t85.5 159.5t152 92.5t225.5 30q133 0 227 -30t152.5 -92.5t85.5 -159.5t27 -232v-98q0 -135 -27 -232t-85.5 -159.5t-152.5 -92t-227 -29.5q-132 0 -225.5 29.5t-152 92t-85.5 159.5t-27 232zM349 495q0 -84 11 -142.5t38 -94.5t74 -52t119 -16 t119.5 16t75.5 52.5t39 95t11 143.5v78q0 84 -10.5 142.5t-38 94.5t-75 52t-121.5 16q-73 0 -120 -16t-74 -52t-37.5 -94t-10.5 -143v-80zM415 1282l162 240q6 8 11.5 11.5t16.5 3.5h258q17 0 6 -13l-216 -244q-7 -8 -13 -10.5t-17 -2.5h-200q-17 0 -8 15z" />
<glyph unicode="&#xfa;" horiz-adv-x="1228" d="M143 453v600q0 18 18 18h215q18 0 18 -18v-585q0 -78 10 -130t36.5 -82.5t73 -43t119.5 -12.5q23 0 49 1t52.5 3.5t51 6t44.5 8.5v834q0 18 18 18h216q18 0 18 -18v-1002q0 -11 -3.5 -15.5t-13.5 -7.5q-40 -11 -92 -21t-109 -17.5t-116.5 -12.5t-114.5 -5q-149 0 -244 25 t-150 82t-75.5 149t-20.5 225zM457 1282l162 240q6 8 11.5 11.5t16.5 3.5h258q17 0 6 -13l-216 -244q-7 -8 -13 -10.5t-17 -2.5h-200q-17 0 -8 15z" />
<glyph unicode="&#xfd;" horiz-adv-x="1069" d="M13 1054q-6 17 12 17h249q11 0 15.5 -3.5t8.5 -13.5l206 -602q9 -27 18.5 -54t17 -51t13 -42.5t8.5 -27.5l200 777q2 10 6.5 13.5t15.5 3.5h249q17 0 13 -17l-356 -1136q-37 -116 -77 -192.5t-97.5 -121.5t-139 -63.5t-202.5 -18.5q-32 0 -70 3.5t-68 10.5q-11 2 -14 6.5 t-1 14.5l25 177q3 18 21 15q23 -3 48 -5.5t48 -2.5q72 0 119.5 10t82 38.5t59.5 79t52 131.5q-2 0 -13 6t-29.5 27t-42.5 61t-50 108zM391 1282l162 240q6 8 11.5 11.5t16.5 3.5h258q17 0 6 -13l-216 -244q-7 -8 -13 -10.5t-17 -2.5h-200q-17 0 -8 15z" />
<glyph unicode="&#x10c;" horiz-adv-x="1197" d="M110 665v147q0 196 43 328.5t124.5 213t200 114.5t268.5 34q51 0 101.5 -3t96.5 -9t87 -14.5t73 -18.5q17 -5 14 -23l-33 -201q-3 -18 -21 -14q-75 15 -153.5 21t-154.5 6q-92 0 -162.5 -20.5t-118.5 -70t-73 -131t-25 -202.5v-167q0 -122 24.5 -204t72.5 -131.5t119 -70 t163 -20.5q87 0 166.5 5.5t153.5 15.5q18 3 21 -15l29 -205q2 -11 -1 -15.5t-13 -7.5q-33 -8 -75 -14.5t-89 -11t-98.5 -7t-103.5 -2.5q-150 0 -268.5 34t-200 114.5t-124.5 213.5t-43 331zM366 1818q-13 13 5 13h204q18 0 30 -13l90 -96h20l91 96q12 13 30 13h203 q18 0 5 -13l-205 -204q-13 -13 -31 -13h-206q-18 0 -31 13z" />
<glyph unicode="&#x10d;" horiz-adv-x="963" d="M102 479v113q0 133 24.5 228.5t84 157t158.5 90.5t249 29q72 0 135.5 -6.5t115.5 -16.5q10 -2 14 -6t3 -15l-15 -176q-1 -17 -19 -16q-54 7 -110 9.5t-116 2.5q-86 0 -138.5 -15t-82 -50.5t-39.5 -93.5t-10 -144v-71q0 -87 10 -145t39 -93t82 -49.5t139 -14.5 q62 0 118 3.5t109 9.5q18 1 19 -16l14 -176q1 -11 -2.5 -15.5t-14.5 -6.5q-25 -5 -55.5 -9.5t-63.5 -7.5t-66.5 -5t-65.5 -2q-148 0 -247 27.5t-159 88t-85 157t-25 234.5zM218 1523q-11 14 7 14h208q11 0 17 -3.5t11 -11.5l83 -122h20l82 122q5 8 11 11.5t17 3.5h209 q18 0 7 -14l-198 -254q-6 -8 -12 -11t-17 -3h-218q-11 0 -17 3t-12 11z" />
<glyph unicode="&#x10e;" horiz-adv-x="1416" d="M167 18v1439q0 18 18 19q40 3 88.5 5.5t96 4t91 2.5t73.5 1q116 0 218.5 -9.5t189 -36.5t155 -75t116 -125.5t73 -187.5t25.5 -260v-113q0 -150 -25.5 -260.5t-73 -188t-116 -126t-155 -76t-189 -37.5t-218.5 -10q-34 0 -76.5 1t-88.5 2.5t-93.5 4t-90.5 6.5 q-18 1 -18 20zM306 1818q-13 13 5 13h204q18 0 30 -13l90 -96h20l91 96q12 13 30 13h203q18 0 5 -13l-205 -204q-13 -13 -31 -13h-206q-18 0 -31 13zM432 229q16 -2 39.5 -3.5t47.5 -2.5t46.5 -1.5t38.5 -0.5q111 0 194 18t137.5 68t82 139t27.5 232v119q0 142 -28.5 230.5 t-85.5 138.5t-142.5 68t-199.5 18q-16 0 -36.5 -0.5t-42 -1t-42 -2t-36.5 -3.5v-1016z" />
<glyph unicode="&#x10f;" horiz-adv-x="1204" d="M104 467v140q0 137 24 230.5t82 151.5t153.5 83t239.5 25q54 0 110 -6t101 -15v508q0 19 18 20l216 30q18 1 18 -16v-1595q0 -19 -18 -20q-110 -15 -218.5 -23t-211.5 -8q-148 0 -246.5 25.5t-158 83.5t-84.5 152.5t-25 233.5zM347 505q0 -90 10.5 -150.5t39.5 -97 t81.5 -51.5t135.5 -15q50 0 104 2.5t96 7.5v662q-19 4 -45 7t-54 4.5t-55.5 2.5t-49.5 1q-82 0 -133 -14.5t-80 -49.5t-39.5 -92.5t-10.5 -143.5v-73zM1174 1186v398q0 19 18 20l206 29q19 1 16 -16l-40 -431q-3 -18 -20 -18h-162q-18 0 -18 18z" />
<glyph unicode="&#x11a;" horiz-adv-x="1202" d="M168 18v1439q0 18 18 18h894q18 0 18 -18v-216q0 -18 -18 -18h-646v-334h519q18 0 18 -18v-215q0 -18 -18 -18h-519v-386h646q18 0 18 -18v-216q0 -18 -18 -18h-894q-18 0 -18 18zM275 1818q-13 13 5 13h204q18 0 30 -13l90 -96h20l91 96q12 13 30 13h203q18 0 5 -13 l-205 -204q-13 -13 -31 -13h-206q-18 0 -31 13z" />
<glyph unicode="&#x11b;" horiz-adv-x="1165" d="M101 486v101q0 132 26.5 228t85 158.5t151.5 93t227 30.5q133 0 227 -30t152.5 -91.5t85.5 -155.5t27 -223q0 -55 -6.5 -99t-11.5 -64q-2 -8 -6 -11.5t-13 -3.5l-695 -2q5 -69 21.5 -113t48 -69.5t79.5 -35t116 -9.5q90 0 176.5 3t185.5 13q18 1 19 -16l14 -168 q1 -18 -17 -21q-95 -14 -190.5 -21.5t-204.5 -7.5q-135 0 -230 28.5t-154.5 90.5t-86.5 159.5t-27 235.5zM261 1523q-11 14 7 14h208q11 0 17 -3.5t11 -11.5l83 -122h20l82 122q5 8 11 11.5t17 3.5h209q18 0 7 -14l-198 -254q-6 -8 -12 -11t-17 -3h-218q-11 0 -17 3t-12 11z M349 605l506 15q-7 72 -23 122t-46 80.5t-77.5 44t-117.5 13.5q-69 0 -115.5 -15t-74 -47.5t-39.5 -85t-13 -127.5z" />
<glyph unicode="&#x147;" horiz-adv-x="1484" d="M168 18v1439q0 18 18 18h257q11 0 16.5 -3.5t10.5 -12.5l526 -895q26 -44 39.5 -73.5t15.5 -29.5l1 996q0 18 18 18h229q18 0 18 -18v-1439q0 -18 -18 -18h-257q-11 0 -16.5 3.5t-10.5 12.5l-523 890q-29 48 -42 78.5t-14 30.5l-2 -997q0 -18 -18 -18h-230q-18 0 -18 18z M404 1818q-13 13 5 13h204q18 0 30 -13l90 -96h20l91 96q12 13 30 13h203q18 0 5 -13l-205 -204q-13 -13 -31 -13h-206q-18 0 -31 13z" />
<glyph unicode="&#x148;" horiz-adv-x="1230" d="M139 18v1054q0 18 18 18h168q11 0 16 -3.5t9 -13.5l28 -65q72 41 158.5 65t186.5 24q97 0 167.5 -24.5t116.5 -78.5t68.5 -141t22.5 -212v-623q0 -18 -18 -18h-216q-18 0 -18 18v574q0 70 -9 120t-33 81.5t-66 46t-109 14.5q-58 0 -122.5 -13t-115.5 -37v-786 q0 -18 -18 -18h-216q-18 0 -18 18zM277 1523q-11 14 7 14h208q11 0 17 -3.5t11 -11.5l83 -122h20l82 122q5 8 11 11.5t17 3.5h209q18 0 7 -14l-198 -254q-6 -8 -12 -11t-17 -3h-218q-11 0 -17 3t-12 11z" />
<glyph unicode="&#x158;" horiz-adv-x="1376" d="M167 18v1439q0 18 18 19q113 8 218 10.5t208 2.5q193 0 320 -17.5t202.5 -64t106 -129t30.5 -211.5v-118q0 -115 -24 -193t-85 -126q-65 -51 -185 -75q14 -21 28.5 -44.5t31.5 -52.5l253 -442q9 -16 -9 -16h-273q-11 0 -16 3.5t-10 12.5l-267 515q-19 -1 -38.5 -1h-39.5 q-49 0 -96 1.5t-107 5.5v-519q0 -18 -18 -18h-230q-18 0 -18 18zM337 1818q-13 13 5 13h204q18 0 30 -13l90 -96h20l91 96q12 13 30 13h203q18 0 5 -13l-205 -204q-13 -13 -31 -13h-206q-18 0 -31 13zM433 774q45 -4 98.5 -5.5t100.5 -1.5q108 0 180 6.5t114.5 28.5t60 64 t17.5 113v64q0 72 -18 114t-61.5 63t-116 26.5t-182.5 5.5q-23 0 -50 -0.5t-53 -1t-49.5 -2t-40.5 -3.5v-471z" />
<glyph unicode="&#x159;" d="M72 1523q-11 14 7 14h208q11 0 17 -3.5t11 -11.5l83 -122h20l82 122q5 8 11 11.5t17 3.5h209q18 0 7 -14l-198 -254q-6 -8 -12 -11t-17 -3h-218q-11 0 -17 3t-12 11zM139 18v1054q0 18 18 18h168q11 0 16 -3.5t9 -13.5l27 -61q30 25 67.5 41.5t77 26t79 13.5t73.5 4 t55 -3q11 -2 14.5 -6.5t2.5 -14.5l-14 -220q-1 -19 -19 -16q-12 1 -24.5 1.5t-28.5 0.5q-78 0 -143 -9.5t-126 -35.5v-776q0 -18 -18 -18h-216q-18 0 -18 18z" />
<glyph unicode="&#x160;" horiz-adv-x="1206" d="M88 1107q0 109 34 184.5t106 122.5t184 67.5t268 20.5q99 0 191.5 -9.5t167.5 -29.5q17 -5 14 -22l-37 -192q-3 -18 -21 -15q-36 5 -75.5 9t-77.5 6.5t-72.5 3.5t-61.5 1q-93 0 -159 -6t-107.5 -22t-60.5 -43.5t-19 -70.5q0 -40 12.5 -67.5t43 -51.5t80.5 -47t125 -54 l182 -77q96 -40 158.5 -81t99 -89.5t51 -107t14.5 -134.5q0 -104 -25 -184.5t-91.5 -135t-182.5 -83t-298 -28.5q-115 0 -219.5 11.5t-182.5 31.5q-17 5 -14 22l38 199q3 18 21 15q52 -8 96 -13.5t84.5 -9t80 -5t83.5 -1.5q112 0 178 10.5t101 32t45.5 55t10.5 78.5 q0 36 -10 62t-39.5 50t-83 51t-140.5 65l-158 72q-99 45 -163.5 90t-102.5 94.5t-53 105t-15 119.5zM267 1818q-13 13 5 13h204q18 0 30 -13l90 -96h20l91 96q12 13 30 13h203q18 0 5 -13l-205 -204q-13 -13 -31 -13h-206q-18 0 -31 13z" />
<glyph unicode="&#x161;" horiz-adv-x="1009" d="M90 796q0 91 30 149.5t88 92t144 46.5t198 13q85 0 162.5 -7.5t140.5 -16.5q18 -1 17 -20l-15 -176q-1 -17 -19 -16q-63 7 -132 11.5t-126 4.5q-71 0 -117 -4t-72.5 -13.5t-36.5 -26.5t-10 -44q0 -21 4 -35.5t20 -27.5t47.5 -27t85.5 -32l161 -51q79 -25 132 -52t84 -63 t44 -85.5t13 -119.5q0 -102 -31.5 -165.5t-92 -98.5t-148.5 -47.5t-202 -12.5q-29 0 -69.5 1.5t-86 5.5t-92 9.5t-86.5 13.5q-11 2 -14.5 6.5t-2.5 15.5l13 176q1 18 19 15q46 -6 85.5 -10.5t76 -7t71 -3.5t69.5 -1q69 0 115 4.5t73.5 15.5t39 30t11.5 48q0 22 -5 37.5 t-21.5 29t-47.5 27.5t-84 33l-185 62q-72 24 -119.5 52t-76 65.5t-40.5 86t-12 112.5zM169 1523q-11 14 7 14h208q11 0 17 -3.5t11 -11.5l83 -122h20l82 122q5 8 11 11.5t17 3.5h209q18 0 7 -14l-198 -254q-6 -8 -12 -11t-17 -3h-218q-11 0 -17 3t-12 11z" />
<glyph unicode="&#x164;" horiz-adv-x="1207" d="M32 1241v216q0 18 18 18h1107q18 0 18 -18v-216q0 -18 -18 -18h-421v-1205q0 -18 -18 -18h-229q-18 0 -18 18v1205h-421q-18 0 -18 18zM264 1818q-13 13 5 13h204q18 0 30 -13l90 -96h20l91 96q12 13 30 13h203q18 0 5 -13l-205 -204q-13 -13 -31 -13h-206q-18 0 -31 13z " />
<glyph unicode="&#x165;" horiz-adv-x="833" d="M37 890v163q0 18 18 18h177v194q0 10 3.5 14.5t14.5 5.5l216 31q18 1 18 -16v-229h293q18 0 15 -18l-28 -188q-2 -11 -6.5 -14.5t-14.5 -3.5h-259v-533q0 -39 6 -62.5t20 -35.5t36 -16t55 -4q25 0 58 2t58 5q18 3 19 -15l14 -169q1 -11 -2.5 -15.5t-13.5 -7.5 q-42 -10 -100.5 -17t-118.5 -7q-72 0 -125 13t-88 49t-52.5 100.5t-17.5 166.5v546l-177 23q-18 1 -18 20zM580 1207v377q0 19 18 20l206 29q17 1 16 -16l-41 -410q-3 -18 -20 -18h-161q-18 0 -18 18z" />
<glyph unicode="&#x16e;" horiz-adv-x="1475" d="M156 493v964q0 18 18 18h228q18 0 18 -18v-903q0 -86 16 -147t53 -101t98 -58.5t150 -18.5t150 18.5t99 58t55 101t17 147.5v903q0 18 18 18h227q18 0 18 -18v-964q0 -142 -39.5 -241t-114.5 -161.5t-183.5 -90.5t-246.5 -28t-246.5 28t-182.5 90.5t-113 161.5t-39 241z M507 1701v14q0 41 13.5 78t42 65t71.5 44.5t103 16.5q59 0 102 -16.5t71.5 -44.5t42.5 -65t14 -78v-14q0 -41 -14 -78t-42.5 -64.5t-71.5 -43.5t-102 -16q-60 0 -103 16t-71.5 43.5t-42 64.5t-13.5 78zM664 1700q0 -26 21.5 -45t58.5 -19q38 0 59.5 19t21.5 45v17 q0 26 -21.5 45.5t-59.5 19.5q-37 0 -58.5 -19.5t-21.5 -45.5v-17z" />
<glyph unicode="&#x16f;" horiz-adv-x="1228" d="M143 453v600q0 18 18 18h215q18 0 18 -18v-585q0 -78 10 -130t36.5 -82.5t73 -43t119.5 -12.5q23 0 49 1t52.5 3.5t51 6t44.5 8.5v834q0 18 18 18h216q18 0 18 -18v-1002q0 -11 -3.5 -15.5t-13.5 -7.5q-40 -11 -92 -21t-109 -17.5t-116.5 -12.5t-114.5 -5q-149 0 -244 25 t-150 82t-75.5 149t-20.5 225zM368 1402q0 97 58 153t186 56q124 0 183.5 -55.5t59.5 -152.5q0 -98 -59.5 -153.5t-183.5 -55.5q-64 0 -110 14.5t-76 41.5t-44 65.5t-14 86.5zM531 1402q0 -44 23.5 -57.5t64.5 -13.5t64 14t23 58t-22.5 57.5t-64.5 13.5q-41 0 -64.5 -14 t-23.5 -58z" />
<glyph unicode="&#x17d;" horiz-adv-x="1230" d="M84 18v199q0 18 11 33l723 989h-690q-18 0 -18 18v200q0 18 18 18h984q18 0 18 -18v-198q0 -18 -11 -33l-721 -989h722q18 0 18 -18v-201q0 -18 -18 -18h-1018q-18 0 -18 18zM272 1818q-13 13 5 13h204q18 0 30 -13l90 -96h20l91 96q12 13 30 13h203q18 0 5 -13 l-205 -204q-13 -13 -31 -13h-206q-18 0 -31 13z" />
<glyph unicode="&#x17e;" horiz-adv-x="1062" d="M93 18v169q0 13 3.5 21.5t11.5 18.5l537 618h-527q-18 0 -18 18v190q0 18 18 18h825q18 0 18 -18v-159q0 -19 -6 -32t-16 -24l-533 -610h545q18 0 18 -18v-192q0 -18 -18 -18h-840q-18 0 -18 18zM200 1523q-11 14 7 14h208q11 0 17 -3.5t11 -11.5l83 -122h20l82 122 q5 8 11 11.5t17 3.5h209q18 0 7 -14l-198 -254q-6 -8 -12 -11t-17 -3h-218q-11 0 -17 3t-12 11z" />
<glyph unicode="&#x2c6;" d="M53 1269l198 254q6 8 12 11t17 3h218q11 0 17 -3t12 -11l198 -254q11 -14 -7 -14h-209q-11 0 -17 3.5t-11 11.5l-82 122h-20l-83 -122q-5 -8 -11 -11.5t-17 -3.5h-208q-18 0 -7 14z" />
<glyph unicode="&#x2da;" d="M155 1402q0 97 58 153t186 56q124 0 183.5 -55.5t59.5 -152.5q0 -98 -59.5 -153.5t-183.5 -55.5q-64 0 -110 14.5t-76 41.5t-44 65.5t-14 86.5zM318 1402q0 -44 23.5 -57.5t64.5 -13.5t64 14t23 58t-22.5 57.5t-64.5 13.5q-41 0 -64.5 -14t-23.5 -58z" />
<glyph unicode="&#x2dc;" d="M26 1328q0 76 18 121.5t46 70t63 32t70 7.5q42 0 74 -9t68 -30l53 -30q40 -23 63.5 -37t43.5 -14q11 0 19.5 3t14.5 13t9 30t4 53q0 18 18 18h142q19 0 20 -18q1 -11 1.5 -26t0.5 -29q0 -75 -17.5 -120.5t-46 -70t-63.5 -32.5t-70 -8q-21 0 -38 2t-33.5 6.5t-33.5 12 t-37 18.5l-52 31q-41 23 -64.5 36.5t-43.5 13.5q-11 0 -19.5 -3t-14.5 -13.5t-9 -30t-4 -53.5q0 -18 -18 -18h-142q-19 0 -20 18q-1 11 -1.5 26.5t-0.5 29.5z" />
<glyph unicode="&#x401;" horiz-adv-x="1205" d="M168 18v1439q0 18 18 18h894q18 0 18 -18v-216q0 -18 -18 -18h-646v-334h519q18 0 18 -18v-215q0 -18 -18 -18h-519v-386h646q18 0 18 -18v-216q0 -18 -18 -18h-894q-18 0 -18 18zM312 1619v207q0 10 3.5 14.5t14.5 6.5l212 29q18 3 18 -15v-242q0 -18 -18 -18h-212 q-18 0 -18 18zM709 1619v207q0 10 3.5 14.5t14.5 6.5l212 29q18 3 18 -15v-242q0 -18 -18 -18h-212q-18 0 -18 18z" />
<glyph unicode="&#x402;" horiz-adv-x="1538" d="M31 1241v216q0 18 18 18h1107q18 0 18 -18v-216q0 -18 -18 -18h-421v-262q66 30 154 48.5t180 18.5q101 0 172.5 -25.5t117.5 -82.5t67 -148.5t21 -223.5v-183q0 -110 -17 -185t-57.5 -121.5t-107.5 -66.5t-168 -20q-33 0 -71 3t-70 11q-17 4 -14 22l26 174q3 18 21 14 q36 -6 73 -6t60.5 8t37 27.5t18 53.5t4.5 86v152q0 73 -9 124t-32.5 83t-65 46t-106.5 14q-27 0 -57.5 -3t-61.5 -8.5t-60.5 -14t-54.5 -19.5v-721q0 -18 -18 -18h-229q-18 0 -18 18v1205h-421q-18 0 -18 18z" />
<glyph unicode="&#x403;" horiz-adv-x="1089" d="M168 18v1439q0 18 18 18h857q18 0 18 -18v-216q0 -18 -18 -18h-610v-1205q0 -18 -18 -18h-229q-18 0 -18 18zM454 1614l190 204q7 8 13 10.5t17 2.5h269q8 0 9 -3.5t-5 -8.5l-246 -206q-13 -12 -32 -12h-209q-17 0 -6 13z" />
<glyph unicode="&#x404;" horiz-adv-x="1177" d="M113 665q0 -198 41 -331t119.5 -213.5t191.5 -114.5t257 -34q54 0 106 3t98 8t83.5 11.5t61.5 12.5q18 3 17 21l-30 207q-1 17 -19 16q-71 -11 -147.5 -16.5t-158.5 -5.5q-85 0 -150 20t-109.5 67t-68 125.5t-25.5 195.5h571q18 0 18 18v216q0 18 -18 18h-569 q6 102 32 170.5t70.5 110t107 59t141.5 17.5q67 0 141.5 -4.5t152.5 -24.5q11 -2 14 2t5 14l35 204q2 10 -2.5 14t-14.5 7q-30 10 -68.5 18t-83 14t-92.5 9t-98 3q-144 0 -257 -34t-191.5 -114.5t-119.5 -213t-41 -328.5v-147z" />
<glyph unicode="&#x405;" horiz-adv-x="1206" d="M88 1107q0 109 34 184.5t106 122.5t184 67.5t268 20.5q99 0 191.5 -9.5t167.5 -29.5q17 -5 14 -22l-37 -192q-3 -18 -21 -15q-36 5 -75.5 9t-77.5 6.5t-72.5 3.5t-61.5 1q-93 0 -159 -6t-107.5 -22t-60.5 -43.5t-19 -70.5q0 -40 12.5 -67.5t43 -51.5t80.5 -47t125 -54 l182 -77q96 -40 158.5 -81t99 -89.5t51 -107t14.5 -134.5q0 -104 -25 -184.5t-91.5 -135t-182.5 -83t-298 -28.5q-115 0 -219.5 11.5t-182.5 31.5q-17 5 -14 22l38 199q3 18 21 15q52 -8 96 -13.5t84.5 -9t80 -5t83.5 -1.5q112 0 178 10.5t101 32t45.5 55t10.5 78.5 q0 36 -10 62t-39.5 50t-83 51t-140.5 65l-158 72q-99 45 -163.5 90t-102.5 94.5t-53 105t-15 119.5z" />
<glyph unicode="&#x406;" horiz-adv-x="602" d="M168 18v1439q0 18 18 18h230q18 0 18 -18v-1439q0 -18 -18 -18h-230q-18 0 -18 18z" />
<glyph unicode="&#x407;" horiz-adv-x="601" d="M-20 1619v207q0 10 3.5 14.5t14.5 6.5l212 29q18 3 18 -15v-242q0 -18 -18 -18h-212q-18 0 -18 18zM168 18v1439q0 18 18 18h230q18 0 18 -18v-1439q0 -18 -18 -18h-230q-18 0 -18 18zM377 1619v207q0 10 3.5 14.5t14.5 6.5l212 29q18 3 18 -15v-242q0 -18 -18 -18h-212 q-18 0 -18 18z" />
<glyph unicode="&#x408;" horiz-adv-x="601" d="M-94 -322l30 202q3 18 21 15q23 -3 43 -3.5t39 -0.5q31 0 55 5t40 19.5t24.5 40.5t8.5 67v1434q0 18 18 18h230q18 0 18 -18v-1457q0 -81 -17 -147t-58 -113.5t-109.5 -73t-170.5 -25.5q-38 0 -80.5 4.5t-76.5 11.5q-18 4 -15 21z" />
<glyph unicode="&#x409;" horiz-adv-x="2018" d="M29 230q-4 18 13 22q46 13 79 40t56 75t37.5 119.5t22 173.5t10 237.5t2.5 310.5v249q0 18 18 18h875q18 0 18 -18v-537q12 1 26 1.5t28.5 1t27 0.5h20.5q180 0 310.5 -14.5t215 -62t125 -137t40.5 -238.5v-39q0 -148 -40 -237t-124 -136.5t-213 -62.5t-307 -15 q-33 0 -76 1t-90 3t-95.5 4.5t-94.5 6.5q-18 1 -18 19v1192h-384q0 -221 -7 -391.5t-24.5 -299t-47.5 -218.5t-76.5 -151.5t-111.5 -97.5t-151 -55q-18 -4 -21 13zM1160 225q18 -2 38 -3t40.5 -1.5t39.5 -1t35 -0.5q104 0 175.5 6t115.5 28t63.5 63.5t19.5 112.5v45 q0 70 -19.5 111.5t-63.5 63.5t-115.5 28t-175.5 6q-13 0 -32.5 -0.5t-41 -1.5t-42.5 -2.5t-37 -2.5v-451z" />
<glyph unicode="&#x40a;" horiz-adv-x="2173" d="M168 18v1439q0 18 18 18h230q18 0 18 -18v-568h615v568q0 17 15 18h3h229h3q1 0 2 -0.5t2 -0.5t5 -2l3 -3l2 -3v-2q0 -1 0.5 -2t0.5 -2v-3v-537q12 1 26.5 1.5t28.5 1t27 0.5h21q120 0 217.5 -6t174.5 -23t133 -48t93 -81t55 -122.5t18 -171.5v-39q0 -148 -40 -237 t-124 -136.5t-213 -62.5t-307 -15q-34 0 -76.5 1t-89.5 3t-96 4.5t-95 6.5q-18 1 -18 19v622h-615v-619q0 -18 -18 -18h-230q-18 0 -18 18zM1314 225q18 -2 38 -3t40.5 -1.5t40 -1t35.5 -0.5q104 0 175.5 6t115.5 28t63.5 63.5t19.5 112.5v45q0 70 -19.5 111.5t-63.5 63.5 t-115.5 28t-175.5 6q-13 0 -32.5 -0.5t-41 -1.5t-43 -2.5t-37.5 -2.5v-451z" />
<glyph unicode="&#x40b;" horiz-adv-x="1537" d="M31 1241v216q0 18 18 18h1107q18 0 18 -18v-216q0 -18 -18 -18h-421v-262q64 31 146.5 49t171.5 18q100 0 172 -24t118.5 -79t68.5 -144.5t22 -221.5v-541q0 -18 -18 -18h-216q-18 0 -18 18v499q0 73 -8 124t-32 83t-67 46t-113 14q-57 0 -118 -11t-109 -33v-722 q0 -18 -18 -18h-229q-18 0 -18 18v1205h-421q-18 0 -18 18z" />
<glyph unicode="&#x40c;" horiz-adv-x="1255" d="M168 18v1439q0 18 18 18h230q18 0 18 -18v-579l484 583q7 8 13 11t17 3h293q18 0 6 -14l-590 -687l590 -760q11 -14 -7 -14h-304q-11 0 -17 3t-12 11l-473 621v-617q0 -18 -18 -18h-230q-18 0 -18 18zM532 1614l190 204q7 8 13 10.5t17 2.5h269q8 0 9 -3.5t-5 -8.5 l-246 -206q-13 -12 -32 -12h-209q-17 0 -6 13z" />
<glyph unicode="&#x40e;" horiz-adv-x="1090" d="M32 1458q-7 17 11 17h249q19 0 24 -17l243 -648q19 -54 26.5 -92t9.5 -48l198 788q2 10 6.5 13.5t15.5 3.5h250q17 0 13 -17l-341 -1089q-37 -118 -75 -194.5t-90.5 -121.5t-126 -63t-181.5 -18q-82 0 -146 22q-10 3 -13 8t-2 15l24 169q3 18 21 15q23 -4 50 -6t48 -2 q55 0 96.5 5t72.5 21t53 44.5t40 76.5zM261 1828q-1 18 17 18h144q11 0 15 -4t6 -14q4 -27 14.5 -44.5t26 -28.5t34 -15.5t38.5 -4.5t39 4.5t34.5 15.5t26 28.5t14.5 44.5q1 18 20 18h145q18 0 17 -18q-3 -62 -17.5 -109t-48 -78t-89.5 -46.5t-141 -15.5t-140.5 15.5 t-89 46.5t-48 78t-17.5 109z" />
<glyph unicode="&#x40f;" horiz-adv-x="1439" d="M168 18v1439q0 18 18 18h230q18 0 18 -18v-1205h573v1205q0 18 18 18h228q18 0 18 -18v-1439q0 -18 -18 -18h-401v-248q0 -18 -18 -18h-228q-18 0 -18 18v248h-402q-18 0 -18 18z" />
<glyph unicode="&#x410;" horiz-adv-x="1343" d="M15 17l467 1441q4 10 8.5 13.5t15.5 3.5h330q11 0 15.5 -3.5t8.5 -13.5l469 -1441q6 -17 -12 -17h-256q-11 0 -15.5 3.5t-7.5 13.5l-87 283h-562l-86 -283q-3 -10 -7.5 -13.5t-15.5 -3.5h-253q-18 0 -12 17zM463 540h415l-208 677z" />
<glyph unicode="&#x411;" horiz-adv-x="1303" d="M167 15v1442q0 18 18 18h854q18 0 18 -18v-216q0 -18 -18 -18h-606v-301q12 0 26 0.5l28 1t26.5 0.5h21.5q166 0 294.5 -15t216.5 -62.5t134 -137t46 -238.5v-39q0 -148 -46 -237t-134 -136.5t-216.5 -62.5t-294.5 -15q-33 0 -75 1t-88 3t-94 4.5t-93 6.5q-18 1 -18 19z M433 225q35 -3 78 -4.5t75 -1.5q104 0 175.5 6t115.5 28t63.5 63.5t19.5 112.5v46q0 70 -19 111.5t-63 63t-115.5 28t-176.5 6.5h-37.5t-41 -0.5t-40 -1t-34.5 -1.5v-456z" />
<glyph unicode="&#x412;" horiz-adv-x="1342" d="M166 15v1442q0 18 18 19q39 3 87 6t99 5t102 3t97 1q165 0 281.5 -16.5t189.5 -57.5t106.5 -112t33.5 -180v-11q0 -100 -39 -168.5t-102 -107.5q46 -21 85 -54t67 -78.5t44 -103.5t16 -130v-41q0 -99 -20 -171t-59.5 -122t-98 -80.5t-134.5 -47.5t-170 -23t-204 -6 q-36 0 -81.5 1t-95.5 3t-102.5 4.5t-101.5 6.5q-18 1 -18 19zM432 225q20 -2 44 -3t48.5 -1.5t48 -1t42.5 -0.5q102 0 172.5 6t114.5 27t63.5 61t19.5 109v32q0 58 -15.5 96t-44 59.5t-69.5 30t-91 8.5h-333v-423zM432 881h286q92 0 143.5 42t51.5 139v14q0 60 -19 95.5 t-56 53.5t-91.5 23.5t-125.5 5.5q-53 0 -97.5 -1t-91.5 -5v-367z" />
<glyph unicode="&#x413;" horiz-adv-x="1089" d="M168 18v1439q0 18 18 18h857q18 0 18 -18v-216q0 -18 -18 -18h-610v-1205q0 -18 -18 -18h-229q-18 0 -18 18z" />
<glyph unicode="&#x414;" horiz-adv-x="1468" d="M25 234q0 18 18 18h69q49 0 83.5 47.5t56.5 158.5t32 294.5t10 455.5v249q0 18 18 18h918q18 0 18 -18v-1205h119q18 0 18 -18v-492q0 -18 -18 -18h-229q-18 0 -18 18v258h-830v-258q0 -18 -18 -18h-229q-18 0 -18 18v492zM391 252h593v973h-428q0 -221 -8 -384.5 t-26.5 -280t-50.5 -191t-80 -117.5z" />
<glyph unicode="&#x415;" horiz-adv-x="1205" d="M168 18v1439q0 18 18 18h894q18 0 18 -18v-216q0 -18 -18 -18h-646v-334h519q18 0 18 -18v-215q0 -18 -18 -18h-519v-386h646q18 0 18 -18v-216q0 -18 -18 -18h-894q-18 0 -18 18z" />
<glyph unicode="&#x416;" horiz-adv-x="1895" d="M8 14l601 750l-601 697q-11 14 6 14h289q11 0 17 -3t13 -11l488 -583v579q0 18 18 18h216q18 0 18 -18v-579l489 583q6 8 12.5 11t17.5 3h288q17 0 6 -14l-600 -697l600 -750q11 -14 -7 -14h-293q-11 0 -17 3t-12 11l-484 621v-617q0 -18 -18 -18h-216q-18 0 -18 18v617 l-482 -621q-6 -8 -12 -11t-17 -3h-295q-18 0 -7 14z" />
<glyph unicode="&#x417;" horiz-adv-x="1154" d="M102 18l13 212q1 17 19 16q88 -9 172.5 -11t160.5 -2q80 0 138 10t96 33t56.5 61t18.5 94v31q0 35 -11 66.5t-39 55.5t-77 38.5t-124 14.5h-335q-18 0 -18 18v216q0 18 18 18h329q78 0 128 15t78.5 40t39.5 55.5t11 62.5v21q0 45 -20.5 75.5t-59.5 49t-96.5 27 t-132.5 8.5q-78 0 -154 -3t-157 -10q-18 -3 -19 16l-14 211q-1 18 17 21q71 10 159 17t186 7q133 0 237 -20t176 -64t109.5 -116t37.5 -175v-27q0 -118 -64 -203t-198 -121q67 -19 116 -53t81.5 -78.5t48.5 -97t16 -107.5v-37q0 -126 -37 -209t-107.5 -132.5t-173.5 -69.5 t-235 -20q-105 0 -201.5 7t-171.5 18q-18 3 -17 21z" />
<glyph unicode="&#x418;" horiz-adv-x="1484" d="M173 18v1439q0 18 18 18h229q18 0 18 -18v-997q1 0 15.5 30.5t43.5 78.5l518 890q5 9 10.5 12.5t16.5 3.5h252q18 0 18 -18v-1439q0 -18 -18 -18h-229q-18 0 -18 18v996q-6 -14 -18.5 -37t-37.5 -66l-521 -895q-9 -16 -27 -16h-252q-18 0 -18 18z" />
<glyph unicode="&#x419;" horiz-adv-x="1484" d="M173 18v1439q0 18 18 18h229q18 0 18 -18v-997q1 0 15.5 30.5t43.5 78.5l518 890q5 9 10.5 12.5t16.5 3.5h252q18 0 18 -18v-1439q0 -18 -18 -18h-229q-18 0 -18 18v996q-6 -14 -18.5 -37t-37.5 -66l-521 -895q-9 -16 -27 -16h-252q-18 0 -18 18zM428 1828q-1 18 17 18 h144q11 0 15 -4t6 -14q4 -27 14.5 -44.5t26 -28.5t34 -15.5t38.5 -4.5t39 4.5t34.5 15.5t26 28.5t14.5 44.5q1 18 20 18h145q18 0 17 -18q-3 -62 -17.5 -109t-48 -78t-89.5 -46.5t-141 -15.5t-140.5 15.5t-89 46.5t-48 78t-17.5 109z" />
<glyph unicode="&#x41a;" horiz-adv-x="1255" d="M168 18v1439q0 18 18 18h230q18 0 18 -18v-579l484 583q7 8 13 11t17 3h293q18 0 6 -14l-590 -687l590 -760q11 -14 -7 -14h-304q-11 0 -17 3t-12 11l-473 621v-617q0 -18 -18 -18h-230q-18 0 -18 18z" />
<glyph unicode="&#x41b;" horiz-adv-x="1331" d="M33 230q-4 18 13 23q46 14 78.5 40.5t55 73.5t36 117.5t21 172t10 237.5t2.5 314v249q0 18 18 18h878q18 0 18 -18v-1439q0 -18 -18 -18h-229q-18 0 -18 18v1205h-383q0 -223 -7 -394.5t-25 -300t-48.5 -219.5t-77 -153t-111 -100t-150.5 -61q-17 -6 -20 12z" />
<glyph unicode="&#x41c;" horiz-adv-x="1696" d="M168 18v1439q0 18 18 18h276q11 0 16.5 -3.5t10.5 -12.5l314 -557q9 -15 17 -31.5t14 -30t10 -23t5 -11.5q0 1 4 10l10 22.5t14 30.5t17 34l313 556q5 9 10.5 12.5t16.5 3.5h277q18 0 18 -18v-1439q0 -18 -18 -18h-230q-18 0 -18 18l-2 1067q-1 0 -3.5 -7t-7 -17.5 t-10.5 -24t-13 -26.5l-273 -510q-5 -9 -10.5 -12.5t-16.5 -3.5h-157q-11 0 -16.5 3.5t-10.5 12.5l-270 501q-8 16 -14.5 31t-11.5 27t-7.5 19t-3.5 7l-2 -1067q0 -18 -18 -18h-230q-18 0 -18 18z" />
<glyph unicode="&#x41d;" horiz-adv-x="1482" d="M168 18v1439q0 18 18 18h230q18 0 18 -18v-568h616v568q0 18 18 18h228q18 0 18 -18v-1439q0 -18 -18 -18h-228q-18 0 -18 18v619h-616v-619q0 -18 -18 -18h-230q-18 0 -18 18z" />
<glyph unicode="&#x41e;" horiz-adv-x="1441" d="M113 665v147q0 196 40.5 328.5t118.5 212.5t191 114.5t258 34.5t258.5 -34t190.5 -114.5t117.5 -213.5t40.5 -330v-147q0 -197 -40.5 -329.5t-117.5 -213t-190.5 -114.5t-258.5 -34t-258 34t-191 114.5t-118.5 213.5t-40.5 331zM379 655q0 -120 22 -200.5t65.5 -128.5 t107 -68.5t147.5 -20.5q83 0 147 20.5t107.5 68.5t65.5 128.5t22 200.5v165q0 120 -22 200.5t-65.5 128.5t-107.5 68.5t-147 20.5q-84 0 -147.5 -20t-107 -68t-65.5 -128t-22 -200v-167z" />
<glyph unicode="&#x41f;" horiz-adv-x="1482" d="M168 18v1439q0 18 18 18h1110q18 0 18 -18v-1439q0 -18 -18 -18h-228q-18 0 -18 18v1205h-616v-1205q0 -18 -18 -18h-230q-18 0 -18 18z" />
<glyph unicode="&#x420;" horiz-adv-x="1332" d="M168 18v1442q0 18 18 19q51 3 108.5 5t113.5 3.5t107.5 2.5t89.5 1q193 0 319 -20t200.5 -69.5t104.5 -134t30 -213.5v-103q0 -130 -30 -214.5t-104.5 -134t-200.5 -69t-319 -19.5q-19 0 -44 0.5l-50 1t-46.5 1t-31.5 1.5v-500q0 -18 -18 -18h-229q-18 0 -18 18zM433 758 q16 -2 39 -3t47.5 -2t48 -1.5t41.5 -0.5q114 0 188 8t117.5 32t60.5 67.5t17 113.5v61q0 70 -17 113.5t-60.5 67.5t-117.5 32t-188 8q-18 0 -41.5 -0.5t-48 -1.5t-47.5 -2.5t-39 -2.5v-489z" />
<glyph unicode="&#x421;" horiz-adv-x="1197" d="M110 665v147q0 196 43 328.5t124.5 213t200 114.5t268.5 34q51 0 101.5 -3t96.5 -9t87 -14.5t73 -18.5q17 -5 14 -23l-33 -201q-3 -18 -21 -14q-75 15 -153.5 21t-154.5 6q-92 0 -162.5 -20.5t-118.5 -70t-73 -131t-25 -202.5v-167q0 -122 24.5 -204t72.5 -131.5t119 -70 t163 -20.5q87 0 166.5 5.5t153.5 15.5q18 3 21 -15l29 -205q2 -11 -1 -15.5t-13 -7.5q-33 -8 -75 -14.5t-89 -11t-98.5 -7t-103.5 -2.5q-150 0 -268.5 34t-200 114.5t-124.5 213.5t-43 331z" />
<glyph unicode="&#x422;" horiz-adv-x="1207" d="M32 1241v216q0 18 18 18h1107q18 0 18 -18v-216q0 -18 -18 -18h-421v-1205q0 -18 -18 -18h-229q-18 0 -18 18v1205h-421q-18 0 -18 18z" />
<glyph unicode="&#x423;" horiz-adv-x="1090" d="M32 1458q-7 17 11 17h249q19 0 24 -17l243 -648q19 -54 26.5 -92t9.5 -48l198 788q2 10 6.5 13.5t15.5 3.5h250q17 0 13 -17l-341 -1089q-37 -118 -75 -194.5t-90.5 -121.5t-126 -63t-181.5 -18q-82 0 -146 22q-10 3 -13 8t-2 15l24 169q3 18 21 15q23 -4 50 -6t48 -2 q55 0 96.5 5t72.5 21t53 44.5t40 76.5z" />
<glyph unicode="&#x424;" horiz-adv-x="1852" d="M96 664v138q0 154 28 254.5t91.5 159t168 82t257.5 23.5q29 0 69.5 -0.5t84.5 -3.5v140q0 18 18 18h228q18 0 18 -18v-140q42 3 82.5 3.5t71.5 0.5q153 0 257 -23.5t168 -82t92 -159t28 -254.5v-138q0 -152 -28 -251t-92 -156.5t-168 -80.5t-257 -23q-18 0 -40 0.5 t-43.5 1t-40.5 1.5t-30 2v-140q0 -18 -18 -18h-228q-18 0 -18 18v140q-12 -1 -31 -2t-40.5 -1.5l-43 -1t-39.5 -0.5q-153 0 -257.5 23t-168 80.5t-91.5 156.5t-28 251zM362 685q0 -92 15.5 -149.5t49 -89.5t85.5 -43.5t125 -11.5q18 0 38.5 0.5t42 1.5t41.5 2.5t36 2.5v679 q-16 2 -36 3.5t-41 2l-42 1t-39 0.5q-73 0 -125 -12t-85.5 -45t-49 -92t-15.5 -154v-96zM1059 398q15 -1 35.5 -2.5t42 -2.5t42.5 -1.5t38 -0.5q70 0 122 11.5t85.5 43.5t50 89.5t16.5 149.5v74q0 102 -14.5 165.5t-47 99t-84.5 48t-128 12.5q-17 0 -38 -0.5t-42.5 -1 t-42 -2t-35.5 -3.5v-679z" />
<glyph unicode="&#x425;" horiz-adv-x="1322" d="M25 15l465 724l-465 721q-11 15 8 15h282q11 0 16.5 -3.5t10.5 -11.5l319 -523l320 523q5 8 10.5 11.5t16.5 3.5h282q18 0 8 -15l-466 -721l466 -724q10 -15 -8 -15h-282q-11 0 -16.5 3.5t-10.5 11.5l-319 533l-320 -533q-5 -8 -10.5 -11.5t-16.5 -3.5h-282q-19 0 -8 15z " />
<glyph unicode="&#x426;" horiz-adv-x="1504" d="M168 18v1439q0 18 18 18h230q18 0 18 -18v-1205h573v1205q0 18 18 18h228q18 0 18 -18v-1205h135q18 0 18 -18v-482q0 -18 -18 -18h-229q-18 0 -18 18v248h-973q-18 0 -18 18z" />
<glyph unicode="&#x427;" horiz-adv-x="1315" d="M86 1007v450q0 18 18 18h230q18 0 18 -18v-403q0 -68 10.5 -118t39.5 -82t80.5 -47.5t133.5 -15.5q33 0 68.5 3t70.5 8t67 12t59 16v627q0 18 18 18h230q18 0 18 -18v-1439q0 -18 -18 -18h-230q-18 0 -18 18v571q-33 -11 -75.5 -19.5t-89 -14.5t-94 -9.5t-90.5 -3.5 q-112 0 -196 24.5t-139.5 80t-83 144t-27.5 216.5z" />
<glyph unicode="&#x428;" horiz-adv-x="2065" d="M168 18v1439q0 18 18 18h230q18 0 18 -18v-1205h466v1205q0 18 18 18h229q18 0 18 -18v-1205h467v1205q0 18 18 18h229q18 0 18 -18v-1439q0 -18 -18 -18h-1693q-18 0 -18 18z" />
<glyph unicode="&#x429;" horiz-adv-x="2137" d="M168 18v1439q0 18 18 18h230q18 0 18 -18v-1205h468v1205q0 18 18 18h228q18 0 18 -18v-1205h469v1205q0 18 18 18h229q18 0 18 -18v-1205h143q18 0 18 -18v-482q0 -18 -18 -18h-229q-18 0 -18 18v248h-1610q-18 0 -18 18z" />
<glyph unicode="&#x42a;" horiz-adv-x="1414" d="M45 1241v216q0 18 18 18h475q18 0 18 -18v-537q12 1 26.5 1.5t28.5 1t27 0.5h21q180 0 310 -14.5t214.5 -62t125 -137t40.5 -238.5v-39q0 -148 -40 -237t-123.5 -136.5t-212.5 -62.5t-307 -15q-34 0 -76.5 1t-89.5 3t-96 4.5t-95 6.5q-18 1 -18 19v1208h-228 q-18 0 -18 18zM556 225q18 -2 38 -3t40.5 -1.5t40 -1t34.5 -0.5q104 0 175.5 6t115.5 28t63.5 63.5t19.5 112.5v45q0 71 -19.5 113t-63.5 63.5t-115.5 28t-175.5 6.5q-13 0 -32.5 -0.5t-41 -1.5t-42.5 -2t-37 -2v-454z" />
<glyph unicode="&#x42b;" horiz-adv-x="1928" d="M167 15v1442q0 18 18 18h229q18 0 18 -18v-537q12 1 26 1.5t28.5 1t27 0.5h20.5q120 0 217.5 -6t174.5 -23t133 -48t93 -81t55 -122.5t18 -171.5v-39q0 -148 -40 -237t-124 -136.5t-213 -62.5t-307 -15q-33 0 -76 1t-90 3t-95.5 4.5t-94.5 6.5q-18 1 -18 19zM432 225 q18 -2 38 -3t40.5 -1.5t39.5 -1t35 -0.5q104 0 175.5 6t115.5 28t63.5 63.5t19.5 112.5v45q0 70 -19.5 111.5t-63.5 63.5t-115.5 28t-175.5 6q-13 0 -32.5 -0.5t-41 -1.5t-42.5 -2.5t-37 -2.5v-451zM1494 18v1439q0 18 18 18h230q18 0 18 -18v-1439q0 -18 -18 -18h-230 q-18 0 -18 18z" />
<glyph unicode="&#x42c;" horiz-adv-x="1290" d="M167 15v1442q0 18 18 18h229q18 0 18 -18v-537q12 1 26 1.5t28.5 1t27 0.5h20.5q120 0 217.5 -6t174.5 -23t133 -48t93 -81t55 -122.5t18 -171.5v-39q0 -148 -40 -237t-124 -136.5t-213 -62.5t-307 -15q-33 0 -76 1t-90 3t-95.5 4.5t-94.5 6.5q-18 1 -18 19zM432 225 q18 -2 38 -3t40.5 -1.5t39.5 -1t35 -0.5q104 0 175.5 6t115.5 28t63.5 63.5t19.5 112.5v45q0 70 -19.5 111.5t-63.5 63.5t-115.5 28t-175.5 6q-13 0 -32.5 -0.5t-41 -1.5t-42.5 -2.5t-37 -2.5v-451z" />
<glyph unicode="&#x42d;" horiz-adv-x="1177" d="M89 28l30 207q1 17 19 16q71 -11 147.5 -16.5t158.5 -5.5q85 0 150 20t109.5 67t68 125.5t25.5 195.5h-571q-18 0 -18 18v216q0 18 18 18h569q-6 102 -32 170.5t-70.5 110t-107 59t-141.5 17.5q-67 0 -141.5 -4.5t-152.5 -24.5q-11 -2 -14 2t-5 14l-35 204q-2 10 2.5 14 t14.5 7q30 10 68.5 18t83 14t92.5 9t98 3q144 0 257 -34t191.5 -114.5t119.5 -213t41 -328.5v-147q0 -198 -41 -331t-119.5 -213.5t-191.5 -114.5t-257 -34q-54 0 -106 3t-98 8t-83.5 11.5t-61.5 12.5q-18 3 -17 21z" />
<glyph unicode="&#x42e;" horiz-adv-x="2074" d="M168 18v1439q0 18 18 18h230q18 0 18 -18v-568h313q8 173 52 290.5t121.5 189t186.5 102.5t247 31q145 0 258.5 -34t190.5 -114.5t117.5 -213.5t40.5 -330v-147q0 -197 -40.5 -329.5t-117.5 -213t-190.5 -114.5t-258.5 -34q-143 0 -254.5 33t-189 110t-119.5 205t-45 317 h-312v-619q0 -18 -18 -18h-230q-18 0 -18 18zM1012 655q0 -120 22 -200.5t65.5 -128.5t107 -68.5t147.5 -20.5q83 0 147 20.5t107.5 68.5t65.5 128.5t22 200.5v165q0 120 -22 200.5t-65.5 128.5t-107.5 68.5t-147 20.5q-84 0 -147.5 -20t-107 -68t-65.5 -128t-22 -200v-167z " />
<glyph unicode="&#x42f;" horiz-adv-x="1376" d="M87 16q-9 -16 9 -16h273q11 0 16 3.5t10 12.5l267 515q19 -1 38.5 -1h39.5q49 0 96 1.5t107 5.5v-519q0 -18 18 -18h230q18 0 18 18v1439q0 18 -18 19q-113 8 -218 10.5t-208 2.5q-193 0 -320 -17.5t-202.5 -64t-106 -129t-30.5 -211.5v-118q0 -115 24 -193t85 -126 q65 -51 185 -75q-14 -21 -28.5 -44.5t-31.5 -52.5zM372 979v64q0 72 18 114t61.5 63t116 26.5t182.5 5.5q23 0 50 -0.5t53 -1t49.5 -2t40.5 -3.5v-471q-45 -4 -98.5 -5.5t-100.5 -1.5q-108 0 -180 6.5t-114.5 28.5t-60 64t-17.5 113z" />
<glyph unicode="&#x430;" horiz-adv-x="1125" d="M73 307q0 68 9.5 119.5t34 89.5t66 64t105 41.5t151 22t204.5 6.5h103v52q0 51 -9.5 85.5t-36 55.5t-73.5 30t-123 9q-72 0 -153.5 -4.5t-156.5 -12.5q-18 -1 -18 16v171q0 11 3.5 15t14.5 6q40 6 85.5 11t90.5 8.5t87 5.5t75 2q103 0 177.5 -10.5t125.5 -32t82 -55.5 t48 -80.5t22.5 -106.5t5.5 -135v-657q0 -11 -3.5 -15t-14.5 -5q-52 -7 -109 -13t-112.5 -10t-105 -6t-85.5 -2q-127 0 -219.5 16t-152.5 54t-89 102.5t-29 162.5zM303 316q0 -48 19.5 -76t53.5 -43t80.5 -19t101.5 -4q49 0 99.5 2.5t88.5 8.5v273h-110q-104 0 -168.5 -5.5 t-101.5 -21.5t-50 -43.5t-13 -71.5z" />
<glyph unicode="&#x431;" horiz-adv-x="1189" d="M125 480v88q0 156 4 272.5t18 202.5t41.5 146.5t74.5 103t117 71.5t170 54q90 22 151.5 40t100 36t56.5 39.5t21 52.5q3 18 20 18h172q18 0 18 -18q-2 -61 -16 -111.5t-53 -92t-108.5 -73.5t-181.5 -56q-94 -21 -164 -40t-118.5 -48t-77.5 -74.5t-41 -120.5q58 49 134 78 t174 29q122 0 207.5 -29.5t139.5 -91.5t79 -158.5t25 -229.5v-88q0 -133 -26 -228.5t-82.5 -157.5t-146.5 -91.5t-218 -29.5q-133 0 -226.5 29.5t-152 91.5t-85 157.5t-26.5 228.5zM376 491q0 -84 11 -142t38 -93.5t73 -51.5t117 -16q69 0 115.5 16.5t74.5 52.5t39.5 94 t11.5 141v66q0 83 -11 140.5t-38.5 93.5t-74 52.5t-117.5 16.5q-69 0 -115 -16t-73.5 -52t-39 -94t-11.5 -141v-67z" />
<glyph unicode="&#x432;" horiz-adv-x="1128" d="M139 18v1035q0 18 18 19q34 2 77 4.5t88 4t90 2.5t85 1q141 0 234.5 -14.5t149.5 -48t79 -87.5t23 -133v-28q0 -20 -5.5 -42.5t-16.5 -45.5t-29 -44.5t-43 -37.5q30 -15 57.5 -36.5t48.5 -52t33.5 -71.5t12.5 -93v-48q0 -104 -33.5 -166t-102.5 -95t-174.5 -43.5 t-249.5 -10.5q-29 0 -67 0.5t-81 2t-88 4t-88 5.5q-18 1 -18 19zM404 222q27 -2 63.5 -2.5t74.5 -0.5q66 0 110.5 3.5t72 14.5t39 31.5t11.5 53.5v30q0 32 -11.5 51.5t-33.5 30t-53.5 14t-71.5 3.5h-201v-229zM404 647h254q36 17 46 44t10 50v20q0 31 -10 49.5t-31.5 28 t-56.5 12t-85 2.5q-32 0 -60.5 -0.5t-66.5 -3.5v-202z" />
<glyph unicode="&#x433;" horiz-adv-x="835" d="M139 18v1035q0 18 18 18h620q18 0 18 -18v-215q0 -18 -18 -18h-373v-802q0 -18 -18 -18h-229q-18 0 -18 18z" />
<glyph unicode="&#x434;" horiz-adv-x="1292" d="M34 233q0 18 18 18h61q53 0 90.5 29.5t61 95.5t34.5 171.5t11 257.5v248q0 18 18 18h737q18 0 18 -18v-802h118q18 0 18 -18v-491q0 -18 -18 -18h-229q-18 0 -18 18v258h-655v-258q0 -18 -18 -18h-229q-18 0 -18 18v491zM452 251h366v572h-246q0 -95 -5 -183t-18.5 -162 t-36.5 -132.5t-60 -94.5z" />
<glyph unicode="&#x435;" horiz-adv-x="1165" d="M101 486v101q0 132 26.5 228t85 158.5t151.5 93t227 30.5q133 0 227 -30t152.5 -91.5t85.5 -155.5t27 -223q0 -55 -6.5 -99t-11.5 -64q-2 -8 -6 -11.5t-13 -3.5l-695 -2q5 -69 21.5 -113t48 -69.5t79.5 -35t116 -9.5q90 0 176.5 3t185.5 13q18 1 19 -16l14 -168 q1 -18 -17 -21q-95 -14 -190.5 -21.5t-204.5 -7.5q-135 0 -230 28.5t-154.5 90.5t-86.5 159.5t-27 235.5zM349 605l506 15q-7 72 -23 122t-46 80.5t-77.5 44t-117.5 13.5q-69 0 -115.5 -15t-74 -47.5t-39.5 -85t-13 -127.5z" />
<glyph unicode="&#x436;" horiz-adv-x="1657" d="M26 1058q-11 13 6 13h285q11 0 17 -3t13 -11l356 -418v414q0 18 18 18h216q18 0 18 -18v-414l355 418q7 8 13 11t17 3h286q17 0 6 -13l-450 -510l446 -534q12 -14 -6 -14h-295q-11 0 -17 3t-12 11l-343 432v-428q0 -18 -18 -18h-216q-18 0 -18 18v427l-343 -431 q-6 -8 -12 -11t-17 -3h-295q-18 0 -6 14l446 534z" />
<glyph unicode="&#x437;" horiz-adv-x="997" d="M100 1052q-2 10 1 14t14 6q26 6 61 10.5t74.5 7.5t83 5t87.5 2q121 0 210.5 -15t148.5 -48.5t88 -86.5t29 -129v-21q0 -89 -50 -151t-159 -83q101 -30 155 -94.5t54 -159.5v-19q0 -95 -29 -156.5t-87.5 -97t-147 -49.5t-207.5 -14q-83 0 -160 4.5t-146 15.5 q-11 2 -14 6.5t-1 14.5l30 174q4 17 21 16q27 -3 59 -5t65.5 -3.5t67 -2.5t62.5 -1q61 0 103 5.5t67 19.5t36 38t11 62v10q0 27 -5.5 49.5t-26.5 39.5t-62 26.5t-112 9.5h-231q-18 0 -18 18v152q0 18 18 18h248q70 0 108 12t56 31t21.5 41.5t3.5 43.5v7q0 30 -9.5 50 t-34.5 32t-69.5 17.5t-113.5 5.5q-68 0 -131 -4t-117 -14q-17 -3 -21 16z" />
<glyph unicode="&#x438;" horiz-adv-x="1209" d="M139 18v1035q0 18 18 18h231q18 0 18 -18v-642l5 11t13 28t19 39.5t25 45.5l310 521q5 8 10.5 11.5t16.5 3.5h247q18 0 18 -18v-1035q0 -18 -18 -18h-231q-18 0 -18 18v642q-1 0 -6.5 -12.5t-14 -31t-19.5 -40t-21 -39.5l-310 -522q-5 -8 -10.5 -11.5t-16.5 -3.5h-248 q-18 0 -18 18z" />
<glyph unicode="&#x439;" horiz-adv-x="1215" d="M142 18v1035q0 18 18 18h231q18 0 18 -18v-642l5 11t13 28t19 39.5t25 45.5l310 521q5 8 10.5 11.5t16.5 3.5h247q18 0 18 -18v-1035q0 -18 -18 -18h-231q-18 0 -18 18v642q-1 0 -6.5 -12.5t-14 -31t-19.5 -40t-21 -39.5l-310 -522q-5 -8 -10.5 -11.5t-16.5 -3.5h-248 q-18 0 -18 18zM314 1518q-1 18 17 18h155q18 0 19 -18q6 -62 32 -85t72 -23t72.5 23t31.5 85q1 18 19 18h156q18 0 17 -18q-3 -63 -17 -113t-47 -85t-89 -53.5t-143 -18.5t-142.5 18.5t-88.5 53.5t-47 85t-17 113z" />
<glyph unicode="&#x43a;" horiz-adv-x="1094" d="M139 18v1035q0 18 18 18h217q18 0 18 -18v-414l353 418q7 8 13 11t17 3h285q17 0 6 -13l-448 -507l447 -537q12 -14 -6 -14h-298q-11 0 -17 3t-12 11l-340 432v-428q0 -18 -18 -18h-217q-18 0 -18 18z" />
<glyph unicode="&#x43b;" horiz-adv-x="1142" d="M31 224q-3 17 15 21q55 11 93 45t61.5 99.5t33.5 167t10 248.5v248q0 18 18 18h723q18 0 18 -18v-1035q0 -18 -18 -18h-216q-18 0 -18 18v786h-245q0 -212 -24 -358t-74.5 -240t-129.5 -143.5t-189 -69.5q-18 -3 -21 15z" />
<glyph unicode="&#x43c;" horiz-adv-x="1464" d="M139 18v1036q0 18 18 18h276q11 0 16.5 -3.5t10.5 -11.5l239 -410q14 -23 22.5 -42.5t10.5 -22.5q1 2 10.5 22t22.5 42l237 410q5 9 10.5 12.5t16.5 3.5h278q18 0 18 -18v-1036q0 -18 -18 -18h-229q-18 0 -18 18v690q-2 -4 -11.5 -26t-20.5 -43l-192 -360 q-5 -9 -10.5 -12.5t-16.5 -3.5h-153q-11 0 -16.5 3.5t-10.5 12.5l-193 360q-11 22 -18.5 39.5t-12.5 29.5l-1 -690q0 -18 -18 -18h-229q-18 0 -18 18z" />
<glyph unicode="&#x43d;" horiz-adv-x="1253" d="M140 18v1035q0 18 18 18h216q18 0 18 -18v-376h469v376q0 18 18 18h216q18 0 18 -18v-1035q0 -18 -18 -18h-216q-18 0 -18 18v392h-469v-392q0 -18 -18 -18h-216q-18 0 -18 18z" />
<glyph unicode="&#x43e;" horiz-adv-x="1184" d="M101 485v98q0 135 27 232t85.5 159.5t152 92.5t225.5 30q133 0 227 -30t152.5 -92.5t85.5 -159.5t27 -232v-98q0 -135 -27 -232t-85.5 -159.5t-152.5 -92t-227 -29.5q-132 0 -225.5 29.5t-152 92t-85.5 159.5t-27 232zM349 495q0 -84 11 -142.5t38 -94.5t74 -52t119 -16 t119.5 16t75.5 52.5t39 95t11 143.5v78q0 84 -10.5 142.5t-38 94.5t-75 52t-121.5 16q-73 0 -120 -16t-74 -52t-37.5 -94t-10.5 -143v-80z" />
<glyph unicode="&#x43f;" horiz-adv-x="1228" d="M139 18v1035q0 18 18 18h913q18 0 18 -18v-1035q0 -18 -18 -18h-229q-18 0 -18 18v786h-419v-786q0 -18 -18 -18h-229q-18 0 -18 18z" />
<glyph unicode="&#x440;" horiz-adv-x="1204" d="M139 -435v1483q0 19 18 20q111 14 219.5 21.5t212.5 7.5q147 0 245 -24.5t157.5 -81.5t84.5 -150.5t25 -231.5v-137q0 -139 -24.5 -234.5t-83 -154.5t-155.5 -85t-241 -26q-54 0 -107.5 6t-98.5 16v-429q0 -18 -18 -18h-216q-18 0 -18 18zM391 204q41 -6 92.5 -9.5 t108.5 -3.5q82 0 134 15.5t81 51.5t39.5 95.5t10.5 148.5v72q0 88 -10.5 146.5t-40 93.5t-82.5 49.5t-137 14.5q-22 0 -48.5 -0.5t-53 -2t-51.5 -4t-43 -5.5v-662z" />
<glyph unicode="&#x441;" horiz-adv-x="963" d="M102 479v113q0 133 24.5 228.5t84 157t158.5 90.5t249 29q72 0 135.5 -6.5t115.5 -16.5q10 -2 14 -6t3 -15l-15 -176q-1 -17 -19 -16q-54 7 -110 9.5t-116 2.5q-86 0 -138.5 -15t-82 -50.5t-39.5 -93.5t-10 -144v-71q0 -87 10 -145t39 -93t82 -49.5t139 -14.5 q62 0 118 3.5t109 9.5q18 1 19 -16l14 -176q1 -11 -2.5 -15.5t-14.5 -6.5q-25 -5 -55.5 -9.5t-63.5 -7.5t-66.5 -5t-65.5 -2q-148 0 -247 27.5t-159 88t-85 157t-25 234.5z" />
<glyph unicode="&#x442;" horiz-adv-x="961" d="M44 838v215q0 18 18 18h837q18 0 18 -18v-215q0 -18 -18 -18h-286v-802q0 -18 -18 -18h-229q-18 0 -18 18v802h-286q-18 0 -18 18z" />
<glyph unicode="&#x443;" horiz-adv-x="1069" d="M13 1054q-6 17 12 17h249q11 0 15.5 -3.5t8.5 -13.5l206 -602q9 -27 18.5 -54t17 -51t13 -42.5t8.5 -27.5l200 777q2 10 6.5 13.5t15.5 3.5h249q17 0 13 -17l-356 -1136q-37 -116 -77 -192.5t-97.5 -121.5t-139 -63.5t-202.5 -18.5q-32 0 -70 3.5t-68 10.5q-11 2 -14 6.5 t-1 14.5l25 177q3 18 21 15q23 -3 48 -5.5t48 -2.5q72 0 119.5 10t82 38.5t59.5 79t52 131.5q-2 0 -13 6t-29.5 27t-42.5 61t-50 108z" />
<glyph unicode="&#x444;" horiz-adv-x="1808" d="M105 467v139q0 139 24 233.5t81 152t151.5 82t235.5 24.5q43 0 89 -5.5t92 -15.5v507q0 19 18 20l216 30q18 1 18 -16v-541q42 9 90 15t92 6q141 0 235.5 -24.5t151.5 -82t81 -152t24 -233.5v-139q0 -138 -23.5 -232.5t-80 -153t-149.5 -84t-231 -25.5q-50 0 -99 5.5 t-91 15.5v-428q0 -18 -18 -18h-216q-18 0 -18 18v427q-47 -9 -95 -14.5t-94 -5.5q-138 0 -231 25.5t-149.5 84t-80 153t-23.5 232.5zM347 497q0 -87 9.5 -145t36 -93t74.5 -50t125 -15q50 0 92.5 2.5t93.5 13.5v654q-46 11 -89 14.5t-97 3.5q-76 0 -124 -15t-75 -51 t-36.5 -95.5t-9.5 -148.5v-75zM1030 210q47 -10 90 -13t97 -3q76 0 124 15t74 50t35.5 93t9.5 145v75q0 89 -9.5 148.5t-36.5 95.5t-74.5 51t-123.5 15q-54 0 -97 -3.5t-89 -14.5v-654z" />
<glyph unicode="&#x445;" horiz-adv-x="1133" d="M39 15l359 522l-359 519q-9 15 8 15h263q11 0 16.5 -3.5t11.5 -11.5l228 -366l229 366q6 8 11.5 11.5t16.5 3.5h263q17 0 8 -15l-359 -519l359 -522q9 -15 -8 -15h-263q-11 0 -16.5 3.5t-11.5 11.5l-229 368l-228 -368q-6 -8 -11.5 -11.5t-16.5 -3.5h-263q-17 0 -8 15z " />
<glyph unicode="&#x446;" horiz-adv-x="1299" d="M139 18v1035q0 18 18 18h229q18 0 18 -18v-786h419v786q0 18 18 18h229q18 0 18 -18v-786h118q18 0 18 -18v-507q0 -18 -18 -18h-229q-18 0 -18 18v258h-802q-18 0 -18 18z" />
<glyph unicode="&#x447;" horiz-adv-x="1157" d="M78 812v241q0 18 18 18h216q18 0 18 -18v-192q0 -80 8 -134.5t31 -87.5t64.5 -47t108.5 -14q57 0 117 11.5t108 30.5v433q0 18 18 18h215q18 0 18 -18v-1035q0 -18 -18 -18h-215q-18 0 -18 18v370q-60 -27 -140 -43.5t-168 -16.5q-100 0 -172 23.5t-118.5 80t-68.5 149.5 t-22 231z" />
<glyph unicode="&#x448;" horiz-adv-x="1829" d="M139 18v1035q0 18 18 18h229q18 0 18 -18v-786h378v786q0 18 18 18h228q18 0 18 -18v-786h378v786q0 18 18 18h229q18 0 18 -18v-1035q0 -18 -18 -18h-1514q-18 0 -18 18z" />
<glyph unicode="&#x449;" horiz-adv-x="1901" d="M139 18v1035q0 18 18 18h229q18 0 18 -18v-786h378v786q0 18 18 18h228q18 0 18 -18v-786h378v786q0 18 18 18h229q18 0 18 -18v-786h119q18 0 18 -18v-507q0 -18 -18 -18h-229q-18 0 -18 18v258h-1404q-18 0 -18 18z" />
<glyph unicode="&#x44a;" horiz-adv-x="1212" d="M49 838v215q0 18 18 18h406q18 0 18 -18v-323q47 6 97.5 10t116.5 4q120 0 202.5 -17t134 -57t74.5 -104.5t23 -158.5v-100q0 -93 -23.5 -156.5t-79 -103.5t-147.5 -57.5t-229 -17.5q-96 0 -198.5 7t-205.5 19q-18 1 -18 20v802h-171q-18 0 -18 18zM491 190 q42 -3 86.5 -4.5t86.5 -1.5q72 0 117 8t70.5 26t35 47.5t9.5 73.5v38q0 41 -9 69t-34 44.5t-70.5 23.5t-117.5 7q-48 0 -89.5 -1.5t-84.5 -5.5v-324z" />
<glyph unicode="&#x44b;" horiz-adv-x="1655" d="M138 18v1035q0 18 18 18h217q18 0 18 -18v-323q47 6 97.5 10t116.5 4q120 0 202.5 -17t134 -57t74.5 -104.5t23 -158.5v-100q0 -93 -23.5 -156.5t-79 -103.5t-147.5 -57.5t-229 -17.5q-96 0 -198.5 7t-205.5 19q-18 1 -18 20zM391 190q42 -3 86.5 -4.5t86.5 -1.5 q72 0 117 8t70.5 26t35 47.5t9.5 73.5v38q0 41 -9 69t-34 44.5t-70.5 23.5t-117.5 7q-48 0 -89.5 -1.5t-84.5 -5.5v-324zM1265 18v1035q0 18 18 18h215q18 0 18 -18v-1035q0 -18 -18 -18h-215q-18 0 -18 18z" />
<glyph unicode="&#x44c;" horiz-adv-x="1112" d="M138 18v1035q0 18 18 18h217q18 0 18 -18v-323q47 6 97.5 10t116.5 4q120 0 202.5 -17t134 -57t74.5 -104.5t23 -158.5v-100q0 -93 -23.5 -156.5t-79 -103.5t-147.5 -57.5t-229 -17.5q-96 0 -198.5 7t-205.5 19q-18 1 -18 20zM391 190q42 -3 86.5 -4.5t86.5 -1.5 q72 0 117 8t70.5 26t35 47.5t9.5 73.5v38q0 41 -9 69t-34 44.5t-70.5 23.5t-117.5 7q-48 0 -89.5 -1.5t-84.5 -5.5v-324z" />
<glyph unicode="&#x44d;" horiz-adv-x="989" d="M84 12l30 174q3 17 21 16q53 -7 109 -9.5t122 -2.5q81 0 133 13t82 44t42 81t14 124h-467q-18 0 -18 18v152q0 18 18 18h466q-3 68 -16.5 114t-44 74t-81.5 40t-128 12q-64 0 -120 -2.5t-110 -9.5q-18 -1 -21 16l-31 174q-3 17 15 20q54 9 126.5 14t148.5 5 q148 0 246.5 -26.5t157.5 -86.5t83.5 -155.5t24.5 -233.5v-120q0 -138 -24.5 -234t-84 -155.5t-158 -86.5t-245.5 -27q-34 0 -71 1.5t-74 3.5t-70.5 5.5t-59.5 8.5q-18 4 -15 21z" />
<glyph unicode="&#x44e;" horiz-adv-x="1753" d="M139 18v1035q0 18 18 18h229q18 0 18 -18v-363h271q10 106 43 183t92 126.5t145.5 73.5t205.5 24q133 0 227 -30t152.5 -92.5t85.5 -159.5t27 -232v-98q0 -135 -27 -232t-85.5 -159.5t-152.5 -92t-227 -29.5q-125 0 -215 26t-149 81.5t-89 141t-36 204.5h-268v-407 q0 -18 -18 -18h-229q-18 0 -18 18zM919 495q0 -84 11 -142.5t38 -94.5t74 -52t119 -16t119.5 16t75.5 52.5t39 95t11 143.5v78q0 84 -10.5 142.5t-38 94.5t-75 52t-121.5 16q-73 0 -120 -16t-74 -52t-37.5 -94t-10.5 -143v-80z" />
<glyph unicode="&#x44f;" horiz-adv-x="1143" d="M68 16l207 383q-48 17 -79.5 43t-50 62t-26.5 82.5t-8 105.5v64q0 91 21.5 154t78.5 101.5t156.5 55.5t255.5 17q87 0 178.5 -3.5t184.5 -8.5q18 -1 18 -19v-1035q0 -18 -18 -18h-230q-18 0 -18 18v347q-39 -4 -67.5 -4.5t-57.5 -0.5h-45t-42 1l-161 -345 q-5 -9 -10 -12.5t-16 -3.5h-262q-18 0 -9 16zM380 709q0 -41 8.5 -66t34 -38.5t70.5 -17.5t119 -4q28 0 64 1.5t62 3.5v268q-24 2 -58 3t-62 1q-75 0 -121.5 -5t-72.5 -18.5t-35 -38t-9 -64.5v-25z" />
<glyph unicode="&#x451;" horiz-adv-x="1165" d="M101 486v101q0 132 26.5 228t85 158.5t151.5 93t227 30.5q133 0 227 -30t152.5 -91.5t85.5 -155.5t27 -223q0 -55 -6.5 -99t-11.5 -64q-2 -8 -6 -11.5t-13 -3.5l-695 -2q5 -69 21.5 -113t48 -69.5t79.5 -35t116 -9.5q90 0 176.5 3t185.5 13q18 1 19 -16l14 -168 q1 -18 -17 -21q-95 -14 -190.5 -21.5t-204.5 -7.5q-135 0 -230 28.5t-154.5 90.5t-86.5 159.5t-27 235.5zM265 1249v276q0 10 3.5 14.5t14.5 6.5l213 29q18 3 18 -15v-311q0 -18 -18 -18h-213q-18 0 -18 18zM349 605l506 15q-7 72 -23 122t-46 80.5t-77.5 44t-117.5 13.5 q-69 0 -115.5 -15t-74 -47.5t-39.5 -85t-13 -127.5zM663 1249v276q0 10 3.5 14.5t14.5 6.5l212 29q18 3 18 -15v-311q0 -18 -18 -18h-212q-18 0 -18 18z" />
<glyph unicode="&#x452;" horiz-adv-x="1232" d="M4 1260v151q0 18 18 18h118v155q0 19 18 20l216 30q18 1 18 -16v-189h285q18 0 18 -18v-151q0 -18 -18 -18h-285v-230q66 39 150.5 62t176.5 23q100 0 172 -24t118 -79t68 -144.5t22 -221.5v-710q0 -111 -18 -186.5t-60.5 -122t-114 -67t-177.5 -20.5q-41 0 -87 4.5 t-81 12.5q-11 2 -14 6.5t-1 14.5l25 173q3 18 21 15q25 -4 54 -6.5t56 -2.5q45 0 73.5 8t44.5 28.5t21.5 55t5.5 87.5v670q0 73 -8 123.5t-31.5 82t-66.5 46t-113 14.5q-60 0 -123.5 -12.5t-112.5 -36.5v-787q0 -18 -18 -18h-216q-18 0 -18 18v1224h-118q-18 0 -18 18z" />
<glyph unicode="&#x453;" horiz-adv-x="835" d="M139 18v1035q0 18 18 18h620q18 0 18 -18v-215q0 -18 -18 -18h-373v-802q0 -18 -18 -18h-229q-18 0 -18 18zM332 1282l162 240q6 8 11.5 11.5t16.5 3.5h258q17 0 6 -13l-216 -244q-7 -8 -13 -10.5t-17 -2.5h-200q-17 0 -8 15z" />
<glyph unicode="&#x454;" horiz-adv-x="989" d="M103 475q0 -138 24.5 -234t84 -155.5t158 -86.5t245.5 -27q34 0 71 1.5t74 3.5t70.5 5.5t59.5 8.5q18 4 15 21l-30 174q-3 17 -21 16q-53 -7 -109 -9.5t-122 -2.5q-81 0 -133 13t-82 44t-42 81t-14 124h467q18 0 18 18v152q0 18 -18 18h-466q3 68 16.5 114t44 74t81.5 40 t128 12q64 0 120 -2.5t110 -9.5q18 -1 21 16l31 174q3 17 -15 20q-54 9 -126.5 14t-148.5 5q-148 0 -246.5 -26.5t-157.5 -86.5t-83.5 -155.5t-24.5 -233.5v-120z" />
<glyph unicode="&#x455;" horiz-adv-x="1009" d="M90 796q0 91 30 149.5t88 92t144 46.5t198 13q85 0 162.5 -7.5t140.5 -16.5q18 -1 17 -20l-15 -176q-1 -17 -19 -16q-63 7 -132 11.5t-126 4.5q-71 0 -117 -4t-72.5 -13.5t-36.5 -26.5t-10 -44q0 -21 4 -35.5t20 -27.5t47.5 -27t85.5 -32l161 -51q79 -25 132 -52t84 -63 t44 -85.5t13 -119.5q0 -102 -31.5 -165.5t-92 -98.5t-148.5 -47.5t-202 -12.5q-29 0 -69.5 1.5t-86 5.5t-92 9.5t-86.5 13.5q-11 2 -14.5 6.5t-2.5 15.5l13 176q1 18 19 15q46 -6 85.5 -10.5t76 -7t71 -3.5t69.5 -1q69 0 115 4.5t73.5 15.5t39 30t11.5 48q0 22 -5 37.5 t-21.5 29t-47.5 27.5t-84 33l-185 62q-72 24 -119.5 52t-76 65.5t-40.5 86t-12 112.5z" />
<glyph unicode="&#x456;" horiz-adv-x="530" d="M138 1249v276q0 19 18 20l219 31q18 1 18 -16v-311q0 -18 -18 -18h-219q-18 0 -18 18zM140 18v1035q0 18 18 18h216q18 0 18 -18v-1035q0 -18 -18 -18h-216q-18 0 -18 18z" />
<glyph unicode="&#x457;" horiz-adv-x="530" d="M-57 1249v276q0 10 3.5 14.5t14.5 6.5l213 29q18 3 18 -15v-311q0 -18 -18 -18h-213q-18 0 -18 18zM140 18v1035q0 18 18 18h216q18 0 18 -18v-1035q0 -18 -18 -18h-216q-18 0 -18 18zM341 1249v276q0 10 3.5 14.5t14.5 6.5l212 29q18 3 18 -15v-311q0 -18 -18 -18h-212 q-18 0 -18 18z" />
<glyph unicode="&#x458;" horiz-adv-x="530" d="M-171 -443l26 174q3 18 21 15q26 -3 55.5 -5.5t56.5 -2.5q48 0 77.5 6.5t46 24t22.5 47t6 74.5v1163q0 18 18 18h216q18 0 18 -18v-1163q0 -102 -18 -172.5t-61.5 -114t-116 -62.5t-180.5 -19q-42 0 -89 3.5t-83 10.5q-18 4 -15 21zM138 1249v276q0 19 18 20l219 31 q18 1 18 -16v-311q0 -18 -18 -18h-219q-18 0 -18 18z" />
<glyph unicode="&#x459;" horiz-adv-x="1724" d="M31 224q-3 17 15 21q61 12 100 49.5t60.5 112t29.5 192t8 289.5v165q0 18 18 18h723q18 0 18 -18v-323q47 6 98 10t117 4q112 0 191.5 -15.5t131 -51t77 -93t29.5 -141.5q2 -18 3 -37.5t1 -40.5v-58q0 -93 -23.5 -156.5t-79 -103.5t-147 -57.5t-228.5 -17.5 q-96 0 -198.5 7t-205.5 19q-18 1 -18 20v786h-245q0 -212 -24 -358t-74.5 -240t-129.5 -143.5t-189 -69.5q-18 -3 -21 15zM1003 190q42 -3 87 -4.5t87 -1.5q72 0 117 8t70.5 26t34.5 47.5t9 73.5v38q0 44 -10 72t-38 44t-78.5 22t-132.5 6q-35 0 -72.5 -1.5t-73.5 -5.5v-324 z" />
<glyph unicode="&#x45a;" horiz-adv-x="1833" d="M140 18v1035q0 18 18 18h216q18 0 18 -18v-379h469v379q0 18 18 18h216q18 0 18 -18v-323q47 6 98 10t117 4q111 0 190.5 -15.5t131 -51t77.5 -93t30 -141.5q2 -18 3 -37.5t1 -40.5v-58q0 -93 -23.5 -156.5t-79 -103.5t-147.5 -57.5t-229 -17.5q-95 0 -197.5 7t-205.5 19 q-18 1 -18 20v392h-469v-392q0 -18 -18 -18h-216q-18 0 -18 18zM1113 190q42 -3 86.5 -4.5t87.5 -1.5q72 0 117 8t70.5 26t34.5 47.5t9 73.5v38q0 44 -10 72t-38 44t-78.5 22t-132.5 6q-36 0 -73 -1.5t-73 -5.5v-324z" />
<glyph unicode="&#x45b;" horiz-adv-x="1232" d="M9 1260v151q0 18 18 18h113v155q0 19 18 20l216 30q18 1 18 -16v-189h291q18 0 18 -18v-151q0 -18 -18 -18h-291v-230q65 39 149.5 62t176.5 23q100 0 172 -24t118.5 -79t68.5 -144.5t22 -221.5v-610q0 -18 -18 -18h-216q-18 0 -18 18v568q0 73 -8 124.5t-32 83t-67 46 t-113 14.5q-59 0 -122.5 -12.5t-112.5 -36.5v-787q0 -18 -18 -18h-216q-18 0 -18 18v1224h-113q-18 0 -18 18z" />
<glyph unicode="&#x45c;" horiz-adv-x="1094" d="M139 18v1035q0 18 18 18h217q18 0 18 -18v-414l353 418q7 8 13 11t17 3h285q17 0 6 -13l-448 -507l447 -537q12 -14 -6 -14h-298q-11 0 -17 3t-12 11l-340 432v-428q0 -18 -18 -18h-217q-18 0 -18 18zM436 1282l162 240q6 8 11.5 11.5t16.5 3.5h258q17 0 6 -13l-216 -244 q-7 -8 -13 -10.5t-17 -2.5h-200q-17 0 -8 15z" />
<glyph unicode="&#x45e;" horiz-adv-x="1069" d="M13 1054q-6 17 12 17h249q11 0 15.5 -3.5t8.5 -13.5l206 -602q9 -27 18.5 -54t17 -51t13 -42.5t8.5 -27.5l200 777q2 10 6.5 13.5t15.5 3.5h249q17 0 13 -17l-356 -1136q-37 -116 -77 -192.5t-97.5 -121.5t-139 -63.5t-202.5 -18.5q-32 0 -70 3.5t-68 10.5q-11 2 -14 6.5 t-1 14.5l25 177q3 18 21 15q23 -3 48 -5.5t48 -2.5q72 0 119.5 10t82 38.5t59.5 79t52 131.5q-2 0 -13 6t-29.5 27t-42.5 61t-50 108zM240 1518q-1 18 17 18h155q18 0 19 -18q6 -62 32 -85t72 -23t72.5 23t31.5 85q1 18 19 18h156q18 0 17 -18q-3 -63 -17 -113t-47 -85 t-89 -53.5t-143 -18.5t-142.5 18.5t-88.5 53.5t-47 85t-17 113z" />
<glyph unicode="&#x45f;" horiz-adv-x="1202" d="M139 18v1035q0 18 18 18h217q18 0 18 -18v-786h418v786q0 18 18 18h217q18 0 18 -18v-1035q0 -18 -18 -18h-318v-258q0 -18 -18 -18h-216q-18 0 -18 18v258h-318q-18 0 -18 18z" />
<glyph unicode="&#x490;" horiz-adv-x="1091" d="M168 18v1439q0 18 18 18h610v186q0 18 18 18h229q18 0 18 -18v-201v-3v-63v-4v-149q0 -18 -18 -18h-610v-1205q0 -18 -18 -18h-229q-18 0 -18 18z" />
<glyph unicode="&#x491;" horiz-adv-x="835" d="M139 18v1035q0 18 18 18h372v172q0 18 18 18h230q18 0 18 -18v-187v-3v-57v-4v-154q0 -18 -18 -18h-373v-802q0 -18 -18 -18h-229q-18 0 -18 18z" />
<glyph unicode="&#x2000;" horiz-adv-x="959" />
<glyph unicode="&#x2001;" horiz-adv-x="1919" />
<glyph unicode="&#x2002;" horiz-adv-x="959" />
<glyph unicode="&#x2003;" horiz-adv-x="1919" />
<glyph unicode="&#x2004;" horiz-adv-x="639" />
<glyph unicode="&#x2005;" horiz-adv-x="479" />
<glyph unicode="&#x2006;" horiz-adv-x="319" />
<glyph unicode="&#x2007;" horiz-adv-x="319" />
<glyph unicode="&#x2008;" horiz-adv-x="239" />
<glyph unicode="&#x2009;" horiz-adv-x="383" />
<glyph unicode="&#x200a;" horiz-adv-x="106" />
<glyph unicode="&#x2010;" horiz-adv-x="780" d="M136 475v208q0 18 18 18h472q18 0 18 -18v-208q0 -18 -18 -18h-472q-18 0 -18 18z" />
<glyph unicode="&#x2011;" horiz-adv-x="780" d="M136 475v208q0 18 18 18h472q18 0 18 -18v-208q0 -18 -18 -18h-472q-18 0 -18 18z" />
<glyph unicode="&#x2012;" horiz-adv-x="780" d="M136 475v208q0 18 18 18h472q18 0 18 -18v-208q0 -18 -18 -18h-472q-18 0 -18 18z" />
<glyph unicode="&#x2013;" horiz-adv-x="1050" d="M136 475v208q0 18 18 18h742q18 0 18 -18v-208q0 -18 -18 -18h-742q-18 0 -18 18z" />
<glyph unicode="&#x2014;" horiz-adv-x="1828" d="M136 475v208q0 18 18 18h1521q18 0 18 -18v-208q0 -18 -18 -18h-1521q-18 0 -18 18z" />
<glyph unicode="&#x2018;" horiz-adv-x="510" d="M54 1485q-6 17 13 15l253 -23q11 -2 15 -5.5t6 -14.5l71 -504q3 -18 -15 -18h-181q-11 0 -15.5 3.5t-7.5 13.5z" />
<glyph unicode="&#x2019;" horiz-adv-x="510" d="M98 953l71 504q2 11 6 14.5t15 5.5l253 23q19 2 13 -15l-139 -533q-3 -10 -7.5 -13.5t-15.5 -3.5h-181q-18 0 -15 18z" />
<glyph unicode="&#x201a;" horiz-adv-x="536" d="M68 -216l71 504q2 11 6 14.5t15 5.5l253 23q19 2 13 -15l-139 -533q-3 -10 -7.5 -13.5t-15.5 -3.5h-181q-18 0 -15 18z" />
<glyph unicode="&#x201c;" horiz-adv-x="917" d="M54 1485q-6 17 13 15l253 -23q11 -2 15 -5.5t6 -14.5l71 -504q3 -18 -15 -18h-181q-11 0 -15.5 3.5t-7.5 13.5zM459 1485q-6 17 13 15l254 -23q11 -2 15 -5.5t6 -14.5l71 -504q3 -18 -15 -18h-181q-11 0 -15.5 3.5t-7.5 13.5z" />
<glyph unicode="&#x201d;" horiz-adv-x="917" d="M99 953l71 504q2 11 6 14.5t15 5.5l254 23q19 2 13 -15l-140 -533q-3 -10 -7.5 -13.5t-15.5 -3.5h-181q-18 0 -15 18zM505 953l71 504q2 11 6 14.5t15 5.5l253 23q19 2 13 -15l-139 -533q-3 -10 -7.5 -13.5t-15.5 -3.5h-181q-18 0 -15 18z" />
<glyph unicode="&#x201e;" horiz-adv-x="941" d="M68 -216l71 504q2 11 6 14.5t15 5.5l254 23q19 2 13 -15l-140 -533q-3 -10 -7.5 -13.5t-15.5 -3.5h-181q-18 0 -15 18zM474 -216l71 504q2 11 6 14.5t15 5.5l253 23q19 2 13 -15l-139 -533q-3 -10 -7.5 -13.5t-15.5 -3.5h-181q-18 0 -15 18z" />
<glyph unicode="&#x2026;" horiz-adv-x="1507" d="M124 18v264q0 19 18 20l220 30q18 1 18 -16v-298q0 -18 -18 -18h-220q-18 0 -18 18zM622 18v264q0 19 18 20l220 30q18 1 18 -16v-298q0 -18 -18 -18h-220q-18 0 -18 18zM1120 18v264q0 19 18 20l220 30q18 1 18 -16v-298q0 -18 -18 -18h-220q-18 0 -18 18z" />
<glyph unicode="&#x202f;" horiz-adv-x="383" />
<glyph unicode="&#x2039;" horiz-adv-x="782" d="M45 534q0 6 7 14l312 369q7 8 13 11t17 3h275q17 0 6 -13l-331 -384l331 -383q11 -13 -6 -13h-275q-11 0 -17 3t-13 11l-312 368q-7 8 -7 14z" />
<glyph unicode="&#x203a;" horiz-adv-x="783" d="M108 151l331 383l-331 384q-11 13 6 13h275q11 0 17 -3t13 -11l312 -369q7 -8 7 -14t-7 -14l-312 -368q-7 -8 -13 -11t-17 -3h-275q-17 0 -6 13z" />
<glyph unicode="&#x205f;" horiz-adv-x="479" />
<glyph unicode="&#x20ac;" horiz-adv-x="1338" d="M68 509l26 138q2 11 6 14.5t15 3.5h122v140h-154q-18 0 -15 18l26 139q2 11 6 14.5t15 3.5h131q18 147 68.5 247t130 161t187.5 87.5t241 26.5q51 0 101.5 -3t96.5 -9t87 -14.5t73 -18.5q17 -5 14 -23l-33 -201q-3 -18 -21 -14q-75 15 -153.5 21t-154.5 6 q-75 0 -135.5 -13.5t-106.5 -45t-77 -82t-46 -125.5h469q18 0 15 -18l-26 -139q-2 -11 -6 -14.5t-15 -3.5h-451v-140h426q18 0 15 -18l-26 -138q-2 -11 -6 -14.5t-15 -3.5h-379q15 -74 46 -124t76.5 -81t106 -44t135.5 -13q87 0 166.5 5.5t153.5 15.5q18 3 21 -15l29 -205 q2 -11 -1 -15.5t-13 -7.5q-33 -8 -75 -14.5t-89 -11t-98.5 -7t-103.5 -2.5q-132 0 -240 26t-187.5 87t-130 160.5t-68.5 245.5h-164q-18 0 -15 18z" />
<glyph unicode="&#x2116;" horiz-adv-x="2433" d="M168 18v1439q0 18 18 18h257q11 0 16.5 -3.5t10.5 -12.5l486 -895q26 -44 39.5 -73.5t15.5 -29.5l1 996q0 18 18 18h229q18 0 18 -18v-1439q0 -18 -18 -18h-257q-11 0 -16.5 3.5t-10.5 12.5l-483 890q-29 48 -42 78.5t-14 30.5l-2 -997q0 -18 -18 -18h-230q-18 0 -18 18z M1457 220v162q0 18 18 18h820q18 0 18 -18v-162q0 -18 -18 -18h-820q-18 0 -18 18zM1461 960v87q0 118 22 204t72 142t131 82.5t199 26.5t200 -26.5t132 -82.5t72.5 -142t22.5 -204v-87q0 -119 -22 -204.5t-72.5 -141t-132 -82t-200.5 -26.5q-118 0 -199 26.5t-131 82 t-72 141t-22 204.5zM1688 970q0 -71 9.5 -120.5t32.5 -81t61.5 -45.5t95.5 -14t95 14t61 45.5t33 81.5t10 122v69q0 70 -9 119t-32 80t-62 45.5t-98 14.5q-57 0 -95 -14t-60.5 -45t-32 -80.5t-9.5 -119.5v-71z" />
<glyph unicode="&#x2122;" horiz-adv-x="1722" d="M77 1306v178q0 18 18 18h580q18 0 18 -18v-178q0 -18 -18 -18h-190v-574q0 -18 -18 -18h-165q-18 0 -18 18v574h-189q-18 0 -18 18zM779 714v770q0 18 18 18h213q11 0 16 -3.5t9 -13.5l106 -262q9 -24 16 -47.5t11.5 -41.5l7.5 -30t3 -14q0 1 3.5 13t8.5 30.5t12.5 42 t16.5 48.5l104 261q4 10 9 13.5t16 3.5h214q18 0 18 -18v-770q0 -18 -18 -18h-153q-18 0 -18 18l-4 498q-2 0 -5.5 -7.5t-8.5 -19t-10.5 -25.5t-10.5 -27l-100 -257q-5 -17 -24 -17h-97q-11 0 -16 3.5t-9 13.5l-99 249q-12 34 -22.5 57t-13.5 23l-5 -491q0 -18 -18 -18h-152 q-18 0 -18 18z" />
<glyph unicode="&#xe000;" horiz-adv-x="1070" d="M0 0v1070h1070v-1070h-1070z" />
</font>
</defs>
</svg>
